<?xml version="1.0" standalone="no"?>
<!DOCTYPE svg PUBLIC "-//W3C//DTD SVG 1.1//EN" "http://www.w3.org/Graphics/SVG/1.1/DTD/svg11.dtd" >
<svg>
<metadata>
Created by FontForge 20090914 at Fri May 20 15:56:57 2016
 By www-data
Copyright (c) 2014 Ahamono is designed by Alfredo Marco Pradil (ammpradil@gmail.com). Ahamono is a trademark of Alfredo Marco Pradil.
</metadata>
<defs>
<font id="AHAMONO-Regular" horiz-adv-x="566" >
  <font-face 
    font-family="AHAMONO"
    font-weight="400"
    font-stretch="normal"
    units-per-em="1000"
    panose-1="0 0 5 0 0 0 0 0 0 0"
    ascent="800"
    descent="-200"
    x-height="493"
    cap-height="739"
    bbox="-575 -425 602 1254"
    underline-thickness="50"
    underline-position="-130"
    unicode-range="U+0020-U+F8FF"
  />
<missing-glyph 
d="M50 0v510h466v-510h-466zM100 50h366v410h-366v-410z" />
    <glyph glyph-name=".notdef" 
d="M50 0v510h466v-510h-466zM100 50h366v410h-366v-410z" />
    <glyph glyph-name="space" unicode=" " 
 />
    <glyph glyph-name="exclam" unicode="!" 
d="M283 253c-10 0 -18.333 3.16699 -25 9.5s-10 14.833 -10 25.5v416c0 10 3.16699 18.333 9.5 25s14.833 10 25.5 10c10 0 18.333 -3.16699 25 -9.5s10 -14.833 10 -25.5v-416c0 -10 -3.16699 -18.333 -9.5 -25s-14.833 -10 -25.5 -10zM283 0
c-24 0 -44.001 8.83105 -60.001 26.498s-24 37.834 -24 60.501c0 24 8.5 44.5 25.5 61.5s36.5 25.5 58.5 25.5c22.667 0 42.334 -8.66699 59.001 -26s25 -37.666 25 -60.999c0 -24 -8.5 -44.5 -25.5 -61.5s-36.5 -25.5 -58.5 -25.5z" />
    <glyph glyph-name="quotedbl" unicode="&#x22;" 
d="M213 501c-10 0 -18.333 3.33301 -25 10s-10 15 -10 25v168c0 10 3.33301 18.333 10 25s15 10 25 10s18.333 -3.33301 25 -10s10 -15 10 -25v-168c0 -10 -3.33301 -18.333 -10 -25s-15 -10 -25 -10zM353 501c-10 0 -18.333 3.33301 -25 10s-10 15 -10 25v168
c0 10 3.33301 18.333 10 25s15 10 25 10s18.333 -3.33301 25 -10s10 -15 10 -25v-168c0 -10 -3.33301 -18.333 -10 -25s-15 -10 -25 -10z" />
    <glyph glyph-name="numbersign" unicode="#" 
d="M61 -21c-11.333 0 -20.333 3.50098 -27 10.501s-10 14.833 -10 23.5c0 2 0.666992 5.66699 2 11l52 182h-49c-10.667 0 -19.167 3.5 -25.5 10.5s-9.5 15.167 -9.5 24.5c0 10 3.16699 18.333 9.5 25s14.833 10 25.5 10h69l56 197h-67c-23.333 0 -35 11.667 -35 35
c0 10 3.16699 18.333 9.5 25s14.833 10 25.5 10h87l48 172c4.66699 16.667 15.667 25 33 25c9.33301 0 17.666 -3.16699 24.999 -9.5s11 -14.5 11 -24.5c0 -4.66699 -0.333008 -8.33398 -1 -11.001l-44 -152h159l48 172c4.66699 16 15.334 24 32.001 24
c10 0 18.833 -3 26.5 -9s11.5 -14 11.5 -24c0 -2 -0.666992 -5.66699 -2 -11l-44 -152h62c23.333 0 35 -11.667 35 -35c0 -10 -3.16699 -18.333 -9.5 -25s-14.833 -10 -25.5 -10h-82l-55 -197h79c23.333 0 35 -11.667 35 -35c0 -10 -3.16699 -18.333 -9.5 -25
s-14.833 -10 -25.5 -10h-99l-57 -202c-4.66699 -16.667 -15.667 -25 -33 -25c-10.667 0 -19.5 3.5 -26.5 10.5s-10.5 14.833 -10.5 23.5c0 2 0.666992 5.66699 2 11l52 182h-158l-57 -202c-4.66699 -16.667 -15.667 -25 -33 -25zM171 276.001h158l56 197h-159z" />
    <glyph glyph-name="dollar" unicode="$" 
d="M301 -74c-10 0 -18.335 3.16504 -25.002 9.49805s-10 14.833 -10 25.5v41c-53.333 6 -97.833 30.333 -133.5 73s-53.5 91.667 -53.5 147c0 10 3.66699 18.833 11 26.5s16 11.5 26 11.5c9.33301 0 17.666 -3.83301 24.999 -11.5s11 -16.5 11 -26.5
c0 -35.333 11.167 -66.833 33.5 -94.5s49.166 -44.167 80.499 -49.5v264l-86 69c-43.333 34 -65 81.667 -65 143c0 45.333 14 85.5 42 120.5s64.333 55.833 109 62.5v47c0 10 3.16699 18.333 9.5 25s14.833 10 25.5 10c10 0 18.333 -3.16699 25 -9.5s10 -14.833 10 -25.5
v-50c32 -7.33301 61.333 -21.666 88 -42.999s46.334 -47 59.001 -77c4.66699 -9.33301 5.33398 -19 2.00098 -29s-9.66602 -17.333 -18.999 -22c-19.333 -10 -35.333 -4 -48 18c-22 39.333 -49.333 64.333 -82 75v-275l89 -72c38.667 -32 58 -77.333 58 -136
c-2 -43.333 -16.667 -80.166 -44 -110.499s-61.666 -49.5 -102.999 -57.5v-44c0 -11.333 -3.5 -20 -10.5 -26s-15.167 -9 -24.5 -9zM265.998 436.998v223c-24 -6 -43.167 -19.5 -57.5 -40.5s-21.5 -43.5 -21.5 -67.5c0 -34 13 -61.333 39 -82zM335.998 82.998
c48 16.667 73 47.333 75 92c0 32.667 -10.667 57.667 -32 75l-43 35v-202z" />
    <glyph glyph-name="percent" unicode="%" 
d="M49 -5c-10 -1.33301 -18.332 1 -24.999 7c-6.66699 3.33301 -11.667 10 -15 20c-2.66699 10 -0.666992 19.333 6 28l475 678c6.66699 9.33301 14.667 14.333 24 15c9.33301 1.33301 17.666 -0.666992 24.999 -6s12.333 -12.333 15 -21
c3.33301 -8.66699 1.33301 -17.667 -6 -27l-475 -679c-7.33301 -9.33301 -15.333 -14.333 -24 -15zM157.001 415c-18 0 -36.333 3.66699 -55 11c-18 8.66699 -32.667 19.334 -44 32.001c-12.667 11.333 -22.667 26.333 -30 45c-7.33301 18 -11 36.667 -11 56v35
c0 19.333 3.66699 38 11 56c7.33301 19.333 17.333 34.666 30 45.999c11.333 12.667 26 23.334 44 32.001c18.667 7.33301 37 11 55 11s36.333 -3.66699 55 -11c18 -8.66699 32.667 -19.334 44 -32.001c12.667 -11.333 22.667 -26.666 30 -45.999
c7.33301 -18 11 -36.667 11 -56v-35c0 -19.333 -3.66699 -38 -11 -56c-7.33301 -18.667 -17.333 -33.667 -30 -45c-11.333 -12.667 -26 -23.334 -44 -32.001c-18.667 -7.33301 -37 -11 -55 -11zM157.001 494c17.333 0 32.333 6.33398 45 19.001c12 12.667 18 28 18 46v35
c0 17.333 -6 32.666 -18 45.999c-12.667 12.667 -27.667 19 -45 19c-16.667 0 -31 -6.33301 -43 -19c-12.667 -12.667 -19 -28 -19 -46v-35c0 -18 6.33301 -33.333 19 -46c12 -12.667 26.333 -19 43 -19zM417.001 0.000976562c-18.667 0 -37 4 -55 12
c-14.667 6.66699 -29.334 16.667 -44.001 30c-13.333 14 -23.333 29.333 -30 46c-7.33301 18 -11 36.667 -11 56v36c0 19.333 3.66699 38 11 56c6.66699 16.667 16.667 32 30 46c14.667 13.333 29.334 23.333 44.001 30c18 8 36.333 12 55 12s37 -4 55 -12
c14.667 -6.66699 29.334 -16.667 44.001 -30c13.333 -14 23.333 -29.333 30 -46c7.33301 -18 11 -36.667 11 -56v-36c0 -19.333 -3.66699 -38 -11 -56c-6.66699 -16.667 -16.667 -32 -30 -46c-14.667 -13.333 -29.334 -23.333 -44.001 -30c-18 -8 -36.333 -12 -55 -12z
M417.001 80.001c16.667 0 31.667 6.00098 45 18.001c12 13.333 18 28.666 18 45.999v36c0 17.333 -6 32.333 -18 45c-12.667 12.667 -27.667 19 -45 19c-16.667 0 -31 -6.33301 -43 -19c-12.667 -12.667 -19 -27.667 -19 -45v-36c0 -18 6.33301 -33.333 19 -46
c12 -12 26.333 -18 43 -18z" />
    <glyph glyph-name="ampersand" unicode="&#x26;" 
d="M251 0c-61.333 0 -113.666 22.167 -156.999 66.5s-65 97.5 -65 159.5c0 42 10.167 80.5 30.5 115.5s47.833 62.167 82.5 81.5c-40 36 -60 81.333 -60 136c0 50 17.667 92.5 53 127.5s78.666 52.5 129.999 52.5h167c10.667 0 19.5 -3.66699 26.5 -11
s10.5 -16.333 10.5 -27c0 -12 -3.66699 -21.333 -11 -28s-16 -10 -26 -10h-167c-30.667 0 -56.5 -9.83301 -77.5 -29.5s-31.5 -44.5 -31.5 -74.5c0 -30.667 10.333 -56 31 -76s46.667 -30 78 -30h245c10.667 0 19.5 -3.66699 26.5 -11s10.5 -16.333 10.5 -27
s-3.5 -19.667 -10.5 -27s-15.833 -11 -26.5 -11h-41v-339c0 -12 -3.66699 -21.333 -11 -28s-16 -10 -26 -10h-181zM251 76h144v301h-144c-40 0 -74.667 -15 -104 -45s-44 -65.333 -44 -106c0 -42 14.833 -77.5 44.5 -106.5s64.167 -43.5 103.5 -43.5z" />
    <glyph glyph-name="quotesingle" unicode="'" 
d="M283 501c-10 0 -18.333 3.33301 -25 10s-10 15 -10 25v168c0 10 3.33301 18.333 10 25s15 10 25 10s18.333 -3.33301 25 -10s10 -15 10 -25v-168c0 -10 -3.33301 -18.333 -10 -25s-15 -10 -25 -10z" />
    <glyph glyph-name="parenleft" unicode="(" 
d="M428 -235c-5.33301 0 -10.668 0.999023 -16.001 2.99902c-183.333 73.333 -275 235.333 -275 486c0.666992 248 92.334 408.667 275.001 482c5.33301 2 10.333 3 15 3c10.667 0 20 -4.16699 28 -12.5s12 -17.5 12 -27.5c0 -17.333 -8.33301 -29.666 -25 -36.999
c-149.333 -60 -224.333 -196 -225 -408c0 -214 75 -351.333 225 -412c17.333 -6.66699 26 -19 26 -37c0 -11.333 -4 -20.833 -12 -28.5s-17.333 -11.5 -28 -11.5z" />
    <glyph glyph-name="parenright" unicode=")" 
d="M177 -235c-11.333 0 -20.834 3.83398 -28.501 11.501s-11.5 17.167 -11.5 28.5c0 18 8.66699 30.333 26 37c150 60.667 225 198 225 412c-0.666992 212 -75.667 348 -225 408c-16.667 7.33301 -25 19.666 -25 36.999c0 10 4 19.167 12 27.5s17.333 12.5 28 12.5
c5.33301 0 10.333 -1 15 -3c182.667 -73.333 274.334 -234 275.001 -482c0 -250.667 -91.667 -412.667 -275 -486c-4.66699 -2 -10 -3 -16 -3z" />
    <glyph glyph-name="asterisk" unicode="*" 
d="M167 314c-21.333 0 -33.998 11.999 -37.998 35.999c-2.66699 12 -1 21.667 5 29l102 119l-149 31c-10.667 2 -18.667 8.66699 -24 20c-2.66699 5.33301 -4 12.333 -4 21c0 7.33301 1.66699 15.333 5 24c6 14.667 15.333 22 28 22c5.33301 0 11 -1 17 -3l145 -59l-15 150
c-1.33301 8 1.66699 15.667 9 23c12.667 12.667 24.334 19 35.001 19s21 -5 31 -15c9.33301 -9.33301 13.666 -18 12.999 -26l-15 -151l144 59c9.33301 2.66699 15.666 4 18.999 4c15.333 0 25.666 -11.333 30.999 -34c0.666992 -4 1 -9 1 -15
c0 -13.333 -4.66699 -24.333 -14 -33c-4 -2.66699 -8.66699 -4.66699 -14 -6l-149 -31l102 -119c4.66699 -5.33301 7 -11.666 7 -18.999c0 -5.33301 -0.666992 -9.33301 -2 -12c-6 -22.667 -20 -34 -42 -34h-8c-12.667 2 -21.667 7.66699 -27 17l-77 134l-77 -134
c-7.33301 -11.333 -20.333 -17 -39 -17z" />
    <glyph glyph-name="plus" unicode="+" 
d="M283 -25c-10.667 -0.666992 -19.4971 2.33301 -26.4971 9s-10.167 15.667 -9.5 27v202l-203 1c-10.667 -0.666992 -19.334 2.33301 -26.001 9s-10 15.667 -10 27c-0.666992 10.667 2.5 19.334 9.5 26.001s15.833 10 26.5 10h202v202c0 10.667 3.5 19.334 10.5 26.001
s15.833 10 26.5 10c11.333 0 20.333 -3.16699 27 -9.5s9.66699 -14.833 9 -25.5v-202l203 -1c10 0 18.333 -3.33301 25 -10s10 -15.334 10 -26.001s-3.33301 -19.5 -10 -26.5s-15.334 -10.5 -26.001 -10.5h-202v-202c0 -10.667 -3.33301 -19.334 -10 -26.001
s-15.334 -10 -26.001 -10z" />
    <glyph glyph-name="comma" unicode="," 
d="M234 -203l-39.001 19l86 184c-20.667 1.33301 -38.167 9.5 -52.5 24.5s-21.5 33.167 -21.5 54.5c0 22 7.83301 40.667 23.5 56s33.167 23 52.5 23c20.667 0 38.334 -7.83301 53.001 -23.5s22 -34.167 22 -55.5v-79z" />
    <glyph glyph-name="hyphen" unicode="-" 
d="M141 215c-11.333 0 -20 3.66699 -26 11c-6 6.66699 -9 14.667 -9 24s3 17.333 9 24c6 7.33301 14.667 11 26 11h284c11.333 0 19.666 -3.66699 24.999 -11c6 -6.66699 9 -14.667 9 -24s-3 -17.333 -9 -24c-5.33301 -7.33301 -13.666 -11 -24.999 -11h-284z" />
    <glyph glyph-name="period" unicode="." 
d="M283 0c-27.333 0 -50.333 10.333 -69 31s-28 44 -28 70c0 28 9.83301 51.833 29.5 71.5s42.167 29.5 67.5 29.5c26.667 0 49.5 -10 68.5 -30s28.5 -43.667 28.5 -71c0 -28 -9.83301 -51.833 -29.5 -71.5s-42.167 -29.5 -67.5 -29.5z" />
    <glyph glyph-name="slash" unicode="/" 
d="M33 -189c-10 0 -18.3311 3.33496 -24.998 10.002c-8 7.33301 -12 15.666 -12 24.999c0 3.33301 0.333008 6 1 8l3 9l469 856c3.33301 6 7.66602 10.667 12.999 14c4 4 9.66699 6 17 6c10 0 18.333 -3.66699 25 -11c7.33301 -6 11 -14 11 -24
c0 -6.66699 -1.33301 -12.334 -4 -17.001l-469 -857c-6.66699 -12.667 -16.334 -19 -29.001 -19z" />
    <glyph glyph-name="zero" unicode="0" 
d="M283 0c-60 0 -109.668 21.666 -149.001 64.999c-41.333 41.333 -62 93 -62 155v300c0 60.667 20.833 112.334 62.5 155.001s91.167 64 148.5 64c60.667 0 110.334 -21.333 149.001 -64c18 -18 33.333 -41.333 46 -70c10.667 -28.667 16 -57 16 -85v-300
c0 -60.667 -20.833 -112.5 -62.5 -155.5s-91.167 -64.5 -148.5 -64.5zM145.999 199.999l235.001 420.999c-28.667 28.667 -61.334 43 -98.001 43c-38 0 -70.667 -14.167 -98 -42.5s-41 -62.166 -41 -101.499v-300c0 -9.33301 0.666992 -16 2 -20zM283 75.998
c37.333 0 69.833 14.332 97.5 42.999s41.5 62.334 41.5 101.001v300c0 9.33301 -0.666992 16 -2 20l-235 -422c27.333 -28 60 -42 98 -42z" />
    <glyph glyph-name="one" unicode="1" 
d="M101 0c-10.667 0 -19.499 3.66699 -26.499 11s-10.5 16.333 -10.5 27c0 9.33301 3.66699 18 11 26s16 12 26 12h146v588h-146c-10.667 0 -19.5 3.66699 -26.5 11s-10.5 16.333 -10.5 27c0 10 3.66699 18.667 11 26s16 11 26 11h182c9.33301 0 17.666 -3.66699 24.999 -11
s11 -16 11 -26v-626h146c10 0 18.667 -3.83301 26 -11.5s11 -16.5 11 -26.5c0 -10.667 -3.5 -19.667 -10.5 -27s-15.833 -11 -26.5 -11h-364z" />
    <glyph glyph-name="two" unicode="2" 
d="M95 0c-10 0 -18.5 3.66699 -25.5 11s-10.5 16.333 -10.5 27c0 46 16.333 86.333 49 121l266 270c26 26 39 58.333 39 97c0 37.333 -12.833 69.5 -38.5 96.5s-56.834 40.5 -93.501 40.5c-31.333 0 -59.166 -9.83301 -83.499 -29.5s-39.5 -44.5 -45.5 -74.5
c-1.33301 -10.667 -5.33301 -20 -12 -28s-15.334 -12 -26.001 -12c-10 0 -18.667 3.16699 -26 9.5s-11 14.5 -11 24.5c0 50.667 20.333 94.334 61 131.001s88.334 55 143.001 55c57.333 0 105.833 -20.833 145.5 -62.5s59.5 -91.834 59.5 -150.501c0 -60 -20 -110 -60 -150
l-267 -270c-8 -8.66699 -14.667 -19 -20 -31h332c9.33301 0 17.666 -3.66699 24.999 -11s11 -16 11 -26c0 -11.333 -3.66699 -20.5 -11 -27.5s-15.666 -10.5 -24.999 -10.5h-376z" />
    <glyph glyph-name="three" unicode="3" 
d="M283 0c-55.333 0 -102.834 20.833 -142.501 62.5s-59.5 91.167 -59.5 148.5c0 10.667 3.33301 19.667 10 27s15.334 11 26.001 11c10 0 18.5 -3.83301 25.5 -11.5s10.5 -16.5 10.5 -26.5c0 -36.667 12.667 -68.334 38 -95.001s56 -40 92 -40s66.667 13.333 92 40
s38 58.334 38 95.001v84c0 36.667 -12.667 68.5 -38 95.5s-56 40.5 -92 40.5c-20.667 0 -43.334 -8.5 -68.001 -25.5s-41 -25.5 -49 -25.5c-15.333 0 -26.333 7.16699 -33 21.5s-5 27.833 5 40.5l188 222h-209c-10 0 -18.5 3.66699 -25.5 11s-10.5 16.333 -10.5 27
c0 10 3.5 18.667 10.5 26s15.5 11 25.5 11h288c11.333 0 20.333 -3.83301 27 -11.5s10 -16.5 10 -26.5s-3 -18 -9 -24l-146 -171c56.667 -2 103.834 -23.667 141.501 -65s56.5 -90 56.5 -146v-84c0 -56.667 -19.667 -106 -59 -148s-87 -63 -143 -63z" />
    <glyph glyph-name="four" unicode="4" 
d="M389 0c-10.667 0 -19.5 3.66797 -26.5 11.001s-10.5 16.333 -10.5 27v147h-284c-10 0 -18.667 3.66699 -26 11s-11 16 -11 26c0 7.33301 2.33301 14.666 7 21.999l320 479c6.66699 10.667 17 16 31 16c10 0 18.667 -3.66699 26 -11s11 -16 11 -26v-442h72
c10.667 0 19.5 -3.66699 26.5 -11s10.5 -16.333 10.5 -27c0 -10 -3.66699 -18.667 -11 -26s-16 -11 -26 -11h-72v-147c0 -10.667 -3.5 -19.667 -10.5 -27s-15.833 -11 -26.5 -11zM138 260.001h214v319z" />
    <glyph glyph-name="five" unicode="5" 
d="M283 0c-57.333 0 -105.333 21 -144 63s-58 91.333 -58 148c0 11.333 3.66699 20.5 11 27.5s15.666 10.5 24.999 10.5c10 0 18.5 -3.66699 25.5 -11s10.5 -16.333 10.5 -27c0 -36 12.5 -67.5 37.5 -94.5s55.833 -40.5 92.5 -40.5c37.333 0 68.333 13.5 93 40.5
s37 58.5 37 94.5v71c0 38.667 -12.667 71 -38 97s-56 39 -92 39c-22.667 0 -46.5 -8.5 -71.5 -25.5s-40.5 -25.5 -46.5 -25.5c-10 0 -18.5 3.83301 -25.5 11.5s-10.5 16.5 -10.5 26.5v296c0 12 3.66699 21.333 11 28s16 10 26 10h283c10 0 18.5 -3.66699 25.5 -11
s10.5 -16.333 10.5 -27s-3.66699 -19.5 -11 -26.5s-15.666 -10.5 -24.999 -10.5h-247v-189c25.333 12 52.333 18 81 18c56.667 0 104.5 -20.667 143.5 -62s58.5 -91 58.5 -149v-71c0 -58 -19.5 -107.667 -58.5 -149s-86.833 -62 -143.5 -62z" />
    <glyph glyph-name="six" unicode="6" 
d="M283 0c-58.667 0 -108.667 21.6689 -150 65.002s-62 95 -62 155v299c0 60 20.5 111.667 61.5 155s91.167 65 150.5 65c50.667 0 94 -15.333 130 -46s59 -63.334 69 -98.001c2 -7.33301 3 -13 3 -17c0 -11.333 -3.66699 -19.833 -11 -25.5s-15 -8.5 -23 -8.5
c-4.66699 0 -9 1 -13 3s-7.5 4.5 -10.5 7.5s-6.16699 6.83301 -9.5 11.5s-5.83301 8.5 -7.5 11.5s-3.66699 6.83301 -6 11.5l-4.5 9c-11.333 21.333 -27.666 37.666 -48.999 48.999s-44 17 -68 17c-37.333 0 -69.833 -14.333 -97.5 -43s-41.5 -62.667 -41.5 -102v-73
c39.333 36 85.666 54 138.999 54c58.667 0 108.667 -21.667 150 -65s62 -95 62 -155v-60c0 -59.333 -20.667 -110.833 -62 -154.5s-91.333 -65.5 -150 -65.5zM283 76.002c38 0 70.667 14.167 98 42.5s41 62.166 41 101.499v60c0 40 -13.5 74.167 -40.5 102.5
s-59.833 42.5 -98.5 42.5c-39.333 0 -72.333 -14.667 -99 -44s-40 -63 -40 -101v-60c0 -39.333 13.667 -73.166 41 -101.499s60 -42.5 98 -42.5z" />
    <glyph glyph-name="seven" unicode="7" 
d="M177 0c-9.33301 0 -17.832 3.5 -25.499 10.5s-11.5 15.167 -11.5 24.5c0 6.66699 3.66699 18.667 11 36l253 593h-298c-10 0 -18.5 3.66699 -25.5 11s-10.5 16.333 -10.5 27c0 11.333 3.66699 20.333 11 27s15.666 10 24.999 10h354c23.333 0 35 -11 35 -33
c0 -8 -3 -19.333 -9 -34l-269 -634c-6 -13.333 -11.667 -23 -17 -29s-13 -9 -23 -9z" />
    <glyph glyph-name="eight" unicode="8" 
d="M283 0c-58.667 0 -108.667 21.168 -150 63.501s-62 94.5 -62 156.5c0 37.333 8.33301 72.666 25 105.999s40.667 60 72 80c-46 37.333 -69 86.333 -69 147c0 51.333 18.333 95.166 55 131.499s79.667 54.5 129 54.5c50.667 0 94 -18.333 130 -55s54 -80.667 54 -132
c0 -60 -23 -108.667 -69 -146c32 -20 56.167 -46.667 72.5 -80s24.5 -68.666 24.5 -105.999c0 -61.333 -20.5 -113.333 -61.5 -156s-91.167 -64 -150.5 -64zM284 440.001c30.667 0 56.667 11.501 78 34.501s32 49.5 32 79.5c0 30.667 -11.333 56.667 -34 78
s-48.667 32 -78 32c-30 0 -55.833 -11.167 -77.5 -33.5s-32.5 -48.833 -32.5 -79.5s11.333 -56.834 34 -78.501s48.667 -32.5 78 -32.5zM283 76.002c38.667 0 71.501 13.6689 98.501 41.002s40.5 61.666 40.5 102.999s-13.667 75.833 -41 103.5s-60.333 41.5 -99 41.5
s-71.334 -14.167 -98.001 -42.5s-40 -62.5 -40 -102.5c0 -40.667 13.5 -74.834 40.5 -102.501s59.833 -41.5 98.5 -41.5z" />
    <glyph glyph-name="nine" unicode="9" 
d="M283 0c-50.667 0 -93.999 15.3291 -129.999 45.9961s-59 63.334 -69 98.001c-2 6.66699 -3 12.334 -3 17.001c0 11.333 3.66699 19.833 11 25.5s15 8.5 23 8.5c5.33301 0 10.333 -1.16699 15 -3.5s9 -6.16602 13 -11.499s7 -9.5 9 -12.5s4.66699 -8.16699 8 -15.5l6 -11
c11.333 -21.333 27.666 -37.666 48.999 -48.999s44 -17 68 -17c37.333 0 69.833 14.333 97.5 43s41.5 62.667 41.5 102v73c-38.667 -36 -85 -54 -139 -54c-58.667 0 -108.667 21.667 -150 65s-62 95 -62 155v60c0 59.333 20.667 110.833 62 154.5s91.333 65.5 150 65.5
s108.667 -21.667 150 -65s62 -95 62 -155v-299c0 -60 -20.5 -111.667 -61.5 -155s-91.167 -65 -150.5 -65zM283.001 313.996c39.333 0 72.333 14.667 99 44s40 63 40 101v60c0 39.333 -13.667 73.166 -41 101.499s-60 42.5 -98 42.5s-70.667 -14.167 -98 -42.5
s-41 -62.166 -41 -101.499v-60c0 -40 13.5 -74.167 40.5 -102.5s59.833 -42.5 98.5 -42.5z" />
    <glyph glyph-name="colon" unicode=":" 
d="M266 320c-24 0 -44.001 8.83105 -60.001 26.498s-24 37.834 -24 60.501c0 24 8.5 44.5 25.5 61.5s36.5 25.5 58.5 25.5c22.667 0 42.334 -8.66699 59.001 -26s25 -37.666 25 -60.999c0 -24 -8.5 -44.5 -25.5 -61.5s-36.5 -25.5 -58.5 -25.5zM265.999 -0.00195312
c-24 0 -44.001 8.83105 -60.001 26.498s-24 37.834 -24 60.501c0 24 8.5 44.5 25.5 61.5s36.5 25.5 58.5 25.5c22.667 0 42.334 -8.66699 59.001 -26s25 -37.666 25 -60.999c0 -24 -8.5 -44.5 -25.5 -61.5s-36.5 -25.5 -58.5 -25.5z" />
    <glyph glyph-name="semicolon" unicode=";" 
d="M266 320c-24 0 -44.001 8.83105 -60.001 26.498s-24 37.834 -24 60.501c0 24 8.5 44.5 25.5 61.5s36.5 25.5 58.5 25.5c22.667 0 42.334 -8.66699 59.001 -26s25 -37.666 25 -60.999c0 -24 -8.5 -44.5 -25.5 -61.5s-36.5 -25.5 -58.5 -25.5zM216.999 -203.002l-39.001 19
l86 184c-20.667 1.33301 -38.167 9.5 -52.5 24.5s-21.5 33.167 -21.5 54.5c0 22 7.83301 40.667 23.5 56s33.167 23 52.5 23c20.667 0 38.334 -7.83301 53.001 -23.5s22 -34.167 22 -55.5v-79z" />
    <glyph glyph-name="less" unicode="&#x3c;" 
d="M442 3c-7.33301 0 -13.999 1.99805 -19.999 5.99805l-322 205c-12 6.66699 -18 17.334 -18 32.001c0 6.66699 1.66699 12.667 5 18c2.66699 4.66699 7 9.33398 13 14.001l322 205c10 5.33301 19.333 6.33301 28 3c10 -2 17.667 -7.33301 23 -16
c5.33301 -9.33301 7 -18.666 5 -27.999c-2 -11.333 -7.33301 -19.333 -16 -24l-271 -172l271 -173c7.33301 -4.66699 12.666 -12.334 15.999 -23.001c2 -10 0.333008 -19.667 -5 -29c-6.66699 -12 -17 -18 -31 -18z" />
    <glyph glyph-name="equal" unicode="=" 
d="M121 295c-11.333 0 -20 3.66699 -26 11c-6 6.66699 -9 14.667 -9 24s3 17.333 9 24c6 7.33301 14.667 11 26 11h324c11.333 0 19.666 -3.66699 24.999 -11c6 -6.66699 9 -14.667 9 -24s-3 -17.333 -9 -24c-5.33301 -7.33301 -13.666 -11 -24.999 -11h-324zM121 135
c-11.333 0 -20 3.66699 -26 11c-6 6.66699 -9 14.667 -9 24s3 17.333 9 24c6 7.33301 14.667 11 26 11h324c11.333 0 19.666 -3.66699 24.999 -11c6 -6.66699 9 -14.667 9 -24s-3 -17.333 -9 -24c-5.33301 -7.33301 -13.666 -11 -24.999 -11h-324z" />
    <glyph glyph-name="greater" unicode="&#x3e;" 
d="M119 3c-14 0 -24.332 6.00098 -30.999 18.001c-5.33301 10 -6.66602 19.667 -3.99902 29c3.33301 10.667 8.66602 18.334 15.999 23.001l271 173l-271 172c-8.66699 4.66699 -14 12.667 -16 24c-2.66699 9.33301 -1.33398 18.666 3.99902 27.999
c5.33301 8.66699 13 14 23 16c8.66699 3.33301 18 2.33301 28 -3l323 -205c6 -5.33301 10 -10 12 -14c3.33301 -4 5 -10 5 -18c0 -14.667 -6 -25.334 -18 -32.001l-322 -205c-6 -4 -12.667 -6 -20 -6z" />
    <glyph glyph-name="question" unicode="?" 
d="M279 235c-10.667 0 -20 3.66602 -28 10.999s-12 17 -12 29v130c0 25.333 15.667 38 47 38c48 0 81.667 7.5 101 22.5s29 39.5 29 73.5c0 38.667 -13.5 69 -40.5 91s-60.167 33 -99.5 33c-34 0 -65.833 -13 -95.5 -39s-44.5 -53.667 -44.5 -83
c0 -17.333 -4 -30.666 -12 -39.999s-17.333 -14 -28 -14c-8.66699 0 -16.5 3 -23.5 9s-10.5 13.667 -10.5 23c0 60.667 21 112.5 63 155.5s92.333 64.5 151 64.5c60.667 0 111.5 -18.667 152.5 -56s61.5 -85.333 61.5 -144c0 -55.333 -14 -96.5 -42 -123.5
s-73 -41.833 -135 -44.5v-96c0 -13.333 -3.33301 -23.333 -10 -30s-14.667 -10 -24 -10zM280 -0.000976562c-21.333 0 -39.334 8 -54.001 24s-22 34.333 -22 55c0 22.667 7.33301 41.5 22 56.5s32.334 22.5 53.001 22.5s38.5 -7.83301 53.5 -23.5s22.5 -34.167 22.5 -55.5
c0 -23.333 -7 -42.333 -21 -57s-32 -22 -54 -22z" />
    <glyph glyph-name="at" unicode="@" 
d="M283 0c-66.667 0 -123.668 23.6699 -171.001 71.0029s-71 105 -71 173s24.333 125.333 73 172c48 46 104 69 168 69h13c61.333 0 116 -25.333 164 -76c44.667 -46.667 67 -104.334 67 -173.001c0 -32 -11.333 -59.333 -34 -82s-50 -34 -82 -34h-34
c-13.333 0 -22.333 6.33301 -27 19c-18.667 -12.667 -43 -19 -73 -19c-28.667 0 -55 12 -79 36s-36 52.667 -36 86c0 34 12 63 36 87s50.333 36 79 36c30 0 54.333 -6.33301 73 -19c4.66699 12.667 12.334 19 23.001 19c11.333 0 20 -3 26 -9
c5.33301 -5.33301 8 -12.333 8 -21v-156h4c15.333 0 28.666 5.66699 39.999 17s17 24.666 17 39.999c0 50.667 -17.667 94.667 -53 132c-34 38.667 -74.667 58 -122 58h-10h-9c-42.667 0 -82 -17.667 -118 -53c-36.667 -34.667 -55 -78.334 -55 -131.001
c0 -50.667 17.333 -94 52 -130c36.667 -35.333 80.334 -53 131.001 -53h214c8 0 15 -3 21 -9c5.33301 -5.33301 8 -12 8 -20s-2.66699 -15.333 -8 -22c-6.66699 -5.33301 -13.667 -8 -21 -8h-214zM280.999 178.003l1.00098 0.000976562c18 1.33301 33.333 7.66602 46 18.999
c12.667 12 19 27 19 45c0 17.333 -6.33301 32.333 -19 45s-28 19 -46 19c-17.333 0 -32 -6.33301 -44 -19c-12.667 -12.667 -19 -27.667 -19 -45s6.33301 -32 19 -44c11.333 -13.333 25.666 -20 42.999 -20z" />
    <glyph glyph-name="A" unicode="A" 
d="M38 0c-10 0 -18.667 3.5 -26 10.5s-11 16.167 -11 27.5l248 678c6 15.333 17.333 23 34 23c17.333 0 28.666 -7.66699 33.999 -23l248 -678c0 -12 -3.66699 -21.333 -11 -28s-16 -10 -26 -10c-16 0 -27.333 8 -34 24l-62 167h-298l-62 -167
c-7.33301 -16 -18.666 -24 -33.999 -24zM162 266h242l-121 328z" />
    <glyph glyph-name="B" unicode="B" 
d="M106 0c-10 0 -18.499 3.83203 -25.499 11.499s-10.5 16.5 -10.5 26.5v663c0 10 3.66699 18.833 11 26.5s15.666 11.5 24.999 11.5h191c49.333 0 91.333 -18.167 126 -54.5s52 -79.833 52 -130.5c0 -61.333 -33 -107.333 -99 -138c100 -36 150 -100.667 150 -194
c0 -61.333 -21.167 -113.666 -63.5 -156.999s-92.5 -65 -150.5 -65h-206zM143.001 443.999h154c30.667 0 56 11 76 33s30 47.667 30 77s-10.333 54.833 -31 76.5s-45.667 32.5 -75 32.5h-154v-219zM143.001 74.999l168.999 0.000976562c40 0 73.5 14.667 100.5 44
s40.5 63.666 40.5 102.999c0 40 -13.667 74.5 -41 103.5s-60.666 43.5 -99.999 43.5h-169v-294z" />
    <glyph glyph-name="C" unicode="C" 
d="M293 0c-58 0 -107.333 21.5 -148 64.5s-61 94.167 -61 153.5v303c0 59.333 20.333 110.5 61 153.5s90 64.5 148 64.5s107.333 -21.5 148 -64.5s61 -94.167 61 -153.5c0 -11.333 -3.66699 -20.5 -11 -27.5s-15.666 -10.5 -24.999 -10.5c-10 0 -18.5 3.66699 -25.5 11
s-10.5 16.333 -10.5 27c0 38.667 -13.333 72 -40 100s-59 42 -97 42c-38.667 0 -71.167 -14.167 -97.5 -42.5s-39.5 -61.5 -39.5 -99.5v-303c0 -38.667 13.333 -72.167 40 -100.5s59 -42.5 97 -42.5c39.333 0 72 14.167 98 42.5s39 61.833 39 100.5
c0 11.333 3.66699 20.333 11 27s15.666 10 24.999 10c10 0 18.5 -3.5 25.5 -10.5s10.5 -15.833 10.5 -26.5c0 -59.333 -20.333 -110.5 -61 -153.5s-90 -64.5 -148 -64.5z" />
    <glyph glyph-name="D" unicode="D" 
d="M122 0c-10 0 -18.499 3.66699 -25.499 11s-10.5 16.333 -10.5 27v663c0 11.333 3.66699 20.5 11 27.5s15.666 10.5 24.999 10.5h173c58 0 107.333 -21.5 148 -64.5s61 -94.167 61 -153.5v-303c0 -59.333 -20.333 -110.5 -61 -153.5s-90 -64.5 -148 -64.5h-173z
M158.001 75h137c37.333 0 69.5 14.333 96.5 43s40.5 62 40.5 100v303c0 39.333 -13.667 73 -41 101s-59.333 42 -96 42h-137v-589z" />
    <glyph glyph-name="E" unicode="E" 
d="M115 0c-9.33301 0 -17.501 3.66797 -24.501 11.001s-10.5 16.333 -10.5 27v663c0 10 3.33301 18.833 10 26.5s15 11.5 25 11.5h366c9.33301 0 17.5 -3.83301 24.5 -11.5s10.5 -16.834 10.5 -27.501s-3.5 -19.5 -10.5 -26.5s-15.167 -10.5 -24.5 -10.5h-330v-256h256
c10 0 18.5 -3.66699 25.5 -11s10.5 -16.333 10.5 -27s-3.66699 -19.5 -11 -26.5s-15.666 -10.5 -24.999 -10.5h-256v-257h330c9.33301 0 17.5 -3.66699 24.5 -11s10.5 -16.333 10.5 -27s-3.66699 -19.5 -11 -26.5s-15.333 -10.5 -24 -10.5h-366z" />
    <glyph glyph-name="F" unicode="F" 
d="M145 0c-9.33301 0 -17.502 3.66699 -24.502 11s-10.5 16.333 -10.5 27v663c0 10 3.33301 18.833 10 26.5s15 11.5 25 11.5h346c9.33301 0 17.666 -3.83301 24.999 -11.5s11 -16.5 11 -26.5c0 -10.667 -3.66699 -19.667 -11 -27s-15.666 -11 -24.999 -11h-310v-256h236
c10 0 18.5 -3.66699 25.5 -11s10.5 -16.333 10.5 -27s-3.66699 -19.5 -11 -26.5s-15.666 -10.5 -24.999 -10.5h-236v-294c0 -11.333 -3.66699 -20.5 -11 -27.5s-15.666 -10.5 -24.999 -10.5z" />
    <glyph glyph-name="G" unicode="G" 
d="M283 0c-58 0 -107.334 21.501 -148.001 64.501s-61 94.167 -61 153.5v303c0 60.667 20.667 112.167 62 154.5s90.333 63.5 147 63.5c58.667 0 108.167 -19.833 148.5 -59.5s60.5 -89.167 60.5 -148.5c0 -11.333 -3.66699 -20.5 -11 -27.5s-15.666 -10.5 -24.999 -10.5
c-10 0 -18.5 3.66699 -25.5 11s-10.5 16.333 -10.5 27c0 37.333 -13.167 68.666 -39.5 93.999s-58.833 38 -97.5 38s-71.167 -14.167 -97.5 -42.5s-39.5 -61.5 -39.5 -99.5v-303c0 -38.667 13.333 -72.167 40 -100.5s59 -42.5 97 -42.5s70.333 14 97 42s40 61.667 40 101v74
h-117c-9.33301 0 -17.666 3.66699 -24.999 11s-11 16 -11 26c0 11.333 3.66699 20.5 11 27.5s15.666 10.5 24.999 10.5h153c10 0 18.5 -3.66699 25.5 -11s10.5 -16.333 10.5 -27v-111c0 -59.333 -20.333 -110.5 -61 -153.5s-90 -64.5 -148 -64.5z" />
    <glyph glyph-name="H" unicode="H" 
d="M116 0c-10 0 -18.5 3.66699 -25.5 11s-10.5 16.333 -10.5 27v663c0 10 3.5 18.833 10.5 26.5s15.5 11.5 25.5 11.5c9.33301 0 17.666 -3.83301 24.999 -11.5s11 -16.5 11 -26.5v-294h262v294c0 10 3.66699 18.833 11 26.5s15.666 11.5 24.999 11.5
c10 0 18.5 -3.83301 25.5 -11.5s10.5 -16.5 10.5 -26.5v-663c0 -11.333 -3.66699 -20.5 -11 -27.5s-15.666 -10.5 -24.999 -10.5c-10 -0 -18.5 3.83301 -25.5 11.5s-10.5 16.5 -10.5 26.5v294h-262v-294c0 -10.667 -3.66699 -19.667 -11 -27s-15.666 -11 -24.999 -11z" />
    <glyph glyph-name="I" unicode="I" 
d="M126 0c-10 0 -18.498 3.66699 -25.498 11s-10.5 16.333 -10.5 27c0 11.333 3.66699 20.333 11 27s15.666 10 24.999 10h121v589h-121c-10 0 -18.5 3.66699 -25.5 11s-10.5 16.333 -10.5 27c0 11.333 3.66699 20.333 11 27s15.666 10 24.999 10h314
c10 0 18.5 -3.5 25.5 -10.5s10.5 -15.833 10.5 -26.5c0 -11.333 -3.66699 -20.5 -11 -27.5s-15.666 -10.5 -24.999 -10.5h-121v-589h121c10 0 18.5 -3.5 25.5 -10.5s10.5 -15.833 10.5 -26.5s-3.33301 -19.667 -10 -27s-15.334 -11 -26.001 -11h-314z" />
    <glyph glyph-name="J" unicode="J" 
d="M283 0c-58 0 -107.498 21.5 -148.498 64.5s-61.5 94.167 -61.5 153.5c0 10 3.66699 18.667 11 26s16 11 26 11c9.33301 0 17.666 -3.66699 24.999 -11s11 -16 11 -26c0 -38 13.5 -71.333 40.5 -100s59.167 -43 96.5 -43c38.667 0 71.167 14.5 97.5 43.5
s39.5 62.167 39.5 99.5v446h-274c-10 0 -18.5 3.66699 -25.5 11s-10.5 16.333 -10.5 27s3.66699 19.5 11 26.5s15.666 10.5 24.999 10.5h310c10 0 18.667 -3.66699 26 -11s11 -16 11 -26v-484c0 -59.333 -20.5 -110.5 -61.5 -153.5s-90.5 -64.5 -148.5 -64.5z" />
    <glyph glyph-name="K" unicode="K" 
d="M125 0c-10 0 -18.498 3.66699 -25.498 11s-10.5 16.333 -10.5 27v664c0 10.667 3.66699 19.5 11 26.5s15.666 10.5 24.999 10.5c10 0 18.667 -3.66699 26 -11s11 -16 11 -26v-362l236 382c7.33301 11.333 17.666 17 30.999 17c10 0 18.5 -3.83301 25.5 -11.5
s10.5 -16.5 10.5 -26.5c0 -6.66699 -2 -13 -6 -19l-151 -245l224 -380c3.33301 -8 5 -15 5 -21c0 -10 -3.5 -18.5 -10.5 -25.5s-15.5 -10.5 -25.5 -10.5c-14 0 -24.333 6 -31 18l-206 348l-102 -166v-162c0 -10.667 -3.5 -19.667 -10.5 -27s-15.833 -11 -26.5 -11z" />
    <glyph glyph-name="L" unicode="L" 
d="M131 0c-9.33301 0 -17.666 3.66699 -24.999 11s-11 16.333 -11 27v664c0 10 3.66699 18.667 11 26s15.666 11 24.999 11c10 0 18.667 -3.66699 26 -11s11 -16 11 -26v-627h327c9.33301 0 17.666 -3.66699 24.999 -11s11 -16 11 -26c0 -10.667 -3.66699 -19.667 -11 -27
s-15.666 -11 -24.999 -11h-364z" />
    <glyph glyph-name="M" unicode="M" 
d="M78 0c-10 0 -18.501 3.66699 -25.501 11s-10.5 16.333 -10.5 27v664c0 10.667 3.83301 19.5 11.5 26.5s15.834 10.5 24.501 10.5c14.667 0 25.667 -7 33 -21l172 -364l172 364c7.33301 14 18.333 21 33 21c9.33301 0 17.666 -3.66699 24.999 -11s11 -16 11 -26v-664
c0 -11.333 -3.66699 -20.5 -11 -27.5s-15.666 -10.5 -24.999 -10.5c-10.667 0 -19.5 3.66699 -26.5 11s-10.5 16.333 -10.5 27v500l-135 -286c-6.66699 -14 -17.667 -21 -33 -21s-26.333 7 -33 21l-135 286v-500c0 -10.667 -3.5 -19.667 -10.5 -27s-15.833 -11 -26.5 -11z
" />
    <glyph glyph-name="N" unicode="N" 
d="M101 0c-10 0 -18.499 3.66699 -25.499 11s-10.5 16.333 -10.5 27v664c0 10.667 3.66699 19.5 11 26.5s15.666 10.5 24.999 10.5c14 0 24.333 -6.33301 31 -19l297 -540v522c0 10.667 3.66699 19.5 11 26.5s15.666 10.5 24.999 10.5s17.666 -3.66699 24.999 -11
s11 -16 11 -26v-664c0 -11.333 -3.66699 -20.5 -11 -27.5s-15.666 -10.5 -24.999 -10.5c-14.667 -0 -25 6.33301 -31 19l-297 540v-521c0 -11.333 -3.66699 -20.5 -11 -27.5s-15.666 -10.5 -24.999 -10.5z" />
    <glyph glyph-name="O" unicode="O" 
d="M283 -3c-58.667 0 -108.333 21.333 -149 64s-61 94 -61 154v306c0 60.667 20.5 112.167 61.5 154.5s90.5 63.5 148.5 63.5s107.5 -21.333 148.5 -64s61.5 -94 61.5 -154v-306c0 -60 -20.5 -111.333 -61.5 -154s-90.5 -64 -148.5 -64zM283.001 72
c38.667 0 71.167 14.5 97.5 43.5s39.5 62.167 39.5 99.5v306c0 38.667 -13.333 72 -40 100s-59 42 -97 42c-38.667 0 -71.167 -14.167 -97.5 -42.5s-39.5 -61.5 -39.5 -99.5v-306c0 -39.333 13.667 -73 41 -101s59.333 -42 96 -42z" />
    <glyph glyph-name="P" unicode="P" 
d="M122 0c-10 0 -18.499 3.83301 -25.499 11.5s-10.5 16.5 -10.5 26.5v663c0 10 3.66699 18.833 11 26.5s15.666 11.5 24.999 11.5h160c60 0 111.333 -22.333 154 -67s64 -98 64 -160c0 -62.667 -21.5 -116.167 -64.5 -160.5s-94.167 -66.5 -153.5 -66.5h-123v-247
c0 -10.667 -3.5 -19.667 -10.5 -27s-15.833 -11 -26.5 -11zM159.001 361h123c39.333 0 73.333 14.833 102 44.5s43 65.167 43 106.5c0 40.667 -14.167 76 -42.5 106s-62.5 45 -102.5 45h-123v-302z" />
    <glyph glyph-name="Q" unicode="Q" 
d="M281 0c-58.667 0 -108.5 21.499 -149.5 64.499s-61.5 94.5 -61.5 154.5v301c0 60 20.5 111.5 61.5 154.5s90.833 64.5 149.5 64.5c58 0 107.5 -21.5 148.5 -64.5s61.5 -94.5 61.5 -154.5v-301c0 -43.333 -11.667 -83.666 -35 -120.999l37 -41
c4.66699 -5.33301 7 -12 7 -20c0 -10.667 -4 -19.5 -12 -26.5s-16.333 -10.5 -25 -10.5c-6 -0 -12.333 2.33301 -19 7l-39 36c-36.667 -28.667 -78 -43 -124 -43zM281 74.999c26 0 50.334 7.33203 73.001 21.999l-99 102c-7.33301 7.33301 -11 16.333 -11 27
s3.5 19.667 10.5 27s15.833 11 26.5 11s19 -3.66699 25 -11l97 -101c10.667 22 16 44.333 16 67v301c0 39.333 -13.833 73 -41.5 101s-59.834 42 -96.501 42c-38.667 0 -71.334 -14.5 -98.001 -43.5s-40 -62.167 -40 -99.5v-301c0 -39.333 13.333 -73.166 40 -101.499
s59.334 -42.5 98.001 -42.5z" />
    <glyph glyph-name="R" unicode="R" 
d="M118 0c-10 0 -18.501 3.83496 -25.501 11.502s-10.5 16.5 -10.5 26.5v663c0 10 3.66699 18.833 11 26.5s15.666 11.5 24.999 11.5h161c60.667 0 112.334 -22.333 155.001 -67s64 -98 64 -160c0 -48.667 -13.5 -92.334 -40.5 -131.001s-62.167 -66.334 -105.5 -83.001
l165 -239c4.66699 -7.33301 7 -14.333 7 -21c0 -10.667 -3.66699 -19.667 -11 -27s-15.666 -11 -24.999 -11c-13.333 -0 -23.333 5.33301 -30 16l-187 269h-116v-247c0 -10.667 -3.5 -19.667 -10.5 -27s-15.833 -11 -26.5 -11zM154.999 361.002h124
c39.333 0 73.5 14.833 102.5 44.5s43.5 65.167 43.5 106.5c0 40.667 -14.333 76 -43 106s-63 45 -103 45h-124v-302z" />
    <glyph glyph-name="S" unicode="S" 
d="M292 0c-60 0 -110.5 22.167 -151.5 66.5s-61.5 96.166 -61.5 155.499c0 10 3.66699 18.833 11 26.5s16 11.5 26 11.5c9.33301 0 17.666 -3.83301 24.999 -11.5s11 -16.5 11 -26.5c0 -41.333 13.833 -76 41.5 -104s60.5 -42 98.5 -42c33.333 0 61 9.16699 83 27.5
s34 42.166 36 71.499c0 32.667 -10.667 57.667 -32 75l-199 161c-43.333 34.667 -65 82.334 -65 143.001c0 50.667 16.833 94.167 50.5 130.5s75.834 54.5 126.501 54.5c60.667 0 114 -24.667 160 -74c23.333 -28 35 -50.667 35 -68c0 -10 -3.66699 -19 -11 -27
s-15.666 -12 -24.999 -12c-13.333 0 -24.333 7.66699 -33 23c-30 54.667 -72 82 -126 82c-30.667 0 -55.834 -11.167 -75.501 -33.5s-29.5 -48.166 -29.5 -77.499c0 -34 13 -61.333 39 -82l199 -161c38.667 -32 58 -77.333 58 -136c-2 -51.333 -21.5 -93 -58.5 -125
s-81.167 -48 -132.5 -48z" />
    <glyph glyph-name="T" unicode="T" 
d="M283 0c-10.667 0 -19.5 3.66699 -26.5 11s-10.5 16.333 -10.5 27v625h-205c-10.667 0 -19.5 3.66699 -26.5 11s-10.5 16.333 -10.5 27s3.5 19.667 10.5 27s15.833 11 26.5 11h484c10.667 0 19.5 -3.66699 26.5 -11s10.5 -16.333 10.5 -27s-3.5 -19.667 -10.5 -27
s-15.833 -11 -26.5 -11h-205v-625c0 -10.667 -3.5 -19.667 -10.5 -27s-15.833 -11 -26.5 -11z" />
    <glyph glyph-name="U" unicode="U" 
d="M283 0c-59.333 0 -109.169 21.666 -149.502 64.999s-60.5 94.666 -60.5 153.999v482c0 10 3.5 18.833 10.5 26.5s15.5 11.5 25.5 11.5s18.5 -3.83301 25.5 -11.5s10.5 -16.5 10.5 -26.5v-482c0 -39.333 13.333 -73.166 40 -101.499s59.334 -42.5 98.001 -42.5
s71.334 14.5 98.001 43.5s40 62.5 40 100.5v482c0 10 3.5 18.833 10.5 26.5s15.5 11.5 25.5 11.5s18.5 -3.83301 25.5 -11.5s10.5 -16.5 10.5 -26.5v-482c0 -61.333 -20.5 -113.166 -61.5 -155.499s-90.5 -63.5 -148.5 -63.5z" />
    <glyph glyph-name="V" unicode="V" 
d="M283 0c-18 0 -29.334 8.00098 -34.001 24.001l-195 657c-2 7.33301 -3 13.666 -3 18.999c0 12 3.33301 21.5 10 28.5s15.334 10.5 26.001 10.5c17.333 0 29 -9 35 -27l161 -545l161 545c6 18 17.667 27 35 27c24.667 0 37 -12 37 -36c0 -4 -1.33301 -11.333 -4 -22
l-195 -657c-4.66699 -16 -16 -24 -34 -24z" />
    <glyph glyph-name="W" unicode="W" 
d="M78 0c-10.667 0 -19.5 3.66699 -26.5 11s-10.5 16.333 -10.5 27v663c0 10 3.66699 18.833 11 26.5s16 11.5 26 11.5s18.5 -3.83301 25.5 -11.5s10.5 -16.5 10.5 -26.5v-499l136 287c6.66699 14.667 17.667 22 33 22s26.333 -7.33301 33 -22l136 -287v499
c0 10 3.5 18.833 10.5 26.5s15.5 11.5 25.5 11.5c10.667 0 19.5 -4 26.5 -12s10.5 -16.667 10.5 -26v-663c0 -10.667 -3.5 -19.667 -10.5 -27s-15.833 -11 -26.5 -11c-14.667 0 -25.667 7 -33 21l-172 366l-172 -366c-7.33301 -14 -18.333 -21 -33 -21z" />
    <glyph glyph-name="X" unicode="X" 
d="M115 0c-10 0 -18.668 3.66797 -26.001 11.001s-11 16 -11 26c0 7.33301 1.66699 13.333 5 18l159 314l-159 314c-2.66699 6 -4 12.667 -4 20c0 10 3.5 18.5 10.5 25.5s15.5 10.5 25.5 10.5c14 0 24.667 -7 32 -21l136 -268l136 268c7.33301 14 18 21 32 21
c10.667 0 19.334 -3.33301 26.001 -10s10 -15.334 10 -26.001c0 -7.33301 -1.33301 -14 -4 -20l-159 -314l159 -314c3.33301 -8 5 -14.333 5 -19c0 -10 -3.66699 -18.5 -11 -25.5s-16 -10.5 -26 -10.5c-13.333 0 -24 6.66699 -32 20l-136 269l-136 -269
c-8 -13.333 -18.667 -20 -32 -20z" />
    <glyph glyph-name="Y" unicode="Y" 
d="M283 0c-10 0 -18.499 3.66699 -25.499 11s-10.5 16.333 -10.5 27v322l-163 323c-3.33301 8 -5 14 -5 18c0 10 3.66699 18.833 11 26.5s15.666 11.5 24.999 11.5c14 0 24.667 -7 32 -21l136 -268l136 268c7.33301 14 18 21 32 21c9.33301 0 17.666 -3.83301 24.999 -11.5
s11 -16.5 11 -26.5c0 -4 -1.66699 -10 -5 -18l-163 -323v-322c0 -11.333 -3.66699 -20.5 -11 -27.5s-15.666 -10.5 -24.999 -10.5z" />
    <glyph glyph-name="Z" unicode="Z" 
d="M90 0c-10 0 -18.499 3.83301 -25.499 11.5s-10.5 16.5 -10.5 26.5c0 4.66699 1.66699 11 5 19l352 606h-281c-10.667 0 -19.5 3.66699 -26.5 11s-10.5 16.333 -10.5 27c0 10 3.66699 18.833 11 26.5s16 11.5 26 11.5h346c9.33301 0 17.666 -3.83301 24.999 -11.5
s11 -16.5 11 -26.5c0 -5.33301 -1.66699 -12 -5 -20l-352 -606h321c9.33301 0 17.666 -3.66699 24.999 -11s11 -16 11 -26c0 -10.667 -3.66699 -19.667 -11 -27s-15.666 -11 -24.999 -11h-386z" />
    <glyph glyph-name="bracketleft" unicode="[" 
d="M191 -235c-10 0 -18.502 3.66797 -25.502 11.001s-10.5 16.333 -10.5 27v896c0 12 3.66699 21.667 11 29s15.666 11 24.999 11h184c10.667 0 19.334 -3.83301 26.001 -11.5s10 -17.167 10 -28.5s-3.66699 -20.5 -11 -27.5s-15.666 -10.5 -24.999 -10.5h-148v-819h148
c10 0 18.5 -3.83301 25.5 -11.5s10.5 -16.834 10.5 -27.501c0 -11.333 -3.66699 -20.5 -11 -27.5s-15.666 -10.5 -24.999 -10.5h-184z" />
    <glyph glyph-name="backslash" unicode="\" 
d="M499 -189c-13.333 0 -23.333 6.33301 -30 19l-469 857c-2.66699 6 -4 11.667 -4 17c0 10 4 18 12 24c6.66699 7.33301 15 11 25 11c6 0 11.667 -2 17 -6c4.66699 -4 8.66699 -8.66699 12 -14l469 -856c2.66699 -4.66699 4 -10.334 4 -17.001
c0 -9.33301 -3.66699 -17.666 -11 -24.999c-6.66699 -6.66699 -15 -10 -25 -10z" />
    <glyph glyph-name="bracketright" unicode="]" 
d="M191 -235c-9.33301 0 -17.668 3.49902 -25.001 10.499s-11 16.167 -11 27.5c0 10.667 3.5 19.834 10.5 27.501s15.5 11.5 25.5 11.5h148v819h-148c-9.33301 0 -17.666 3.5 -24.999 10.5s-11 16.167 -11 27.5s3.33301 20.833 10 28.5s15.334 11.5 26.001 11.5h184
c9.33301 0 17.666 -3.66699 24.999 -11s11 -17 11 -29v-896c0 -10.667 -3.5 -19.667 -10.5 -27s-15.5 -11 -25.5 -11h-184z" />
    <glyph glyph-name="asciicircum" unicode="^" 
d="M485 381c-4 0 -7.00098 0.334961 -9.00098 1.00195c-10.667 3.33301 -18.334 8.66602 -23.001 15.999l-173 271l-172 -271c-4.66699 -8.66699 -12.667 -14 -24 -16c-9.33301 -2.66699 -18.666 -1.33398 -27.999 3.99902c-8.66699 5.33301 -14 13 -16 23
c-3.33301 8.66699 -2.33301 18 3 28l205 323c8 11.333 19 17 33 17s24.333 -6 31 -18l205 -322c4 -6 6 -14.333 6 -25c0 -10 -5.33301 -18 -16 -24c-7.33301 -4.66699 -14.666 -7 -21.999 -7z" />
    <glyph glyph-name="underscore" unicode="_" 
d="M51 -100c-11.333 0 -20 3.66699 -26 11s-9 15.333 -9 24s3 16.667 9 24s14.667 11 26 11h464c11.333 0 19.666 -3.66699 24.999 -11c6 -7.33301 9 -15.333 9 -24s-3 -16.667 -9 -24c-5.33301 -7.33301 -13.666 -11 -24.999 -11h-464z" />
    <glyph glyph-name="grave" unicode="`" 
d="M273 606c-2 0 -6.33301 0.666992 -13 2c-4 0.666992 -9 4 -15 10l-79 92c-7.33301 7.33301 -11 15.333 -11 24c0 4 0.333008 6.66699 1 8c3.33301 10 10 17.667 20 23c9.33301 4.66699 17.333 5.66699 24 3c8 -4 13.333 -7.66699 16 -11l81 -92
c6.66699 -7.33301 10 -15 10 -23c0 -4 -0.333008 -7 -1 -9c-6.66699 -18 -17.667 -27 -33 -27z" />
    <glyph glyph-name="a" unicode="a" 
d="M228 0c-51.333 0 -91.499 13.3311 -120.499 39.998s-43.5 61.334 -43.5 104.001c0 43.333 15 78.333 45 105s69.333 40.334 118 41.001c101.333 0.666992 158.333 4.66699 171 12c10 9.33301 15 20 15 32c0 23.333 -12.167 44 -36.5 62s-54.5 27 -90.5 27
c-27.333 0 -52.5 -6 -75.5 -18s-40.5 -29.333 -52.5 -52c-6.66699 -14 -17 -21 -31 -21c-24 0 -36 11.667 -36 35c0 31.333 22 60.166 66 86.499s89 39.5 135 39.5c48 0 91.667 -15.167 131 -45.5s59 -68.166 59 -113.499v-299c0 -10.667 -3.5 -19.167 -10.5 -25.5
s-15.167 -9.5 -24.5 -9.5s-17.333 3.33301 -24 10s-10 15 -10 25v46c-21.333 -28 -48.833 -48.5 -82.5 -61.5s-67.834 -19.5 -102.501 -19.5zM242.001 70.998c50.667 0 91.833 11.668 123.5 35.001s47.5 56.666 47.5 99.999v47c-16 -8.66699 -35 -14 -57 -16
s-61.333 -3.66699 -118 -5c-68 -1.33301 -102 -29 -102 -83c0 -52 35.333 -78 106 -78z" />
    <glyph glyph-name="b" unicode="b" 
d="M127 0c-10 0 -18.5 3.66699 -25.5 11s-10.5 16.333 -10.5 27v664c0 10.667 3.66699 19.5 11 26.5s15.666 10.5 24.999 10.5c10 0 18.667 -3.66699 26 -11s11 -16 11 -26v-263c40.667 36.667 81.334 55 122.001 55c68 0 123.167 -20.833 165.5 -62.5
s63.5 -94.5 63.5 -158.5v-53c0 -60.667 -20.5 -112.5 -61.5 -155.5s-89.833 -64.5 -146.5 -64.5c-55.333 0 -103 18 -143 54v-16c0 -10.667 -3.5 -19.667 -10.5 -27s-15.833 -11 -26.5 -11zM302 76c38 0 70.833 13.999 98.5 41.999s41.5 62 41.5 102v53
c0 42 -13.667 76.667 -41 104s-60.333 41 -99 41c-38 0 -70.5 -14 -97.5 -42s-40.5 -62.333 -40.5 -103v-53c0 -41.333 13.5 -75.666 40.5 -102.999s59.5 -41 97.5 -41z" />
    <glyph glyph-name="c" unicode="c" 
d="M313 0c-58 0 -107.833 21.668 -149.5 65.001s-62.5 93.666 -62.5 150.999v61c0 60 21.167 111 63.5 153s92.166 63 149.499 63c38.667 0 74.834 -10.167 108.501 -30.5s59.5 -47.5 77.5 -81.5c3.33301 -6.66699 5 -12.667 5 -18c0 -9.33301 -3.66699 -17.666 -11 -24.999
s-16 -11 -26 -11c-7.33301 0 -13.5 1.66699 -18.5 5s-11 10.166 -18 20.499s-10.833 15.833 -11.5 16.5c-26.667 33.333 -62 50 -106 50c-38.667 0 -71.667 -14 -99 -42s-41 -61.333 -41 -100v-61c0 -39.333 13.667 -72.833 41 -100.5s60.333 -41.5 99 -41.5
c48.667 0 87.334 21.333 116.001 64c8.66699 19.333 21.667 29 39 29c9.33301 0 17.666 -3.83301 24.999 -11.5s11 -16.167 11 -25.5c0 -6.66699 -1.66699 -12.667 -5 -18c-18 -34 -44 -61.167 -78 -81.5s-70.333 -30.5 -109 -30.5z" />
    <glyph glyph-name="d" unicode="d" 
d="M269 0c-56.667 0 -105.5 21.5 -146.5 64.5s-61.5 94.833 -61.5 155.5v52c0 62 21.333 114.333 64 157s92.334 64 149.001 64c51.333 0 97.333 -18.333 138 -55v264c0 10 3.66699 18.667 11 26s16 11 26 11c9.33301 0 17.666 -3.5 24.999 -10.5s11 -15.833 11 -26.5v-664
c0 -10.667 -3.5 -19.667 -10.5 -27s-15.5 -11 -25.5 -11c-10.667 0 -19.5 3.66699 -26.5 11s-10.5 16.333 -10.5 27v16c-40 -36 -87.667 -54 -143 -54zM274 76c38 0 70.5 13.668 97.5 41.001s40.5 61.666 40.5 102.999v52c0 40.667 -13.5 75 -40.5 103s-59.5 42 -97.5 42
c-38.667 0 -71.667 -13.667 -99 -41s-41 -62 -41 -104v-52c0 -40 13.833 -74 41.5 -102s60.5 -42 98.5 -42z" />
    <glyph glyph-name="e" unicode="e" 
d="M292 0c-58 0 -108.001 21.334 -150.001 64.001s-63 93.334 -63 152.001v61c0 59.333 21 110.166 63 152.499s93.333 63.5 154 63.5c63.333 0 114.333 -22.833 153 -68.5s58 -102.167 58 -169.5c0 -14 -3.5 -24.5 -10.5 -31.5s-15.833 -10.5 -26.5 -10.5h-317
c0 -39.333 14.167 -72.333 42.5 -99s62.166 -40 101.499 -40c28 0 50.5 6.33301 67.5 19s34.167 31 51.5 55c8.66699 12.667 19 19 31 19c9.33301 0 18 -3.33301 26 -10s12 -14.334 12 -23.001c0 -6.66699 -1.66699 -14 -5 -22c-11.333 -28.667 -35.166 -54.5 -71.499 -77.5
s-75.166 -34.5 -116.499 -34.5zM152.999 287.001h278c-6 42.667 -21.167 75.334 -45.5 98.001s-54.5 34 -90.5 34c-39.333 0 -72.333 -12.833 -99 -38.5s-41 -56.834 -43 -93.501z" />
    <glyph glyph-name="f" unicode="f" 
d="M106 0c-10 0 -18.5 3.83301 -25.5 11.5s-10.5 16.5 -10.5 26.5c0 10.667 3.66699 19.667 11 27s15.666 11 24.999 11h124v352h-124c-24 0 -36 11 -36 33c0 21.333 12 32 36 32h124v108c0 40 13 73 39 99s57.333 39 94 39c37.333 0 68.833 -13.167 94.5 -39.5
s38.5 -56.833 38.5 -91.5c0 -30 -12 -45 -36 -45c-11.333 0 -20.333 4.16699 -27 12.5s-10 18.5 -10 30.5c0 43.333 -20 65 -60 65s-60 -23.333 -60 -70v-108h157c24 0 36 -10.667 36 -32c0 -22 -12 -33 -36 -33h-157v-352h157c10 0 18.5 -3.83301 25.5 -11.5
s10.5 -16.5 10.5 -26.5c0 -10.667 -3.66699 -19.667 -11 -27s-15.666 -11 -24.999 -11h-354z" />
    <glyph glyph-name="g" unicode="g" 
d="M177 -208c-32.667 0 -59.166 11.332 -79.499 33.999s-30.5 49.667 -30.5 81c0 36 14.333 65.333 43 88l15 12c-38.667 24.667 -58 61 -58 109s18 90 54 126c-8.66699 19.333 -13 42 -13 68c0 50.667 17.333 94 52 130s77 54 127 54c49.333 0 91 -18.333 125 -55l75 68
c6 5.33301 14 7 24 5c9.33301 -2 16.666 -6.33301 21.999 -13s8 -13.667 8 -21c0 -10.667 -5.66699 -21 -17 -31l-74 -68c8.66699 -19.333 13 -42 13 -68c0 -55.333 -16.833 -99.666 -50.5 -132.999s-76.167 -50 -127.5 -50c-20 0 -41.833 4.66699 -65.5 14
s-43.5 22.333 -59.5 39c-16 -20 -24 -40 -24 -60c0 -39.333 16.333 -59 49 -59h204c34 0 60.833 -11.5 80.5 -34.5s29.5 -50.833 29.5 -83.5c0 -40 -15 -75.333 -45 -106s-65.333 -46 -106 -46h-171zM285.001 198.999c32.667 0 59.001 10.832 79.001 32.499
s30 48.167 30 79.5c0 32.667 -10.667 59.334 -32 80.001s-47 31 -77 31c-32 0 -58 -11 -78 -33s-30 -48 -30 -78c0 -32 10.667 -58.667 32 -80s46.666 -32 75.999 -32zM177.002 -137.002l171 0.000976562c36 0 61.333 17 76 51c8 21.333 8.5 39.333 1.5 54
s-19.167 22 -36.5 22h-173l-64 -51c-10.667 -8.66699 -16 -19.334 -16 -32.001s4 -23.167 12 -31.5s17.667 -12.5 29 -12.5z" />
    <glyph glyph-name="h" unicode="h" 
d="M116 0c-10 0 -18.501 3.83398 -25.501 11.501s-10.5 16.5 -10.5 26.5v663c0 10 3.66699 18.833 11 26.5s15.666 11.5 24.999 11.5c10.667 0 19.5 -4 26.5 -12s10.5 -16.667 10.5 -26v-282c43.333 50 90 75 140 75c58.667 0 108.834 -21.833 150.501 -65.5
s62.5 -95.834 62.5 -156.501v-234c0 -10.667 -3.66699 -19.667 -11 -27s-15.666 -11 -24.999 -11c-10.667 0 -19.5 3.66699 -26.5 11s-10.5 16.333 -10.5 27v234c0 40 -14 74.333 -42 103s-60.667 43 -98 43c-38 0 -70.833 -14.5 -98.5 -43.5s-41.5 -63.167 -41.5 -102.5
v-234c0 -10.667 -3.5 -19.667 -10.5 -27s-15.833 -11 -26.5 -11z" />
    <glyph glyph-name="i" unicode="i" 
d="M302 573c-17.333 0 -31.668 6.33301 -43.001 19s-17 27 -17 43c0 17.333 5.83301 32.166 17.5 44.499s25.834 18.5 42.501 18.5c18.667 0 33.5 -6.16699 44.5 -18.5s16.5 -27.166 16.5 -44.499c0 -18 -5.66699 -32.833 -17 -44.5s-26 -17.5 -44 -17.5zM105.998 0
c-10.667 0 -19.5 3.66699 -26.5 11s-10.5 16.333 -10.5 27c0 9.33301 3.66699 18 11 26s16 12 26 12h170v341h-170c-10.667 0 -19.5 3.66699 -26.5 11s-10.5 16.333 -10.5 27c0 9.33301 3.66699 18 11 26s16 12 26 12h207c10 0 18.667 -3.83301 26 -11.5s11 -16.5 11 -26.5
v-379h140c10 0 18.667 -3.83301 26 -11.5s11 -16.5 11 -26.5c0 -10.667 -3.5 -19.667 -10.5 -27s-15.833 -11 -26.5 -11h-384z" />
    <glyph glyph-name="j" unicode="j" 
d="M421 571c-18 0 -32.498 6.33105 -43.498 18.998s-16.5 27.334 -16.5 44.001c0 17.333 5.66699 32.333 17 45s25.666 19 42.999 19c18 0 32.5 -6.33301 43.5 -19s16.5 -27.667 16.5 -45s-5.83301 -32.166 -17.5 -44.499s-25.834 -18.5 -42.501 -18.5zM283.002 -230.002
c-58.667 0 -109 22.0029 -151 66.0029s-63 96.333 -63 157c0 10 3.66699 19 11 27s16 12 26 12s18.667 -3.83301 26 -11.5s11 -16.834 11 -27.501c0 -40.667 14 -75.334 42 -104.001s60.667 -43 98 -43c38.667 0 71.667 14.5 99 43.5s41 63.5 41 103.5v423h-233
c-10.667 0 -19.5 3.66699 -26.5 11s-10.5 16.333 -10.5 27c0 10 3.66699 19 11 27s16 12 26 12h270c10 0 18.667 -3.83301 26 -11.5s11 -16.834 11 -27.501v-461c0 -61.333 -21.167 -113.833 -63.5 -157.5s-92.5 -65.5 -150.5 -65.5z" />
    <glyph glyph-name="k" unicode="k" 
d="M144 0c-10 0 -18.502 3.66602 -25.502 10.999s-10.5 16.333 -10.5 27v663c0 10 3.5 18.833 10.5 26.5s15.5 11.5 25.5 11.5s18.5 -3.83301 25.5 -11.5s10.5 -16.5 10.5 -26.5v-471l266 253c7.33301 6.66699 15.666 10 24.999 10c10 0 18.5 -3.66699 25.5 -11
s10.5 -16.333 10.5 -27c0 -11.333 -3.66699 -20.666 -11 -27.999l-157 -149l171 -216c5.33301 -7.33301 8 -15.333 8 -24c0 -11.333 -3.66699 -20.5 -11 -27.5s-15.666 -10.5 -24.999 -10.5c-11.333 0 -20.666 4.66699 -27.999 14l-169 213l-105 -100v-89
c0 -11.333 -3.66699 -20.5 -11 -27.5s-15.666 -10.5 -24.999 -10.5z" />
    <glyph glyph-name="l" unicode="l" 
d="M349 -1c-46.667 0 -87 17.333 -121 52s-51 76 -51 124v488h-115c-10 0 -18.667 3.5 -26 10.5s-11 16.167 -11 27.5c0 12 3.66699 21.333 11 28s16 10 26 10h152c10 0 18.667 -3.5 26 -10.5s11 -16.167 11 -27.5v-526c0 -28.667 9.83301 -52.5 29.5 -71.5
s42.5 -28.5 68.5 -28.5c26.667 0 49.667 9.83301 69 29.5s29 43.167 29 70.5c0 10.667 3.5 19.667 10.5 27s15.833 11 26.5 11c10 0 18.667 -3.5 26 -10.5s11 -16.167 11 -27.5c0 -48 -16.833 -89.333 -50.5 -124s-74.167 -52 -121.5 -52z" />
    <glyph glyph-name="m" unicode="m" 
d="M109 0c-10 0 -18.6689 3.66797 -26.002 11.001s-11 16 -11 26v419c0 10 3.5 18.667 10.5 26s15.833 11 26.5 11c14 0 23.667 -4.66699 29 -14c20 9.33301 39.333 14 58 14c34 0 63 -12 87 -36c24 24 53 36 87 36s63.167 -12.333 87.5 -37s36.5 -54 36.5 -88v-331
c0 -10 -3.66699 -18.667 -11 -26s-16 -11 -26 -11c-9.33301 0 -17.666 3.66699 -24.999 11s-11 16 -11 26v331c0 14 -5 26 -15 36s-22 15 -36 15c-14.667 0 -26.667 -4.83301 -36 -14.5s-14 -21.834 -14 -36.501v-331c0 -10 -3.66699 -18.667 -11 -26s-16 -11 -26 -11
s-18.667 3.66699 -26 11s-11 16 -11 26v331c0 14 -4.83301 26 -14.5 36s-21.5 15 -35.5 15s-26 -5 -36 -15s-15 -22 -15 -36v-331c0 -10.667 -3.66699 -19.5 -11 -26.5s-15.666 -10.5 -24.999 -10.5z" />
    <glyph glyph-name="n" unicode="n" 
d="M116 0c-10 0 -18.668 3.66602 -26.001 10.999s-11 16 -11 26v419c0 10 3.5 18.667 10.5 26s15.833 11 26.5 11s19.5 -3.66699 26.5 -11s10.5 -16 10.5 -26v-52c19.333 30.667 41 53.167 65 67.5s55 21.5 93 21.5c62.667 0 111 -18.167 145 -54.5s51 -90.166 51 -161.499
v-240c0 -10 -3.66699 -18.667 -11 -26s-16 -11 -26 -11s-18.667 3.66699 -26 11s-11 16 -11 26v240c0 46.667 -11.667 82 -35 106s-55.666 36 -96.999 36c-47.333 0 -83.833 -14.167 -109.5 -42.5s-38.5 -61.5 -38.5 -99.5v-240c0 -10 -3.66699 -18.667 -11 -26
s-16 -11 -26 -11z" />
    <glyph glyph-name="o" unicode="o" 
d="M283 0c-60 0 -110.667 21.332 -152 63.999s-62 93.334 -62 152.001v61c0 58.667 20.833 109.334 62.5 152.001s92.167 64 151.5 64c60.667 0 111.5 -21.333 152.5 -64s61.5 -93.334 61.5 -152.001v-61c0 -60 -21.167 -111 -63.5 -153s-92.5 -63 -150.5 -63zM283 73.999
c38.667 0 71.667 14 99 42s41 61.333 41 100v61c0 39.333 -13.667 72.833 -41 100.5s-60.333 41.5 -99 41.5c-40 0 -73.333 -14 -100 -42s-40 -61.333 -40 -100v-61c0 -39.333 14 -72.833 42 -100.5s60.667 -41.5 98 -41.5z" />
    <glyph glyph-name="p" unicode="p" 
d="M116 -230c-10.667 0 -19.502 3.66504 -26.502 10.998s-10.5 16.333 -10.5 27v648c0 10 3.66699 18.667 11 26s16 11 26 11s18.667 -3.66699 26 -11s11 -16 11 -26v-47c36.667 56 86.667 84 150 84c54.667 -1.33301 102.334 -23.666 143.001 -66.999
s61 -94.666 61 -153.999v-51c0 -60.667 -19.167 -112.667 -57.5 -156s-85.166 -65 -140.499 -65c-61.333 -0 -113.333 28.333 -156 85v-277c0 -10.667 -3.5 -19.667 -10.5 -27s-15.833 -11 -26.5 -11zM292.998 75.998c39.333 0 72.5 14.167 99.5 42.5s40.5 62.5 40.5 102.5
v51c0 39.333 -13.167 73.5 -39.5 102.5s-59.833 43.5 -100.5 43.5c-39.333 0 -72.5 -14.5 -99.5 -43.5s-40.5 -63.167 -40.5 -102.5v-51c0 -40 13.667 -74.167 41 -102.5s60.333 -42.5 99 -42.5z" />
    <glyph glyph-name="q" unicode="q" 
d="M460 -230c-10.667 0 -19.502 3.66895 -26.502 11.002s-10.5 16.333 -10.5 27v277c-42.667 -56.667 -94.667 -85 -156 -85c-55.333 0 -102.166 21.667 -140.499 65s-57.5 95.333 -57.5 156v51c0 59.333 20.333 110.666 61 153.999s88.334 65.666 143.001 66.999
c63.333 0 113.333 -28 150 -84v47c0 10 3.66699 18.667 11 26s16 11 26 11s18.667 -3.66699 26 -11s11 -16 11 -26v-648c0 -10.667 -3.5 -19.667 -10.5 -27s-15.833 -11 -26.5 -11zM282.998 76.002c38.667 0 71.667 14.167 99 42.5s41 62.5 41 102.5v51
c0 39.333 -13.5 73.5 -40.5 102.5s-60.167 43.5 -99.5 43.5c-40.667 0 -74.167 -14.5 -100.5 -43.5s-39.5 -63.167 -39.5 -102.5v-51c0 -40 13.5 -74.167 40.5 -102.5s60.167 -42.5 99.5 -42.5z" />
    <glyph glyph-name="r" unicode="r" 
d="M102 0c-9.33301 0 -17.499 3.50098 -24.499 10.501s-10.5 15.167 -10.5 24.5s3.5 17.5 10.5 24.5s15.167 10.5 24.5 10.5h60v388c0 10.667 3.5 19.167 10.5 25.5s14.833 9.5 23.5 9.5c9.33301 0 17.5 -3.33301 24.5 -10s10.5 -15 10.5 -25v-49
c45.333 56 93.333 84 144 84c50 0 91.667 -13.333 125 -40c8 -6.66699 12.667 -14.334 14 -23.001c1.33301 -9.33301 -0.5 -18 -5.5 -26s-12.5 -12.667 -22.5 -14s-19 0.666992 -27 6c-24 18 -50 27 -78 27c-42.667 0 -78.334 -14 -107.001 -42s-43 -62.333 -43 -103v-208
h140c9.33301 0 17.5 -3.5 24.5 -10.5s10.5 -15.167 10.5 -24.5s-3.5 -17.5 -10.5 -24.5s-15.167 -10.5 -24.5 -10.5h-269z" />
    <glyph glyph-name="s" unicode="s" 
d="M299 0c-17.333 0 -36.668 1.33008 -58.001 3.99707s-48.333 10.834 -81 24.501s-58.334 31.834 -77.001 54.501c-14 17.333 -14.667 34.666 -2 51.999c18 18 36.667 18 56 0c24 -24.667 48 -42.167 72 -52.5s51.333 -15.5 82 -15.5c36 0 66.5 6.33301 91.5 19
s37.5 32 37.5 58c0 11.333 -2.66699 21 -8 29s-11.666 14.333 -18.999 19s-17.666 8.5 -30.999 11.5s-24.666 5 -33.999 6s-22.333 2.16699 -39 3.5c-25.333 2 -45.166 4 -59.499 6s-32 5.83301 -53 11.5s-37 12.834 -48 21.501s-20.833 21.167 -29.5 37.5
s-13 35.5 -13 57.5c0 46.667 16.333 82.667 49 108s77.334 38 134.001 38c79.333 0 141 -22 185 -66c8.66699 -8.66699 12.667 -17.334 12 -26.001c-0.666992 -9.33301 -4.66699 -17.666 -12 -24.999s-15.666 -11 -24.999 -11c-8 0 -16.667 4 -26 12
c-38.667 31.333 -83.667 47 -135 47c-72 0 -108 -22.667 -108 -68c0 -23.333 10.167 -40 30.5 -50s51.833 -16.667 94.5 -20c20.667 -1.33301 37.667 -2.83301 51 -4.5s31.166 -5.5 53.499 -11.5s40.166 -13.5 53.499 -22.5s25.166 -22 35.499 -39s15.5 -37.167 15.5 -60.5
c0 -47.333 -18.333 -83.666 -55 -108.999s-83.334 -38.333 -140.001 -39z" />
    <glyph glyph-name="t" unicode="t" 
d="M342 0c-50.667 0 -93.5 18.001 -128.5 54.001s-52.5 79.667 -52.5 131v243h-91c-11.333 0 -20.166 3.16699 -26.499 9.5s-9.5 14.166 -9.5 23.499s3.33301 17 10 23s15.334 9 26.001 9h91v139c0 10.667 3.5 19.667 10.5 27s15.833 11 26.5 11s19.5 -3.66699 26.5 -11
s10.5 -16.333 10.5 -27v-139h251c11.333 0 20.166 -3.16699 26.499 -9.5s9.5 -13.833 9.5 -22.5c0 -10 -3.33301 -18 -10 -24s-15.334 -9 -26.001 -9h-251v-243c0 -30 10.333 -55.833 31 -77.5s46 -32.5 76 -32.5s55.333 10.833 76 32.5s31 47.5 31 77.5
c0 10.667 3.66699 19.5 11 26.5s16 10.5 26 10.5s18.667 -3.66699 26 -11s11 -16 11 -26c0 -50.667 -17.667 -94.167 -53 -130.5s-78 -54.5 -128 -54.5z" />
    <glyph glyph-name="u" unicode="u" 
d="M258 0c-61.333 0 -108.167 18.333 -140.5 55s-48.5 90.334 -48.5 161.001v240c0 10 3.66699 18.667 11 26s16 11 26 11s18.667 -3.66699 26 -11s11 -16 11 -26v-240c0 -46.667 11.5 -82 34.5 -106s56.167 -36 99.5 -36s78.333 14 105 42c27.333 28.667 41 62 41 100v240
c0 10 3.66699 18.667 11 26s16 11 26 11s18.667 -3.66699 26 -11s11 -16 11 -26v-419c0 -10.667 -3.5 -19.5 -10.5 -26.5s-15.833 -10.5 -26.5 -10.5s-19.5 3.5 -26.5 10.5s-10.5 15.833 -10.5 26.5v56c-20.667 -32.667 -44 -56.334 -70 -71.001s-57.667 -22 -95 -22z" />
    <glyph glyph-name="v" unicode="v" 
d="M283 0c-12.667 0 -23.333 6.66699 -32 20l-182 436c0 10 3.5 18.667 10.5 26s16.167 11 27.5 11c15.333 0 26.333 -7.33301 33 -22l143 -340l143 340c6.66699 14.667 17.667 22 33 22c11.333 0 20.5 -3.66699 27.5 -11s10.5 -16 10.5 -26l-182 -436
c-7.33301 -13.333 -18 -20 -32 -20z" />
    <glyph glyph-name="w" unicode="w" 
d="M149 0c-8.66699 0 -16.832 2.66797 -24.499 8.00098s-12.167 12.333 -13.5 21l-70 424c-1.33301 9.33301 0.833984 18.166 6.50098 26.499s13.167 12.833 22.5 13.5c9.33301 1.33301 18.166 -0.833984 26.499 -6.50098s12.833 -13.167 13.5 -22.5l53 -341l89 187
c6 12 16.333 18 31 18s25 -6 31 -18l89 -187l53 341c0.666992 8.66699 5.16699 16 13.5 22s17.166 8.33301 26.499 7c8.66699 -0.666992 16 -5.16699 22 -13.5s8.33301 -17.166 7 -26.499l-70 -424c-0.666992 -9.33301 -4.5 -16.5 -11.5 -21.5s-15.167 -7.5 -24.5 -7.5
c-14 -0 -24 6.33301 -30 19l-106 200l-106 -200c-6.66699 -12.667 -16 -19 -28 -19z" />
    <glyph glyph-name="x" unicode="x" 
d="M106 0c-10 0 -18.6689 3.66699 -26.002 11s-11 16 -11 26c0 4.66699 1 9 3 13c1.33301 4.66699 3.33301 8.33398 6 11.001l157 186l-157 185c-2.66699 2.66699 -4.66699 6.66699 -6 12c-2 4 -3 8 -3 12c0 11.333 3.66699 20 11 26c6.66699 7.33301 15.334 11 26.001 11
c12 0 21.333 -4.33301 28 -13l149 -176l149 176c6.66699 8.66699 16 13 28 13c10.667 0 19.334 -3.66699 26.001 -11c7.33301 -6 11 -14.667 11 -26c0 -4 -1 -8 -3 -12c-1.33301 -5.33301 -3.33301 -9.33301 -6 -12l-157 -185l157 -186
c2.66699 -2.66699 4.66699 -6.33398 6 -11.001c2 -4 3 -8.33301 3 -13c0 -10 -3.66699 -18.667 -11 -26s-16 -11 -26 -11c-12 -0 -21.333 4.33301 -28 13l-149 177l-149 -177c-6.66699 -8.66699 -16 -13 -28 -13z" />
    <glyph glyph-name="y" unicode="y" 
d="M213 -230c-10 0 -18.667 3.49902 -26 10.499s-11 15.833 -11 26.5c0 4.66699 1 9.66699 3 15l84 204l-171 415c-2 5.33301 -3 10 -3 14c0 10.667 4.16699 19.834 12.5 27.501s16.833 11.5 25.5 11.5c16 0 27 -8 33 -24l143 -348l143 348c6 16 17 24 33 24
c10 0 18.833 -4 26.5 -12s11.5 -17 11.5 -27c0 -4 -1 -8.66699 -3 -14l-267 -648c-6.66699 -15.333 -18 -23 -34 -23z" />
    <glyph glyph-name="z" unicode="z" 
d="M106 0c-10 0 -18.667 3.66797 -26 11.001s-11 15.666 -11 24.999c0 10.667 3 19 9 25l304 358h-276c-10 0 -18.667 3.66699 -26 11s-11 16 -11 26s3.5 18.667 10.5 26s15.833 11 26.5 11h356c10.667 0 19.5 -3.66699 26.5 -11s10.5 -16 10.5 -26
c0 -9.33301 -3 -17.333 -9 -24l-304 -358h304c10 0 18.667 -3.66699 26 -11s11 -16 11 -26s-3.66699 -18.667 -11 -26s-16 -11 -26 -11h-384z" />
    <glyph glyph-name="braceleft" unicode="{" 
d="M356 -240c-39.333 0 -73.1641 15.1641 -101.497 45.4971s-42.5 64.833 -42.5 103.5c0 18.667 6.33301 43.334 19 74.001s19 54.667 19 72c0 24.667 -7.83301 47.167 -23.5 67.5s-39.167 41.833 -70.5 64.5c-11.333 6.66699 -17 17.334 -17 32.001
c0 15.333 5.66699 26.333 17 33c66 44.667 99 90.667 99 138c0 18 -8.16699 51.167 -24.5 99.5s-24.5 82.5 -24.5 102.5c0 40 13.833 74.5 41.5 103.5s61.5 43.5 101.5 43.5h42c9.33301 0 17.666 -3.5 24.999 -10.5s11 -16.5 11 -28.5c0 -10.667 -3.5 -19.667 -10.5 -27
s-15.5 -11 -25.5 -11h-42c-18.667 0 -34.834 -7.16699 -48.501 -21.5s-20.5 -31.166 -20.5 -50.499c0 -17.333 8 -48.666 24 -93.999s24 -79 24 -101c0 -34 -7.5 -66.5 -22.5 -97.5s-36.167 -57.167 -63.5 -78.5c53.333 -44.667 80 -101.334 80 -170.001
c0 -20 -6 -45.167 -18 -75.5s-18 -52.5 -18 -66.5c0 -19.333 6.66699 -35.833 20 -49.5s30 -20.5 50 -20.5h35c9.33301 0 17.666 -3.5 24.999 -10.5s11 -16.5 11 -28.5c0 -10.667 -3.5 -19.667 -10.5 -27s-15.5 -11 -25.5 -11h-35z" />
    <glyph glyph-name="bar" unicode="|" 
d="M283 -235c-10 0 -18.333 3 -25 9c-6.66699 6.66699 -10 15.334 -10 26.001v904c0 10 3.33301 18.333 10 25s15 10 25 10s18.333 -3.33301 25 -10s10 -15 10 -25v-904c0 -10.667 -3.33301 -19.334 -10 -26.001c-6.66699 -6 -15 -9 -25 -9z" />
    <glyph glyph-name="braceright" unicode="}" 
d="M175 -240c-10 0 -18.498 3.66992 -25.498 11.0029s-10.5 16.333 -10.5 27c0 12 3.66699 21.5 11 28.5s15.666 10.5 24.999 10.5h35c20 0 36.667 6.83301 50 20.5s20 30.167 20 49.5c0 14 -6 36.167 -18 66.5s-18 55.5 -18 75.5c0 68.667 26.667 125.334 80 170.001
c-27.333 21.333 -48.5 47.5 -63.5 78.5s-22.5 63.5 -22.5 97.5c0 22 8 55.667 24 101s24 76.666 24 93.999c0 19.333 -6.83301 36.166 -20.5 50.499s-29.834 21.5 -48.501 21.5h-42c-10 0 -18.5 3.66699 -25.5 11s-10.5 16.333 -10.5 27c0 12 3.66699 21.5 11 28.5
s15.666 10.5 24.999 10.5h42c40 0 73.833 -14.5 101.5 -43.5s41.5 -63.5 41.5 -103.5c0 -20 -8.16699 -54.167 -24.5 -102.5s-24.5 -81.5 -24.5 -99.5c0 -47.333 33 -93.333 99 -138c11.333 -6.66699 17 -17.667 17 -33c0 -14.667 -5.66699 -25.334 -17 -32.001
c-31.333 -22.667 -54.833 -44.167 -70.5 -64.5s-23.5 -42.833 -23.5 -67.5c0 -17.333 6.33301 -41.333 19 -72s19 -55.334 19 -74.001c0 -38.667 -14.167 -73.167 -42.5 -103.5s-62.166 -45.5 -101.499 -45.5h-35z" />
    <glyph glyph-name="asciitilde" unicode="~" 
d="M450 342c6 16.667 18.333 25 37 25c10.667 0 19.834 -3.83301 27.501 -11.5s11.5 -16.834 11.5 -27.501c0 -4 -1 -8.66699 -3 -14c-22 -56.667 -63 -86 -123 -88c-30.667 -1.33301 -67.667 10 -111 34s-74.666 36 -93.999 36c-26.667 0 -47.334 -14.333 -62.001 -43
c-7.33301 -14 -19 -21 -35 -21c-10.667 0 -19.834 3.83301 -27.501 11.5s-11.5 16.834 -11.5 27.501c0 6 1.66699 12.333 5 19c30.667 56 74.334 84 131.001 84c30 0 58.667 -6 86 -18s50.666 -23.833 69.999 -35.5s34.666 -17.167 45.999 -16.5
c26.667 1.33301 44.334 14 53.001 38z" />
    <glyph glyph-name="DEL" 
 />
    <glyph glyph-name="exclamdown" unicode="&#xa1;" 
d="M283 565c-22 0 -41.499 8.49805 -58.499 25.498s-25.5 37.5 -25.5 61.5c0 22.667 8 42.834 24 60.501s36 26.5 60 26.5c22 0 41.5 -8.5 58.5 -25.5s25.5 -37.5 25.5 -61.5c0 -23.333 -8.33301 -43.666 -25 -60.999s-36.334 -26 -59.001 -26zM283.001 -0.00195312
c-10.667 0 -19.167 3.33301 -25.5 10s-9.5 15 -9.5 25v416c0 10.667 3.33301 19.167 10 25.5s15 9.5 25 9.5c10.667 0 19.167 -3.33301 25.5 -10s9.5 -15 9.5 -25v-416c0 -10.667 -3.33301 -19.167 -10 -25.5s-15 -9.5 -25 -9.5z" />
    <glyph glyph-name="cent" unicode="&#xa2;" 
d="M293 -145c-10 0 -18.3359 3.16602 -25.0029 9.49902s-10 14.833 -10 25.5v113c-52.667 10.667 -95.334 35.834 -128.001 75.501s-49 85.5 -49 137.5v61c0 53.333 17.167 100.166 51.5 140.499s76.166 64.5 125.499 72.5v114c0 10 3.16699 18.333 9.5 25
s14.833 10 25.5 10c10 0 18.333 -3.16699 25 -9.5s10 -14.833 10 -25.5v-114c32.667 -4.66699 62.334 -16.667 89.001 -36s47.667 -43.666 63 -72.999c8.66699 -16 6.66699 -30.333 -6 -43c-6 -6 -13.5 -9.66699 -22.5 -11s-15.5 0 -19.5 4
c-8.66699 4.66699 -19.167 15.5 -31.5 32.5s-23.166 28.5 -32.499 34.5c-14 8.66699 -27.333 14.334 -40 17.001v-337c16 4.66699 30 11.167 42 19.5s20 15 24 20s12.667 16.5 26 34.5c6 8.66699 14.333 13.5 25 14.5s20.334 -2.5 29.001 -10.5
c10.667 -12.667 12.667 -27.334 6 -44.001c-15.333 -29.333 -36.666 -53.5 -63.999 -72.5s-56.666 -31.167 -87.999 -36.5v-113c0 -10 -3.16699 -18.333 -9.5 -25s-14.833 -10 -25.5 -10zM257.997 78.999v335.999c-30.667 -9.33301 -55.667 -26.666 -75 -51.999
s-29 -54 -29 -86v-61c0 -31.333 10 -60 30 -86s44.667 -43 74 -51z" />
    <glyph glyph-name="sterling" unicode="&#xa3;" 
d="M65 0c-17.333 0 -29.334 9.00195 -36.001 27.002c-6 16.667 -0.666992 31 16 43c27.333 18 50 36 68 54c14.667 14 25.667 33.167 33 57.5s10.833 49.333 10.5 75s-1.83301 49.667 -4.5 72s-5.66699 42.166 -9 59.499s-5 26.333 -5 27h-73
c-10.667 0 -19.5 3.66699 -26.5 11s-10.5 16.333 -10.5 27s3.5 19.834 10.5 27.501s15.833 11.5 26.5 11.5h69c4 65.333 29.5 122.833 76.5 172.5s101.833 74.5 164.5 74.5h126c10.667 0 19.5 -3.83301 26.5 -11.5s10.5 -16.834 10.5 -27.501s-3.5 -19.667 -10.5 -27
s-15.833 -11 -26.5 -11h-126c-41.333 0 -78.166 -17.167 -110.499 -51.5s-50.5 -73.833 -54.5 -118.5h165c10.667 0 19.667 -3.83301 27 -11.5s11 -16.834 11 -27.501s-3.66699 -19.667 -11 -27s-16.333 -11 -27 -11h-161l1 -3c6.66699 -42.667 11.167 -76.5 13.5 -101.5
s3 -53.167 2 -84.5s-6.33301 -58.833 -16 -82.5s-23.5 -45.834 -41.5 -66.501h328c10.667 0 19.5 -3.66699 26.5 -11s10.5 -16.666 10.5 -27.999c0 -12 -3.66699 -21.333 -11 -28s-16 -10 -26 -10h-436z" />
    <glyph glyph-name="yen" unicode="&#xa5;" 
d="M283 0c-10 0 -18.499 3.66699 -25.499 11s-10.5 16.333 -10.5 27v97h-126c-10.667 0 -19.167 3.5 -25.5 10.5s-9.5 15.167 -9.5 24.5c0 10 3.16699 18.333 9.5 25s14.833 10 25.5 10h126v90h-126c-10.667 0 -19.167 3.5 -25.5 10.5s-9.5 15.167 -9.5 24.5
c0 10 3.16699 18.333 9.5 25s14.833 10 25.5 10h123l-160 318c-3.33301 8 -5 14 -5 18c0 10 3.66699 18.833 11 26.5s15.666 11.5 24.999 11.5c14 0 24.667 -7 32 -21l136 -268l136 268c7.33301 14 18 21 32 21c9.33301 0 17.666 -3.83301 24.999 -11.5s11 -16.5 11 -26.5
c0 -4 -1.66699 -10 -5 -18l-160 -318h123c10.667 0 19 -3.66699 25 -11s9 -15.333 9 -24c0 -10 -3.16699 -18.333 -9.5 -25s-14.5 -10 -24.5 -10h-126v-90h126c10.667 0 19 -3.66699 25 -11s9 -15.333 9 -24c0 -10 -3.16699 -18.333 -9.5 -25s-14.5 -10 -24.5 -10h-126v-97
c0 -11.333 -3.66699 -20.5 -11 -27.5s-15.666 -10.5 -24.999 -10.5z" />
    <glyph glyph-name="copyright" unicode="&#xa9;" 
d="M283 292c-30 0 -58.668 5.99902 -86.001 17.999c-26 10.667 -49.333 26.334 -70 47.001s-36.334 44 -47.001 70c-12 26.667 -18 55.334 -18 86.001c0 30 6 58.667 18 86c10.667 26 26.334 49.333 47.001 70s44 36.334 70 47.001c26.667 12 55.334 18 86.001 18
c30 0 58.667 -6 86 -18c26 -10.667 49.333 -26.334 70 -47.001s36.334 -44 47.001 -70c12 -27.333 18 -56 18 -86s-6 -58.667 -18 -86c-10.667 -26 -26.334 -49.333 -47.001 -70s-44 -36.334 -70 -47.001c-27.333 -12 -56 -18 -86 -18zM282.999 330.999
c24.667 0 48.332 5 70.999 15c20.667 8.66699 40 21.334 58 38.001c16.667 18 29.334 37.333 38.001 58c10 22 15 45.667 15 71c0 24.667 -5 48 -15 70c-8.66699 20.667 -21.334 40 -38.001 58c-17.333 17.333 -36.666 30.333 -57.999 39c-24 9.33301 -47.667 14 -71 14
c-24.667 0 -48.334 -4.66699 -71.001 -14c-21.333 -8.66699 -40.666 -21.667 -57.999 -39c-16.667 -18 -29.334 -37.333 -38.001 -58c-10 -22 -15 -45.333 -15 -70c0 -25.333 5 -49 15 -71c8.66699 -20.667 21.334 -40 38.001 -58c18 -16.667 37.333 -29.334 58 -38.001
c22 -10 45.667 -15 71 -15zM279.997 380.999c-18 0 -34.667 3.3252 -50 9.99219c-16 7.33301 -29.333 16.333 -40 27c-11.333 11.333 -20.666 25.333 -27.999 42c-6.66699 14 -10 30.667 -10 50s3.33301 36 10 50c7.33301 16.667 16.666 30.667 27.999 42
c10.667 10.667 24 19.667 40 27c15.333 6.66699 32 10 50 10c16 0 32.667 -3.33301 50 -10c18 -7.33301 31.667 -16.666 41 -27.999c4 -4 6 -8.66699 6 -14s-2 -10 -6 -14s-8.66699 -6 -14 -6c-3.33301 0 -7.66602 1.66699 -12.999 5l-14 11
c-7.33301 4.66699 -14.333 8.33398 -21 11.001c-8.66699 3.33301 -18.334 5 -29.001 5c-12.667 0 -24 -2.33301 -34 -7c-10.667 -5.33301 -20 -11.666 -28 -18.999c-8 -8 -14.333 -17.667 -19 -29c-4.66699 -9.33301 -7 -20.666 -7 -33.999s2.33301 -24.666 7 -33.999
c4.66699 -11.333 11 -21 19 -29c8 -7.33301 17.333 -13.666 28 -18.999c10 -4.66699 21.333 -7 34 -7c10.667 0 20.334 1.66699 29.001 5c6.66699 2.66699 13.667 6.33398 21 11.001l14 11c5.33301 3.33301 9.66602 5 12.999 5c5.33301 0 10 -2 14 -6s6 -8.66699 6 -14
s-2 -10 -6 -14c-9.33301 -11.333 -23 -20.666 -41 -27.999c-17.333 -6.66699 -34 -10 -50 -10z" />
    <glyph glyph-name="logicalnot" unicode="&#xac;" 
d="M511 213c-12 0 -21.667 3.33496 -29 10.002c-9.33301 6.66699 -14 17 -14 31v179h-413c-14.667 0 -25.334 4.33301 -32.001 13c-7.33301 9.33301 -11 18.666 -11 27.999s3.66699 18.666 11 27.999c6.66699 8.66699 17.334 13 32.001 13h456c11.333 0 21.333 -4 30 -12
s13 -17.667 13 -29v-220c0 -14 -4.66699 -24.333 -14 -31c-7.33301 -6.66699 -17 -10 -29 -10z" />
    <glyph glyph-name="registered" unicode="&#xae;" 
d="M283 292c-30 0 -58.668 5.99902 -86.001 17.999c-26 10.667 -49.333 26.334 -70 47.001s-36.334 44 -47.001 70c-12 26.667 -18 55.334 -18 86.001c0 30 6 58.667 18 86c10.667 26 26.334 49.333 47.001 70s44 36.334 70 47.001c26.667 12 55.334 18 86.001 18
c30 0 58.667 -6 86 -18c26 -10.667 49.333 -26.334 70 -47.001s36.334 -44 47.001 -70c12 -27.333 18 -56 18 -86s-6 -58.667 -18 -86c-10.667 -26 -26.334 -49.333 -47.001 -70s-44 -36.334 -70 -47.001c-27.333 -12 -56 -18 -86 -18zM282.999 330.999
c24.667 0 48.332 5 70.999 15c20.667 8.66699 40 21.334 58 38.001c16.667 18 29.334 37.333 38.001 58c10 22 15 45.667 15 71c0 24.667 -5 48 -15 70c-8.66699 20.667 -21.334 40 -38.001 58c-17.333 17.333 -36.666 30.333 -57.999 39c-24 9.33301 -47.667 14 -71 14
c-24.667 0 -48.334 -4.66699 -71.001 -14c-21.333 -8.66699 -40.666 -21.667 -57.999 -39c-16.667 -18 -29.334 -37.333 -38.001 -58c-10 -22 -15 -45.333 -15 -70c0 -25.333 5 -49 15 -71c8.66699 -20.667 21.334 -40 38.001 -58c18 -16.667 37.333 -29.334 58 -38.001
c22 -10 45.667 -15 71 -15zM243.997 385.999c-4 0 -7.33301 1.33301 -10 4c-3.33301 3.33301 -5 7.33301 -5 12v219c0 4.66699 1.66699 8.33398 5 11.001c2 3.33301 5.33301 5 10 5h53c19.333 0 35.333 -7 48 -21c12.667 -14.667 19 -31.334 19 -50.001
c0 -16 -5 -30.667 -15 -44c-10 -12.667 -24.667 -21.667 -44 -27c8 -13.333 13.667 -23.333 17 -30c6 -10 11.333 -19.667 16 -29c2 -2.66699 4.16699 -6.5 6.5 -11.5s4.16602 -8.5 5.49902 -10.5c0.666992 -1.33301 1.33398 -3 2.00098 -5l1.5 -4.5
c0.333008 -1 0.5 -1.83301 0.5 -2.5c0 -2.66699 -1.33301 -6.66699 -4 -12c-5.33301 -2.66699 -9 -4 -11 -4c-6 0 -10.667 2.66699 -14 8l-56 101h-9v-93c0 -10.667 -5.33301 -16 -16 -16zM259.997 526.999l37 -0.000976562c10 0 18.667 4 26 12
c6.66699 7.33301 10 16.333 10 27s-3.33301 19.334 -10 26.001c-7.33301 8 -16 12 -26 12h-37v-77z" />
    <glyph glyph-name="plusminus" unicode="&#xb1;" 
d="M282 118c-10.667 0 -19.667 3.66699 -27 11s-11 16.333 -11 27v169h-167c-10.667 0 -19.667 3.66699 -27 11s-11 16.333 -11 27s3.66699 19.667 11 27s16.333 11 27 11h167v169c0 10.667 3.66699 19.667 11 27s16.333 11 27 11s19.667 -3.66699 27 -11s11 -16.333 11 -27
v-169h167c10.667 0 19.667 -3.66699 27 -11s11 -16.333 11 -27s-3.66699 -19.667 -11 -27s-16.333 -11 -27 -11h-167v-169c0 -10.667 -3.66699 -19.667 -11 -27s-16.333 -11 -27 -11zM80 0c-10.667 0 -19.667 3.66699 -27 11s-11 16.333 -11 27s3.66699 19.667 11 27
s16.333 11 27 11h409c10.667 0 19.667 -3.66699 27 -11s11 -16.333 11 -27s-3.66699 -19.667 -11 -27s-16.333 -11 -27 -11h-409z" />
    <glyph glyph-name="paragraph" unicode="&#xb6;" 
d="M326 0c-8 0 -14.665 2.66699 -19.998 8c-6 6 -9 13 -9 21v233c-28.667 2.66699 -56.334 11.334 -83.001 26.001c-26 13.333 -48 30.666 -66 51.999c-17.333 18 -32.333 42 -45 72c-10.667 27.333 -16 56.333 -16 87c0 34 6.33301 65 19 93c13.333 30 30.333 55.333 51 76
c19.333 20.667 44.333 38 75 52c29.333 12.667 60.666 19 93.999 19h124c8 0 14.667 -3 20 -9c6 -6 9 -13 9 -21v-680c0 -8 -3 -15 -9 -21c-5.33301 -5.33301 -12 -8 -20 -8c-7.33301 0 -14.333 2.66699 -21 8c-6 6 -9 13 -9 21v651h-64v-651c0 -8 -3 -15 -9 -21
c-6.66699 -5.33301 -13.667 -8 -21 -8z" />
    <glyph glyph-name="cedilla" unicode="&#xb8;" 
d="M231 -186c-26 0 -39 9.66699 -39 29c0 18.667 9 28 27 28l35 -1c52 0 78 11 78 33c0 26 -23 39.667 -69 41c-12 0 -15 6 -9 18l52 104l60 2l-49 -92c47.333 -6 71 -28.333 71 -67c0 -63.333 -46 -95 -138 -95h-19z" />
    <glyph glyph-name="questiondown" unicode="&#xbf;" 
d="M283 581c-20.667 0 -38.499 7.83301 -53.499 23.5s-22.5 34.167 -22.5 55.5c0 23.333 7 42.333 21 57s32 22 54 22c21.333 0 39.333 -8 54 -24s22 -34.333 22 -55c0 -22.667 -7.33301 -41.5 -22 -56.5s-32.334 -22.5 -53.001 -22.5zM286.001 0
c-60.667 0 -111.5 18.668 -152.5 56.001s-61.5 85.333 -61.5 144c0 55.333 14 96.5 42 123.5s73 41.833 135 44.5v96c0 13.333 3.33301 23.333 10 30s14.667 10 24 10c10.667 0 20 -3.66699 28 -11s12 -17 12 -29v-130c0 -25.333 -15.667 -38 -47 -38
c-48 0 -81.667 -7.5 -101 -22.5s-29 -39.5 -29 -73.5c0 -38.667 13.5 -69 40.5 -91s60.167 -33 99.5 -33c34 0 65.833 13 95.5 39s44.5 53.667 44.5 83c0 17.333 4 30.666 12 39.999s17.333 14 28 14c8.66699 0 16.5 -3 23.5 -9s10.5 -13.667 10.5 -23
c0 -60.667 -21 -112.5 -63 -155.5s-92.333 -64.5 -151 -64.5z" />
    <glyph glyph-name="Agrave" unicode="&#xc0;" 
d="M283 798c-10.667 0 -19.667 3.66602 -27 10.999l-89 95c-6.66699 6.66699 -10 14.334 -10 23.001c0 10 3.83301 18.833 11.5 26.5s16.167 11.5 25.5 11.5c10 0 18.333 -4.33301 25 -13l89 -95c6.66699 -6 10 -13.333 10 -22c0 -10 -3.5 -18.667 -10.5 -26
s-15.167 -11 -24.5 -11zM38 -0.000976562c-10 0 -18.667 3.5 -26 10.5s-11 16.167 -11 27.5l248 678c6 15.333 17.333 23 34 23c17.333 0 28.666 -7.66699 33.999 -23l248 -678c0 -12 -3.66699 -21.333 -11 -28s-16 -10 -26 -10c-16 0 -27.333 8 -34 24l-62 167h-298
l-62 -167c-7.33301 -16 -18.666 -24 -33.999 -24zM162 265.999h242l-121 328z" />
    <glyph glyph-name="Aacute" unicode="&#xc1;" 
d="M281 798c-9.33301 0 -17.5 3.66797 -24.5 11.001s-10.5 16 -10.5 26c0 8.66699 3.33301 16 10 22l89 95c6.66699 8.66699 15 13 25 13c9.33301 0 17.833 -3.83301 25.5 -11.5s11.5 -16.5 11.5 -26.5c0 -8.66699 -3.33301 -16.334 -10 -23.001l-89 -95
c-7.33301 -7.33301 -16.333 -11 -27 -11zM38 0.000976562c-10 0 -18.667 3.5 -26 10.5s-11 16.167 -11 27.5l248 678c6 15.333 17.333 23 34 23c17.333 0 28.666 -7.66699 33.999 -23l248 -678c0 -12 -3.66699 -21.333 -11 -28s-16 -10 -26 -10c-16 0 -27.333 8 -34 24
l-62 167h-298l-62 -167c-7.33301 -16 -18.666 -24 -33.999 -24zM162 266.001h242l-121 328z" />
    <glyph glyph-name="Acircumflex" unicode="&#xc2;" 
d="M175 790c-8.66699 0 -16 3 -22 9s-9 13.333 -9 22c0 8 4.33301 16.333 13 25l101 101c8 7.33301 16.333 11 25 11c8 0 16 -3.66699 24 -11l102 -101c8.66699 -8.66699 13 -17 13 -25c0 -9.33301 -3.16699 -16.833 -9.5 -22.5s-13.5 -8.5 -21.5 -8.5s-15 3 -21 9l-87 87
l-87 -87c-6 -6 -13 -9 -21 -9zM38 0c-10 0 -18.667 3.5 -26 10.5s-11 16.167 -11 27.5l248 678c6 15.333 17.333 23 34 23c17.333 0 28.666 -7.66699 33.999 -23l248 -678c0 -12 -3.66699 -21.333 -11 -28s-16 -10 -26 -10c-16 0 -27.333 8 -34 24l-62 167h-298l-62 -167
c-7.33301 -16 -18.666 -24 -33.999 -24zM162 266h242l-121 328z" />
    <glyph glyph-name="Atilde" unicode="&#xc3;" 
d="M384 872c5.33301 10 14 15 26 15c8 0 15 -2.83301 21 -8.5s9 -12.834 9 -21.501c0 -5.33301 -1.66699 -10.333 -5 -15c-19.333 -33.333 -45.666 -50 -78.999 -50c-20 0 -44.833 8.33301 -74.5 25s-46.834 25 -51.501 25c-22 0 -38.333 -9.33301 -49 -28
c-5.33301 -10 -14 -15 -26 -15c-8 0 -15 2.83301 -21 8.5s-9 12.834 -9 21.501c0 4.66699 1.33301 9.66699 4 15c22.667 38.667 56.334 58 101.001 58c15.333 0 37.666 -8.33301 66.999 -25s49 -25 59 -25s19.333 6.66699 28 20zM38 0c-10 0 -18.667 3.5 -26 10.5
s-11 16.167 -11 27.5l248 678c6 15.333 17.333 23 34 23c17.333 0 28.666 -7.66699 33.999 -23l248 -678c0 -12 -3.66699 -21.333 -11 -28s-16 -10 -26 -10c-16 0 -27.333 8 -34 24l-62 167h-298l-62 -167c-7.33301 -16 -18.666 -24 -33.999 -24zM162 266h242l-121 328z" />
    <glyph glyph-name="Adieresis" unicode="&#xc4;" 
d="M184 800c-17.333 0 -31.668 6.33496 -43.001 19.002s-17 27 -17 43c0 17.333 5.83301 32.166 17.5 44.499s25.834 18.5 42.501 18.5c18 0 32.667 -6.33301 44 -19s17 -27.334 17 -44.001c0 -17.333 -6 -32 -18 -44s-26.333 -18 -43 -18zM381.998 800.002
c-16.667 0 -30.999 6.00195 -42.999 18.002s-18 26.667 -18 44s5.83301 32.166 17.5 44.499s26.167 18.5 43.5 18.5c18 0 32.5 -6.33301 43.5 -19s16.5 -27.334 16.5 -44.001s-5.83301 -31.167 -17.5 -43.5s-25.834 -18.5 -42.501 -18.5zM37.999 0.00390625
c-10 0 -18.667 3.5 -26 10.5s-11 16.167 -11 27.5l248 678c6 15.333 17.333 23 34 23c17.333 0 28.666 -7.66699 33.999 -23l248 -678c0 -12 -3.66699 -21.333 -11 -28s-16 -10 -26 -10c-16 0 -27.333 8 -34 24l-62 167h-298l-62 -167c-7.33301 -16 -18.666 -24 -33.999 -24
zM161.999 266.004h242l-121 328z" />
    <glyph glyph-name="Aring" unicode="&#xc5;" 
d="M322 702l243 -663.999c0 -12 -3.66699 -21.333 -11 -28s-16 -10 -26 -10c-16 0 -27.333 8 -34 24l-62 167h-298l-62 -167c-7.33301 -16 -18.666 -24 -33.999 -24c-10 0 -18.667 3.5 -26 10.5s-11 16.167 -11 27.5l243 665c-16 7.33301 -29 18.5 -39 33.5
s-15 31.833 -15 50.5c0 25.333 9 47.166 27 65.499s40 27.5 66 27.5c25.333 0 47.166 -9 65.499 -27s27.5 -40 27.5 -66c0 -18 -5 -34.833 -15 -50.5s-23 -27.167 -39 -34.5zM283 834.001c-13.333 0 -24.5 -4.5 -33.5 -13.5s-13.5 -20.167 -13.5 -33.5s4.5 -24.5 13.5 -33.5
s20.167 -13.5 33.5 -13.5s24.5 4.5 33.5 13.5s13.5 20.167 13.5 33.5s-4.5 24.5 -13.5 33.5s-20.167 13.5 -33.5 13.5zM162 266.001h242l-121 328z" />
    <glyph glyph-name="AE" unicode="&#xc6;" 
d="M53 0c-24.667 0 -37 12.666 -37 37.999l236 647c10 36 25.333 54 46 54h203c10 0 18.333 -3.66699 25 -11s10 -16.666 10 -27.999c0 -10.667 -3.66699 -19.5 -11 -26.5s-15.333 -10.5 -24 -10.5h-167v-256h123c9.33301 0 17.666 -3.66699 24.999 -11s11 -16 11 -26
c0 -11.333 -3.66699 -20.5 -11 -27.5s-15.666 -10.5 -24.999 -10.5h-123v-257h167c9.33301 0 17.5 -3.66699 24.5 -11s10.5 -16 10.5 -26c0 -11.333 -3.5 -20.5 -10.5 -27.5s-15.167 -10.5 -24.5 -10.5h-203c-9.33301 0 -17.5 3.66699 -24.5 11s-10.5 16.333 -10.5 27v153
h-114l-62 -167c-6 -16 -17.333 -24 -34 -24zM177 265.999h86v286z" />
    <glyph glyph-name="Ccedilla" unicode="&#xc7;" 
d="M466 255c10 0 18.5 -3.50098 25.5 -10.501s10.5 -15.833 10.5 -26.5c0 -54.667 -17.667 -102.667 -53 -144s-78.666 -65.333 -129.999 -72l-45 -85c24.667 0 42.667 -6.5 54 -19.5s17 -29.833 17 -50.5c0 -62 -46 -93 -138 -93h-31c-18.667 0 -28 9.33301 -28 28
s9.33301 28 28 28h35c52 0 78 12.333 78 37c0 10.667 -4.33301 18.834 -13 24.501s-17 9 -25 10s-18.333 1.83301 -31 2.5c-8 0 -12 2.66699 -12 8c0 2.66699 1 6 3 10l50 100c-50.667 8.66699 -92.834 33.5 -126.501 74.5s-50.5 88.167 -50.5 141.5v303
c0 59.333 20.333 110.5 61 153.5s90 64.5 148 64.5s107.333 -21.5 148 -64.5s61 -94.167 61 -153.5c0 -11.333 -3.66699 -20.5 -11 -27.5s-15.666 -10.5 -24.999 -10.5c-10 0 -18.5 3.66699 -25.5 11s-10.5 16.333 -10.5 27c0 38.667 -13.333 72 -40 100s-59 42 -97 42
c-38.667 0 -71.167 -14.167 -97.5 -42.5s-39.5 -61.5 -39.5 -99.5v-303c0 -38.667 13.333 -72.167 40 -100.5s59 -42.5 97 -42.5c39.333 0 72 14.167 98 42.5s39 61.833 39 100.5c0 11.333 3.66699 20.333 11 27s15.666 10 24.999 10z" />
    <glyph glyph-name="Egrave" unicode="&#xc8;" 
d="M283 798c-10.667 0 -19.667 3.66602 -27 10.999l-89 95c-6.66699 6.66699 -10 14.334 -10 23.001c0 10 3.83301 18.833 11.5 26.5s16.167 11.5 25.5 11.5c10 0 18.333 -4.33301 25 -13l89 -95c6.66699 -6 10 -13.333 10 -22c0 -10 -3.5 -18.667 -10.5 -26
s-15.167 -11 -24.5 -11zM115 -0.000976562c-9.33301 0 -17.501 3.66797 -24.501 11.001s-10.5 16.333 -10.5 27v663c0 10 3.33301 18.833 10 26.5s15 11.5 25 11.5h366c9.33301 0 17.5 -3.83301 24.5 -11.5s10.5 -16.834 10.5 -27.501s-3.5 -19.5 -10.5 -26.5
s-15.167 -10.5 -24.5 -10.5h-330v-256h256c10 0 18.5 -3.66699 25.5 -11s10.5 -16.333 10.5 -27s-3.66699 -19.5 -11 -26.5s-15.666 -10.5 -24.999 -10.5h-256v-257h330c9.33301 0 17.5 -3.66699 24.5 -11s10.5 -16.333 10.5 -27s-3.66699 -19.5 -11 -26.5
s-15.333 -10.5 -24 -10.5h-366z" />
    <glyph glyph-name="Eacute" unicode="&#xc9;" 
d="M281 798c-9.33301 0 -17.5 3.66797 -24.5 11.001s-10.5 16 -10.5 26c0 8.66699 3.33301 16 10 22l89 95c6.66699 8.66699 15 13 25 13c9.33301 0 17.833 -3.83301 25.5 -11.5s11.5 -16.5 11.5 -26.5c0 -8.66699 -3.33301 -16.334 -10 -23.001l-89 -95
c-7.33301 -7.33301 -16.333 -11 -27 -11zM115 0.000976562c-9.33301 0 -17.501 3.66797 -24.501 11.001s-10.5 16.333 -10.5 27v663c0 10 3.33301 18.833 10 26.5s15 11.5 25 11.5h366c9.33301 0 17.5 -3.83301 24.5 -11.5s10.5 -16.834 10.5 -27.501
s-3.5 -19.5 -10.5 -26.5s-15.167 -10.5 -24.5 -10.5h-330v-256h256c10 0 18.5 -3.66699 25.5 -11s10.5 -16.333 10.5 -27s-3.66699 -19.5 -11 -26.5s-15.666 -10.5 -24.999 -10.5h-256v-257h330c9.33301 0 17.5 -3.66699 24.5 -11s10.5 -16.333 10.5 -27
s-3.66699 -19.5 -11 -26.5s-15.333 -10.5 -24 -10.5h-366z" />
    <glyph glyph-name="Ecircumflex" unicode="&#xca;" 
d="M175 790c-8.66699 0 -16 3 -22 9s-9 13.333 -9 22c0 8 4.33301 16.333 13 25l101 101c8 7.33301 16.333 11 25 11c8 0 16 -3.66699 24 -11l102 -101c8.66699 -8.66699 13 -17 13 -25c0 -9.33301 -3.16699 -16.833 -9.5 -22.5s-13.5 -8.5 -21.5 -8.5s-15 3 -21 9l-87 87
l-87 -87c-6 -6 -13 -9 -21 -9zM115 0c-9.33301 0 -17.501 3.66797 -24.501 11.001s-10.5 16.333 -10.5 27v663c0 10 3.33301 18.833 10 26.5s15 11.5 25 11.5h366c9.33301 0 17.5 -3.83301 24.5 -11.5s10.5 -16.834 10.5 -27.501s-3.5 -19.5 -10.5 -26.5
s-15.167 -10.5 -24.5 -10.5h-330v-256h256c10 0 18.5 -3.66699 25.5 -11s10.5 -16.333 10.5 -27s-3.66699 -19.5 -11 -26.5s-15.666 -10.5 -24.999 -10.5h-256v-257h330c9.33301 0 17.5 -3.66699 24.5 -11s10.5 -16.333 10.5 -27s-3.66699 -19.5 -11 -26.5
s-15.333 -10.5 -24 -10.5h-366z" />
    <glyph glyph-name="Edieresis" unicode="&#xcb;" 
d="M184 800c-17.333 0 -31.668 6.33496 -43.001 19.002s-17 27 -17 43c0 17.333 5.83301 32.166 17.5 44.499s25.834 18.5 42.501 18.5c18 0 32.667 -6.33301 44 -19s17 -27.334 17 -44.001c0 -17.333 -6 -32 -18 -44s-26.333 -18 -43 -18zM381.998 800.002
c-16.667 0 -30.999 6.00195 -42.999 18.002s-18 26.667 -18 44s5.83301 32.166 17.5 44.499s26.167 18.5 43.5 18.5c18 0 32.5 -6.33301 43.5 -19s16.5 -27.334 16.5 -44.001s-5.83301 -31.167 -17.5 -43.5s-25.834 -18.5 -42.501 -18.5zM114.999 0.00390625
c-9.33301 0 -17.501 3.66797 -24.501 11.001s-10.5 16.333 -10.5 27v663c0 10 3.33301 18.833 10 26.5s15 11.5 25 11.5h366c9.33301 0 17.5 -3.83301 24.5 -11.5s10.5 -16.834 10.5 -27.501s-3.5 -19.5 -10.5 -26.5s-15.167 -10.5 -24.5 -10.5h-330v-256h256
c10 0 18.5 -3.66699 25.5 -11s10.5 -16.333 10.5 -27s-3.66699 -19.5 -11 -26.5s-15.666 -10.5 -24.999 -10.5h-256v-257h330c9.33301 0 17.5 -3.66699 24.5 -11s10.5 -16.333 10.5 -27s-3.66699 -19.5 -11 -26.5s-15.333 -10.5 -24 -10.5h-366z" />
    <glyph glyph-name="Igrave" unicode="&#xcc;" 
d="M283 798c-10.667 0 -19.667 3.66602 -27 10.999l-89 95c-6.66699 6.66699 -10 14.334 -10 23.001c0 10 3.83301 18.833 11.5 26.5s16.167 11.5 25.5 11.5c10 0 18.333 -4.33301 25 -13l89 -95c6.66699 -6 10 -13.333 10 -22c0 -10 -3.5 -18.667 -10.5 -26
s-15.167 -11 -24.5 -11zM126 -0.000976562c-10 0 -18.498 3.66699 -25.498 11s-10.5 16.333 -10.5 27c0 11.333 3.66699 20.333 11 27s15.666 10 24.999 10h121v589h-121c-10 0 -18.5 3.66699 -25.5 11s-10.5 16.333 -10.5 27c0 11.333 3.66699 20.333 11 27
s15.666 10 24.999 10h314c10 0 18.5 -3.5 25.5 -10.5s10.5 -15.833 10.5 -26.5c0 -11.333 -3.66699 -20.5 -11 -27.5s-15.666 -10.5 -24.999 -10.5h-121v-589h121c10 0 18.5 -3.5 25.5 -10.5s10.5 -15.833 10.5 -26.5s-3.33301 -19.667 -10 -27s-15.334 -11 -26.001 -11
h-314z" />
    <glyph glyph-name="Iacute" unicode="&#xcd;" 
d="M281 798c-9.33301 0 -17.5 3.66797 -24.5 11.001s-10.5 16 -10.5 26c0 8.66699 3.33301 16 10 22l89 95c6.66699 8.66699 15 13 25 13c9.33301 0 17.833 -3.83301 25.5 -11.5s11.5 -16.5 11.5 -26.5c0 -8.66699 -3.33301 -16.334 -10 -23.001l-89 -95
c-7.33301 -7.33301 -16.333 -11 -27 -11zM126 0.000976562c-10 0 -18.498 3.66699 -25.498 11s-10.5 16.333 -10.5 27c0 11.333 3.66699 20.333 11 27s15.666 10 24.999 10h121v589h-121c-10 0 -18.5 3.66699 -25.5 11s-10.5 16.333 -10.5 27c0 11.333 3.66699 20.333 11 27
s15.666 10 24.999 10h314c10 0 18.5 -3.5 25.5 -10.5s10.5 -15.833 10.5 -26.5c0 -11.333 -3.66699 -20.5 -11 -27.5s-15.666 -10.5 -24.999 -10.5h-121v-589h121c10 0 18.5 -3.5 25.5 -10.5s10.5 -15.833 10.5 -26.5s-3.33301 -19.667 -10 -27s-15.334 -11 -26.001 -11
h-314z" />
    <glyph glyph-name="Icircumflex" unicode="&#xce;" 
d="M175 790c-8.66699 0 -16 3 -22 9s-9 13.333 -9 22c0 8 4.33301 16.333 13 25l101 101c8 7.33301 16.333 11 25 11c8 0 16 -3.66699 24 -11l102 -101c8.66699 -8.66699 13 -17 13 -25c0 -9.33301 -3.16699 -16.833 -9.5 -22.5s-13.5 -8.5 -21.5 -8.5s-15 3 -21 9l-87 87
l-87 -87c-6 -6 -13 -9 -21 -9zM126 0c-10 0 -18.498 3.66699 -25.498 11s-10.5 16.333 -10.5 27c0 11.333 3.66699 20.333 11 27s15.666 10 24.999 10h121v589h-121c-10 0 -18.5 3.66699 -25.5 11s-10.5 16.333 -10.5 27c0 11.333 3.66699 20.333 11 27s15.666 10 24.999 10
h314c10 0 18.5 -3.5 25.5 -10.5s10.5 -15.833 10.5 -26.5c0 -11.333 -3.66699 -20.5 -11 -27.5s-15.666 -10.5 -24.999 -10.5h-121v-589h121c10 0 18.5 -3.5 25.5 -10.5s10.5 -15.833 10.5 -26.5s-3.33301 -19.667 -10 -27s-15.334 -11 -26.001 -11h-314z" />
    <glyph glyph-name="Idieresis" unicode="&#xcf;" 
d="M184 800c-17.333 0 -31.668 6.33496 -43.001 19.002s-17 27 -17 43c0 17.333 5.83301 32.166 17.5 44.499s25.834 18.5 42.501 18.5c18 0 32.667 -6.33301 44 -19s17 -27.334 17 -44.001c0 -17.333 -6 -32 -18 -44s-26.333 -18 -43 -18zM381.998 800.002
c-16.667 0 -30.999 6.00195 -42.999 18.002s-18 26.667 -18 44s5.83301 32.166 17.5 44.499s26.167 18.5 43.5 18.5c18 0 32.5 -6.33301 43.5 -19s16.5 -27.334 16.5 -44.001s-5.83301 -31.167 -17.5 -43.5s-25.834 -18.5 -42.501 -18.5zM125.999 0.00390625
c-10 0 -18.498 3.66699 -25.498 11s-10.5 16.333 -10.5 27c0 11.333 3.66699 20.333 11 27s15.666 10 24.999 10h121v589h-121c-10 0 -18.5 3.66699 -25.5 11s-10.5 16.333 -10.5 27c0 11.333 3.66699 20.333 11 27s15.666 10 24.999 10h314c10 0 18.5 -3.5 25.5 -10.5
s10.5 -15.833 10.5 -26.5c0 -11.333 -3.66699 -20.5 -11 -27.5s-15.666 -10.5 -24.999 -10.5h-121v-589h121c10 0 18.5 -3.5 25.5 -10.5s10.5 -15.833 10.5 -26.5s-3.33301 -19.667 -10 -27s-15.334 -11 -26.001 -11h-314z" />
    <glyph glyph-name="Eth" unicode="&#xd0;" 
d="M295 739c58 0 107.334 -21.5 148.001 -64.5s61 -94.167 61 -153.5v-303c0 -59.333 -20.333 -110.5 -61 -153.5s-90 -64.5 -148 -64.5h-173c-10 0 -18.5 3.66699 -25.5 11s-10.5 16.333 -10.5 27v301h-49c-8 0 -15 3.16699 -21 9.5s-9 13.5 -9 21.5s3 15 9 21s13 9 21 9
h49v301c0 11.333 3.66699 20.5 11 27.5s15.666 10.5 24.999 10.5h173zM432.001 218v303c0 39.333 -13.667 73 -41 101s-59.333 42 -96 42h-137v-264h125c8 0 14.833 -3 20.5 -9s9.16699 -13.333 10.5 -22c-0.666992 -8 -4 -14.833 -10 -20.5s-13 -8.5 -21 -8.5l-125 -1v-264
h137c37.333 0 69.5 14.333 96.5 43s40.5 62 40.5 100z" />
    <glyph glyph-name="Ntilde" unicode="&#xd1;" 
d="M384 872c5.33301 10 14 15 26 15c8 0 15 -2.83301 21 -8.5s9 -12.834 9 -21.501c0 -5.33301 -1.66699 -10.333 -5 -15c-19.333 -33.333 -45.666 -50 -78.999 -50c-20 0 -44.833 8.33301 -74.5 25s-46.834 25 -51.501 25c-22 0 -38.333 -9.33301 -49 -28
c-5.33301 -10 -14 -15 -26 -15c-8 0 -15 2.83301 -21 8.5s-9 12.834 -9 21.501c0 4.66699 1.33301 9.66699 4 15c22.667 38.667 56.334 58 101.001 58c15.333 0 37.666 -8.33301 66.999 -25s49 -25 59 -25s19.333 6.66699 28 20zM101 0c-10 0 -18.499 3.66699 -25.499 11
s-10.5 16.333 -10.5 27v664c0 10.667 3.66699 19.5 11 26.5s15.666 10.5 24.999 10.5c14 0 24.333 -6.33301 31 -19l297 -540v522c0 10.667 3.66699 19.5 11 26.5s15.666 10.5 24.999 10.5s17.666 -3.66699 24.999 -11s11 -16 11 -26v-664
c0 -11.333 -3.66699 -20.5 -11 -27.5s-15.666 -10.5 -24.999 -10.5c-14.667 -0 -25 6.33301 -31 19l-297 540v-521c0 -11.333 -3.66699 -20.5 -11 -27.5s-15.666 -10.5 -24.999 -10.5z" />
    <glyph glyph-name="Ograve" unicode="&#xd2;" 
d="M283 798c-10.667 0 -19.667 3.66602 -27 10.999l-89 95c-6.66699 6.66699 -10 14.334 -10 23.001c0 10 3.83301 18.833 11.5 26.5s16.167 11.5 25.5 11.5c10 0 18.333 -4.33301 25 -13l89 -95c6.66699 -6 10 -13.333 10 -22c0 -10 -3.5 -18.667 -10.5 -26
s-15.167 -11 -24.5 -11zM283 -3.00098c-58.667 0 -108.333 21.333 -149 64s-61 94 -61 154v306c0 60.667 20.5 112.167 61.5 154.5s90.5 63.5 148.5 63.5s107.5 -21.333 148.5 -64s61.5 -94 61.5 -154v-306c0 -60 -20.5 -111.333 -61.5 -154s-90.5 -64 -148.5 -64z
M283.001 71.999c38.667 0 71.167 14.5 97.5 43.5s39.5 62.167 39.5 99.5v306c0 38.667 -13.333 72 -40 100s-59 42 -97 42c-38.667 0 -71.167 -14.167 -97.5 -42.5s-39.5 -61.5 -39.5 -99.5v-306c0 -39.333 13.667 -73 41 -101s59.333 -42 96 -42z" />
    <glyph glyph-name="Oacute" unicode="&#xd3;" 
d="M281 798c-9.33301 0 -17.5 3.66797 -24.5 11.001s-10.5 16 -10.5 26c0 8.66699 3.33301 16 10 22l89 95c6.66699 8.66699 15 13 25 13c9.33301 0 17.833 -3.83301 25.5 -11.5s11.5 -16.5 11.5 -26.5c0 -8.66699 -3.33301 -16.334 -10 -23.001l-89 -95
c-7.33301 -7.33301 -16.333 -11 -27 -11zM283 -2.99902c-58.667 0 -108.333 21.333 -149 64s-61 94 -61 154v306c0 60.667 20.5 112.167 61.5 154.5s90.5 63.5 148.5 63.5s107.5 -21.333 148.5 -64s61.5 -94 61.5 -154v-306c0 -60 -20.5 -111.333 -61.5 -154
s-90.5 -64 -148.5 -64zM283.001 72.001c38.667 0 71.167 14.5 97.5 43.5s39.5 62.167 39.5 99.5v306c0 38.667 -13.333 72 -40 100s-59 42 -97 42c-38.667 0 -71.167 -14.167 -97.5 -42.5s-39.5 -61.5 -39.5 -99.5v-306c0 -39.333 13.667 -73 41 -101s59.333 -42 96 -42z
" />
    <glyph glyph-name="Ocircumflex" unicode="&#xd4;" 
d="M175 790c-8.66699 0 -16 3 -22 9s-9 13.333 -9 22c0 8 4.33301 16.333 13 25l101 101c8 7.33301 16.333 11 25 11c8 0 16 -3.66699 24 -11l102 -101c8.66699 -8.66699 13 -17 13 -25c0 -9.33301 -3.16699 -16.833 -9.5 -22.5s-13.5 -8.5 -21.5 -8.5s-15 3 -21 9l-87 87
l-87 -87c-6 -6 -13 -9 -21 -9zM283 -3c-58.667 0 -108.333 21.333 -149 64s-61 94 -61 154v306c0 60.667 20.5 112.167 61.5 154.5s90.5 63.5 148.5 63.5s107.5 -21.333 148.5 -64s61.5 -94 61.5 -154v-306c0 -60 -20.5 -111.333 -61.5 -154s-90.5 -64 -148.5 -64z
M283.001 72c38.667 0 71.167 14.5 97.5 43.5s39.5 62.167 39.5 99.5v306c0 38.667 -13.333 72 -40 100s-59 42 -97 42c-38.667 0 -71.167 -14.167 -97.5 -42.5s-39.5 -61.5 -39.5 -99.5v-306c0 -39.333 13.667 -73 41 -101s59.333 -42 96 -42z" />
    <glyph glyph-name="Otilde" unicode="&#xd5;" 
d="M384 872c5.33301 10 14 15 26 15c8 0 15 -2.83301 21 -8.5s9 -12.834 9 -21.501c0 -5.33301 -1.66699 -10.333 -5 -15c-19.333 -33.333 -45.666 -50 -78.999 -50c-20 0 -44.833 8.33301 -74.5 25s-46.834 25 -51.501 25c-22 0 -38.333 -9.33301 -49 -28
c-5.33301 -10 -14 -15 -26 -15c-8 0 -15 2.83301 -21 8.5s-9 12.834 -9 21.501c0 4.66699 1.33301 9.66699 4 15c22.667 38.667 56.334 58 101.001 58c15.333 0 37.666 -8.33301 66.999 -25s49 -25 59 -25s19.333 6.66699 28 20zM283 -3c-58.667 0 -108.333 21.333 -149 64
s-61 94 -61 154v306c0 60.667 20.5 112.167 61.5 154.5s90.5 63.5 148.5 63.5s107.5 -21.333 148.5 -64s61.5 -94 61.5 -154v-306c0 -60 -20.5 -111.333 -61.5 -154s-90.5 -64 -148.5 -64zM283.001 72c38.667 0 71.167 14.5 97.5 43.5s39.5 62.167 39.5 99.5v306
c0 38.667 -13.333 72 -40 100s-59 42 -97 42c-38.667 0 -71.167 -14.167 -97.5 -42.5s-39.5 -61.5 -39.5 -99.5v-306c0 -39.333 13.667 -73 41 -101s59.333 -42 96 -42z" />
    <glyph glyph-name="Odieresis" unicode="&#xd6;" 
d="M184 800c-17.333 0 -31.668 6.33496 -43.001 19.002s-17 27 -17 43c0 17.333 5.83301 32.166 17.5 44.499s25.834 18.5 42.501 18.5c18 0 32.667 -6.33301 44 -19s17 -27.334 17 -44.001c0 -17.333 -6 -32 -18 -44s-26.333 -18 -43 -18zM381.998 800.002
c-16.667 0 -30.999 6.00195 -42.999 18.002s-18 26.667 -18 44s5.83301 32.166 17.5 44.499s26.167 18.5 43.5 18.5c18 0 32.5 -6.33301 43.5 -19s16.5 -27.334 16.5 -44.001s-5.83301 -31.167 -17.5 -43.5s-25.834 -18.5 -42.501 -18.5zM282.999 -2.99609
c-58.667 0 -108.333 21.333 -149 64s-61 94 -61 154v306c0 60.667 20.5 112.167 61.5 154.5s90.5 63.5 148.5 63.5s107.5 -21.333 148.5 -64s61.5 -94 61.5 -154v-306c0 -60 -20.5 -111.333 -61.5 -154s-90.5 -64 -148.5 -64zM283 72.0039c38.667 0 71.167 14.5 97.5 43.5
s39.5 62.167 39.5 99.5v306c0 38.667 -13.333 72 -40 100s-59 42 -97 42c-38.667 0 -71.167 -14.167 -97.5 -42.5s-39.5 -61.5 -39.5 -99.5v-306c0 -39.333 13.667 -73 41 -101s59.333 -42 96 -42z" />
    <glyph glyph-name="multiply" unicode="&#xd7;" 
d="M89 55c-8 7.33301 -11.999 15.833 -11.999 25.5s4 18.167 12 25.5l143 143l-143 144c-17.333 16.667 -17.333 33.667 0 51c16.667 17.333 33.667 17.333 51 0l143 -143l143 143c16.667 16.667 33.667 16.334 51 -0.999023
c17.333 -16.667 17.666 -33.334 0.999023 -50.001l-143 -143l143 -144c16 -16 15.667 -32.667 -1 -50c-7.33301 -8 -15.833 -12 -25.5 -12s-18.167 3.66699 -25.5 11l-143 143l-143 -143c-17.333 -16.667 -34.333 -16.667 -51 0z" />
    <glyph glyph-name="Oslash" unicode="&#xd8;" 
d="M466 627c18 -32.667 27 -68.001 27 -106.001v-306c0 -60 -20.5 -111.333 -61.5 -154s-90.5 -64 -148.5 -64c-56.667 0 -105 20 -145 60l-8 -13c-4 -7.33301 -10.167 -12 -18.5 -14s-15.833 -1 -22.5 3s-11.167 10.167 -13.5 18.5s-1.5 15.833 2.5 22.5l21 36
c-17.333 31.333 -26 66.333 -26 105v306c0 60.667 20.5 112.167 61.5 154.5s90.5 63.5 148.5 63.5c55.333 0 103.333 -19.667 144 -59l9 15c10 16.667 24 20.334 42 11.001c7.33301 -4 12 -10 14 -18s0.666992 -15.667 -4 -23zM146 214.999
c0 -2.66699 0.166992 -6.16699 0.5 -10.5s0.5 -7.5 0.5 -9.5l241 417c-27.333 34 -62.333 51 -105 51c-38.667 0 -71.167 -14.167 -97.5 -42.5s-39.5 -61.5 -39.5 -99.5v-306zM420 214.999v305.999c0 4.66699 -0.666992 12.334 -2 23.001l-241 -418
c28.667 -36 64 -54 106 -54c38.667 0 71.167 14.5 97.5 43.5s39.5 62.167 39.5 99.5z" />
    <glyph glyph-name="Ugrave" unicode="&#xd9;" 
d="M283 798c-10.667 0 -19.667 3.66602 -27 10.999l-89 95c-6.66699 6.66699 -10 14.334 -10 23.001c0 10 3.83301 18.833 11.5 26.5s16.167 11.5 25.5 11.5c10 0 18.333 -4.33301 25 -13l89 -95c6.66699 -6 10 -13.333 10 -22c0 -10 -3.5 -18.667 -10.5 -26
s-15.167 -11 -24.5 -11zM283 -0.000976562c-59.333 0 -109.169 21.666 -149.502 64.999s-60.5 94.666 -60.5 153.999v482c0 10 3.5 18.833 10.5 26.5s15.5 11.5 25.5 11.5s18.5 -3.83301 25.5 -11.5s10.5 -16.5 10.5 -26.5v-482c0 -39.333 13.333 -73.166 40 -101.499
s59.334 -42.5 98.001 -42.5s71.334 14.5 98.001 43.5s40 62.5 40 100.5v482c0 10 3.5 18.833 10.5 26.5s15.5 11.5 25.5 11.5s18.5 -3.83301 25.5 -11.5s10.5 -16.5 10.5 -26.5v-482c0 -61.333 -20.5 -113.166 -61.5 -155.499s-90.5 -63.5 -148.5 -63.5z" />
    <glyph glyph-name="Uacute" unicode="&#xda;" 
d="M281 798c-9.33301 0 -17.5 3.66797 -24.5 11.001s-10.5 16 -10.5 26c0 8.66699 3.33301 16 10 22l89 95c6.66699 8.66699 15 13 25 13c9.33301 0 17.833 -3.83301 25.5 -11.5s11.5 -16.5 11.5 -26.5c0 -8.66699 -3.33301 -16.334 -10 -23.001l-89 -95
c-7.33301 -7.33301 -16.333 -11 -27 -11zM283 0.000976562c-59.333 0 -109.169 21.666 -149.502 64.999s-60.5 94.666 -60.5 153.999v482c0 10 3.5 18.833 10.5 26.5s15.5 11.5 25.5 11.5s18.5 -3.83301 25.5 -11.5s10.5 -16.5 10.5 -26.5v-482
c0 -39.333 13.333 -73.166 40 -101.499s59.334 -42.5 98.001 -42.5s71.334 14.5 98.001 43.5s40 62.5 40 100.5v482c0 10 3.5 18.833 10.5 26.5s15.5 11.5 25.5 11.5s18.5 -3.83301 25.5 -11.5s10.5 -16.5 10.5 -26.5v-482c0 -61.333 -20.5 -113.166 -61.5 -155.499
s-90.5 -63.5 -148.5 -63.5z" />
    <glyph glyph-name="Ucircumflex" unicode="&#xdb;" 
d="M175 790c-8.66699 0 -16 3 -22 9s-9 13.333 -9 22c0 8 4.33301 16.333 13 25l101 101c8 7.33301 16.333 11 25 11c8 0 16 -3.66699 24 -11l102 -101c8.66699 -8.66699 13 -17 13 -25c0 -9.33301 -3.16699 -16.833 -9.5 -22.5s-13.5 -8.5 -21.5 -8.5s-15 3 -21 9l-87 87
l-87 -87c-6 -6 -13 -9 -21 -9zM283 0c-59.333 0 -109.169 21.666 -149.502 64.999s-60.5 94.666 -60.5 153.999v482c0 10 3.5 18.833 10.5 26.5s15.5 11.5 25.5 11.5s18.5 -3.83301 25.5 -11.5s10.5 -16.5 10.5 -26.5v-482c0 -39.333 13.333 -73.166 40 -101.499
s59.334 -42.5 98.001 -42.5s71.334 14.5 98.001 43.5s40 62.5 40 100.5v482c0 10 3.5 18.833 10.5 26.5s15.5 11.5 25.5 11.5s18.5 -3.83301 25.5 -11.5s10.5 -16.5 10.5 -26.5v-482c0 -61.333 -20.5 -113.166 -61.5 -155.499s-90.5 -63.5 -148.5 -63.5z" />
    <glyph glyph-name="Udieresis" unicode="&#xdc;" 
d="M184 800c-17.333 0 -31.668 6.33496 -43.001 19.002s-17 27 -17 43c0 17.333 5.83301 32.166 17.5 44.499s25.834 18.5 42.501 18.5c18 0 32.667 -6.33301 44 -19s17 -27.334 17 -44.001c0 -17.333 -6 -32 -18 -44s-26.333 -18 -43 -18zM381.998 800.002
c-16.667 0 -30.999 6.00195 -42.999 18.002s-18 26.667 -18 44s5.83301 32.166 17.5 44.499s26.167 18.5 43.5 18.5c18 0 32.5 -6.33301 43.5 -19s16.5 -27.334 16.5 -44.001s-5.83301 -31.167 -17.5 -43.5s-25.834 -18.5 -42.501 -18.5zM282.999 0.00390625
c-59.333 0 -109.169 21.666 -149.502 64.999s-60.5 94.666 -60.5 153.999v482c0 10 3.5 18.833 10.5 26.5s15.5 11.5 25.5 11.5s18.5 -3.83301 25.5 -11.5s10.5 -16.5 10.5 -26.5v-482c0 -39.333 13.333 -73.166 40 -101.499s59.334 -42.5 98.001 -42.5
s71.334 14.5 98.001 43.5s40 62.5 40 100.5v482c0 10 3.5 18.833 10.5 26.5s15.5 11.5 25.5 11.5s18.5 -3.83301 25.5 -11.5s10.5 -16.5 10.5 -26.5v-482c0 -61.333 -20.5 -113.166 -61.5 -155.499s-90.5 -63.5 -148.5 -63.5z" />
    <glyph glyph-name="Yacute" unicode="&#xdd;" 
d="M281 798c-9.33301 0 -17.5 3.66797 -24.5 11.001s-10.5 16 -10.5 26c0 8.66699 3.33301 16 10 22l89 95c6.66699 8.66699 15 13 25 13c9.33301 0 17.833 -3.83301 25.5 -11.5s11.5 -16.5 11.5 -26.5c0 -8.66699 -3.33301 -16.334 -10 -23.001l-89 -95
c-7.33301 -7.33301 -16.333 -11 -27 -11zM283 0.000976562c-10 0 -18.499 3.66699 -25.499 11s-10.5 16.333 -10.5 27v322l-163 323c-3.33301 8 -5 14 -5 18c0 10 3.66699 18.833 11 26.5s15.666 11.5 24.999 11.5c14 0 24.667 -7 32 -21l136 -268l136 268
c7.33301 14 18 21 32 21c9.33301 0 17.666 -3.83301 24.999 -11.5s11 -16.5 11 -26.5c0 -4 -1.66699 -10 -5 -18l-163 -323v-322c0 -11.333 -3.66699 -20.5 -11 -27.5s-15.666 -10.5 -24.999 -10.5z" />
    <glyph glyph-name="Thorn" unicode="&#xde;" 
d="M122 0c-10 0 -18.5 3.83301 -25.5 11.5s-10.5 16.5 -10.5 26.5v663c0 10 3.5 18.833 10.5 26.5s15.5 11.5 25.5 11.5c10.667 0 19.5 -3.66699 26.5 -11s10.5 -16.333 10.5 -27v-81h123c60 0 111.333 -22.333 154 -67s64 -98 64 -160s-21.333 -115.333 -64 -160
s-94 -67 -154 -67h-123v-128c0 -10.667 -3.5 -19.667 -10.5 -27s-15.833 -11 -26.5 -11zM159 242h127.001c38 1.33301 70.833 16.166 98.5 44.499s41.834 62.5 42.501 102.5v4v4c-0.666992 40.667 -15.334 75.334 -44.001 104.001s-62.334 43 -101.001 43h-123v-302z" />
    <glyph glyph-name="germandbls" unicode="&#xdf;" 
d="M114 0c-10.667 0 -19.501 3.66797 -26.501 11.001s-10.5 16.333 -10.5 27v525c0 52 15.333 94.333 46 127s70.667 49 120 49c50.667 0 92.834 -17 126.501 -51s50.5 -76.667 50.5 -128c0 -23.333 -4.66699 -44 -14 -62s-26.333 -39.333 -51 -64
c42.667 -16.667 75.667 -42.167 99 -76.5s35 -74.833 35 -121.5c0 -68.667 -22.833 -125.167 -68.5 -169.5s-97.5 -66.5 -155.5 -66.5c-36 0 -54 12.333 -54 37c0 25.333 15.667 38.666 47 39.999c48 3.33301 86 18.833 114 46.5s42 65.167 42 112.5
c0 22 -3.5 41.5 -10.5 58.5s-15.167 30.333 -24.5 40s-22.5 18.334 -39.5 26.001s-31.333 13.167 -43 16.5s-27.5 7 -47.5 11c-12.667 2.66699 -22.167 6.66699 -28.5 12s-9.5 13.666 -9.5 24.999c0 22.667 13.333 35.667 40 39c62.667 10.667 94 43.334 94 98.001
c0 30.667 -9.5 55 -28.5 73s-42.167 27 -69.5 27s-50 -9.33301 -68 -28s-27 -42.334 -27 -71.001v-525c0 -10.667 -3.66699 -19.667 -11 -27s-16.333 -11 -27 -11z" />
    <glyph glyph-name="agrave" unicode="&#xe0;" 
d="M288 552c-10.667 0 -19.667 3.66602 -27 10.999l-89 95c-6.66699 6.66699 -10 14.334 -10 23.001c0 10 3.83301 18.833 11.5 26.5s16.167 11.5 25.5 11.5c10 0 18.333 -4.33301 25 -13l89 -95c6.66699 -6 10 -13.333 10 -22c0 -10 -3.5 -18.667 -10.5 -26
s-15.167 -11 -24.5 -11zM228 -0.000976562c-51.333 0 -91.499 13.3311 -120.499 39.998s-43.5 61.334 -43.5 104.001c0 43.333 15 78.333 45 105s69.333 40.334 118 41.001c101.333 0.666992 158.333 4.66699 171 12c10 9.33301 15 20 15 32c0 23.333 -12.167 44 -36.5 62
s-54.5 27 -90.5 27c-27.333 0 -52.5 -6 -75.5 -18s-40.5 -29.333 -52.5 -52c-6.66699 -14 -17 -21 -31 -21c-24 0 -36 11.667 -36 35c0 31.333 22 60.166 66 86.499s89 39.5 135 39.5c48 0 91.667 -15.167 131 -45.5s59 -68.166 59 -113.499v-299
c0 -10.667 -3.5 -19.167 -10.5 -25.5s-15.167 -9.5 -24.5 -9.5s-17.333 3.33301 -24 10s-10 15 -10 25v46c-21.333 -28 -48.833 -48.5 -82.5 -61.5s-67.834 -19.5 -102.501 -19.5zM242.001 70.9971c50.667 0 91.833 11.668 123.5 35.001s47.5 56.666 47.5 99.999v47
c-16 -8.66699 -35 -14 -57 -16s-61.333 -3.66699 -118 -5c-68 -1.33301 -102 -29 -102 -83c0 -52 35.333 -78 106 -78z" />
    <glyph glyph-name="aacute" unicode="&#xe1;" 
d="M286 552c-9.33301 0 -17.5 3.66797 -24.5 11.001s-10.5 16 -10.5 26c0 8.66699 3.33301 16 10 22l89 95c6.66699 8.66699 15 13 25 13c9.33301 0 17.833 -3.83301 25.5 -11.5s11.5 -16.5 11.5 -26.5c0 -8.66699 -3.33301 -16.334 -10 -23.001l-89 -95
c-7.33301 -7.33301 -16.333 -11 -27 -11zM228 0.000976562c-51.333 0 -91.499 13.3311 -120.499 39.998s-43.5 61.334 -43.5 104.001c0 43.333 15 78.333 45 105s69.333 40.334 118 41.001c101.333 0.666992 158.333 4.66699 171 12c10 9.33301 15 20 15 32
c0 23.333 -12.167 44 -36.5 62s-54.5 27 -90.5 27c-27.333 0 -52.5 -6 -75.5 -18s-40.5 -29.333 -52.5 -52c-6.66699 -14 -17 -21 -31 -21c-24 0 -36 11.667 -36 35c0 31.333 22 60.166 66 86.499s89 39.5 135 39.5c48 0 91.667 -15.167 131 -45.5s59 -68.166 59 -113.499
v-299c0 -10.667 -3.5 -19.167 -10.5 -25.5s-15.167 -9.5 -24.5 -9.5s-17.333 3.33301 -24 10s-10 15 -10 25v46c-21.333 -28 -48.833 -48.5 -82.5 -61.5s-67.834 -19.5 -102.501 -19.5zM242.001 70.999c50.667 0 91.833 11.668 123.5 35.001s47.5 56.666 47.5 99.999v47
c-16 -8.66699 -35 -14 -57 -16s-61.333 -3.66699 -118 -5c-68 -1.33301 -102 -29 -102 -83c0 -52 35.333 -78 106 -78z" />
    <glyph glyph-name="acircumflex" unicode="&#xe2;" 
d="M180 544c-8.66699 0 -16 3 -22 9s-9 13.333 -9 22c0 8 4.33301 16.333 13 25l101 101c8 7.33301 16.333 11 25 11c8 0 16 -3.66699 24 -11l102 -101c8.66699 -8.66699 13 -17 13 -25c0 -9.33301 -3.16699 -16.833 -9.5 -22.5s-13.5 -8.5 -21.5 -8.5s-15 3 -21 9l-87 87
l-87 -87c-6 -6 -13 -9 -21 -9zM228 0c-51.333 0 -91.499 13.3311 -120.499 39.998s-43.5 61.334 -43.5 104.001c0 43.333 15 78.333 45 105s69.333 40.334 118 41.001c101.333 0.666992 158.333 4.66699 171 12c10 9.33301 15 20 15 32c0 23.333 -12.167 44 -36.5 62
s-54.5 27 -90.5 27c-27.333 0 -52.5 -6 -75.5 -18s-40.5 -29.333 -52.5 -52c-6.66699 -14 -17 -21 -31 -21c-24 0 -36 11.667 -36 35c0 31.333 22 60.166 66 86.499s89 39.5 135 39.5c48 0 91.667 -15.167 131 -45.5s59 -68.166 59 -113.499v-299
c0 -10.667 -3.5 -19.167 -10.5 -25.5s-15.167 -9.5 -24.5 -9.5s-17.333 3.33301 -24 10s-10 15 -10 25v46c-21.333 -28 -48.833 -48.5 -82.5 -61.5s-67.834 -19.5 -102.501 -19.5zM242.001 70.998c50.667 0 91.833 11.668 123.5 35.001s47.5 56.666 47.5 99.999v47
c-16 -8.66699 -35 -14 -57 -16s-61.333 -3.66699 -118 -5c-68 -1.33301 -102 -29 -102 -83c0 -52 35.333 -78 106 -78z" />
    <glyph glyph-name="atilde" unicode="&#xe3;" 
d="M389 626c5.33301 10 14 15 26 15c8 0 15 -2.83301 21 -8.5s9 -12.834 9 -21.501c0 -5.33301 -1.66699 -10.333 -5 -15c-19.333 -33.333 -45.666 -50 -78.999 -50c-20 0 -44.833 8.33301 -74.5 25s-46.834 25 -51.501 25c-22 0 -38.333 -9.33301 -49 -28
c-5.33301 -10 -14 -15 -26 -15c-8 0 -15 2.83301 -21 8.5s-9 12.834 -9 21.501c0 4.66699 1.33301 9.66699 4 15c22.667 38.667 56.334 58 101.001 58c15.333 0 37.666 -8.33301 66.999 -25s49 -25 59 -25s19.333 6.66699 28 20zM228 0
c-51.333 0 -91.499 13.3311 -120.499 39.998s-43.5 61.334 -43.5 104.001c0 43.333 15 78.333 45 105s69.333 40.334 118 41.001c101.333 0.666992 158.333 4.66699 171 12c10 9.33301 15 20 15 32c0 23.333 -12.167 44 -36.5 62s-54.5 27 -90.5 27
c-27.333 0 -52.5 -6 -75.5 -18s-40.5 -29.333 -52.5 -52c-6.66699 -14 -17 -21 -31 -21c-24 0 -36 11.667 -36 35c0 31.333 22 60.166 66 86.499s89 39.5 135 39.5c48 0 91.667 -15.167 131 -45.5s59 -68.166 59 -113.499v-299c0 -10.667 -3.5 -19.167 -10.5 -25.5
s-15.167 -9.5 -24.5 -9.5s-17.333 3.33301 -24 10s-10 15 -10 25v46c-21.333 -28 -48.833 -48.5 -82.5 -61.5s-67.834 -19.5 -102.501 -19.5zM242.001 70.998c50.667 0 91.833 11.668 123.5 35.001s47.5 56.666 47.5 99.999v47c-16 -8.66699 -35 -14 -57 -16
s-61.333 -3.66699 -118 -5c-68 -1.33301 -102 -29 -102 -83c0 -52 35.333 -78 106 -78z" />
    <glyph glyph-name="adieresis" unicode="&#xe4;" 
d="M189 554c-17.333 0 -31.668 6.33496 -43.001 19.002s-17 27 -17 43c0 17.333 5.83301 32.166 17.5 44.499s25.834 18.5 42.501 18.5c18 0 32.667 -6.33301 44 -19s17 -27.334 17 -44.001c0 -17.333 -6 -32 -18 -44s-26.333 -18 -43 -18zM386.998 554.002
c-16.667 0 -30.999 6.00195 -42.999 18.002s-18 26.667 -18 44s5.83301 32.166 17.5 44.499s26.167 18.5 43.5 18.5c18 0 32.5 -6.33301 43.5 -19s16.5 -27.334 16.5 -44.001s-5.83301 -31.167 -17.5 -43.5s-25.834 -18.5 -42.501 -18.5zM227.999 0.00390625
c-51.333 0 -91.499 13.3311 -120.499 39.998s-43.5 61.334 -43.5 104.001c0 43.333 15 78.333 45 105s69.333 40.334 118 41.001c101.333 0.666992 158.333 4.66699 171 12c10 9.33301 15 20 15 32c0 23.333 -12.167 44 -36.5 62s-54.5 27 -90.5 27
c-27.333 0 -52.5 -6 -75.5 -18s-40.5 -29.333 -52.5 -52c-6.66699 -14 -17 -21 -31 -21c-24 0 -36 11.667 -36 35c0 31.333 22 60.166 66 86.499s89 39.5 135 39.5c48 0 91.667 -15.167 131 -45.5s59 -68.166 59 -113.499v-299c0 -10.667 -3.5 -19.167 -10.5 -25.5
s-15.167 -9.5 -24.5 -9.5s-17.333 3.33301 -24 10s-10 15 -10 25v46c-21.333 -28 -48.833 -48.5 -82.5 -61.5s-67.834 -19.5 -102.501 -19.5zM242 71.002c50.667 0 91.833 11.668 123.5 35.001s47.5 56.666 47.5 99.999v47c-16 -8.66699 -35 -14 -57 -16
s-61.333 -3.66699 -118 -5c-68 -1.33301 -102 -29 -102 -83c0 -52 35.333 -78 106 -78z" />
    <glyph glyph-name="aring" unicode="&#xe5;" 
d="M288 554c-25.333 0 -47.166 9 -65.499 27s-27.5 40 -27.5 66c0 25.333 9 47.166 27 65.499s40 27.5 66 27.5c25.333 0 47.166 -9 65.499 -27s27.5 -40 27.5 -66c0 -25.333 -9 -47.166 -27 -65.499s-40 -27.5 -66 -27.5zM288 600c13.333 0 24.5 4.5 33.5 13.5
s13.5 20.167 13.5 33.5s-4.5 24.5 -13.5 33.5s-20.167 13.5 -33.5 13.5s-24.5 -4.5 -33.5 -13.5s-13.5 -20.167 -13.5 -33.5s4.5 -24.5 13.5 -33.5s20.167 -13.5 33.5 -13.5zM228 0c-51.333 0 -91.499 13.3311 -120.499 39.998s-43.5 61.334 -43.5 104.001
c0 43.333 15 78.333 45 105s69.333 40.334 118 41.001c101.333 0.666992 158.333 4.66699 171 12c10 9.33301 15 20 15 32c0 23.333 -12.167 44 -36.5 62s-54.5 27 -90.5 27c-27.333 0 -52.5 -6 -75.5 -18s-40.5 -29.333 -52.5 -52c-6.66699 -14 -17 -21 -31 -21
c-24 0 -36 11.667 -36 35c0 31.333 22 60.166 66 86.499s89 39.5 135 39.5c48 0 91.667 -15.167 131 -45.5s59 -68.166 59 -113.499v-299c0 -10.667 -3.5 -19.167 -10.5 -25.5s-15.167 -9.5 -24.5 -9.5s-17.333 3.33301 -24 10s-10 15 -10 25v46
c-21.333 -28 -48.833 -48.5 -82.5 -61.5s-67.834 -19.5 -102.501 -19.5zM242.001 70.998c50.667 0 91.833 11.668 123.5 35.001s47.5 56.666 47.5 99.999v47c-16 -8.66699 -35 -14 -57 -16s-61.333 -3.66699 -118 -5c-68 -1.33301 -102 -29 -102 -83
c0 -52 35.333 -78 106 -78z" />
    <glyph glyph-name="ae" unicode="&#xe6;" 
d="M181 0c-36.667 0 -68.668 13.334 -96.001 40.001s-41 59 -41 97v35c0 39.333 13.5 72.166 40.5 98.499s59.167 39.5 96.5 39.5h67v74c0 10.667 -6 19.834 -18 27.501s-25.667 11.5 -41 11.5c-13.333 0 -25.5 -2.83301 -36.5 -8.5s-18.167 -12.834 -21.5 -21.501
c-3.33301 -10 -9.33301 -16.333 -18 -19c-5.33301 -1.33301 -9.66602 -2 -12.999 -2c-16.667 0 -28 6.66699 -34 20c-1.33301 6.66699 -2 11.334 -2 14.001c0 3.33301 0.666992 7.66602 2 12.999c9.33301 24 25.5 42.333 48.5 55s47.833 19 74.5 19
c40 0 73.333 -13.333 100 -40c24.667 26.667 56.667 40 96 40c37.333 0 69.5 -13.333 96.5 -40s40.5 -59 40.5 -97v-81c0 -10 -3.16699 -18.333 -9.5 -25s-14.833 -10 -25.5 -10h-169v-103c0 -18.667 6.5 -34.5 19.5 -47.5s28.833 -19.5 47.5 -19.5
c26 0 45.667 11.667 59 35c4.66699 8 11.667 13.667 21 17c4 1.33301 7.33301 2 10 2c15.333 0 26.333 -8.66699 33 -26c1.33301 -5.33301 2 -9 2 -11c0 -20 -14 -39.5 -42 -58.5s-55.667 -28.5 -83 -28.5c-39.333 -0 -73.333 15.333 -102 46
c-28.667 -30.667 -62.667 -46 -102 -46zM317.999 310.001h134v46c0 18.667 -6.33301 34.5 -19 47.5s-28.667 19.5 -48 19.5c-18.667 0 -34.5 -6.5 -47.5 -19.5s-19.5 -28.833 -19.5 -47.5v-46zM180.999 70.001c18.667 0 34.5 6.5 47.5 19.5s19.5 28.833 19.5 47.5v103h-67
c-18.667 0 -34.5 -6.66699 -47.5 -20s-19.5 -29.333 -19.5 -48v-35c0 -18.667 6.5 -34.5 19.5 -47.5s28.833 -19.5 47.5 -19.5z" />
    <glyph glyph-name="ccedilla" unicode="&#xe7;" 
d="M469 167c9.33301 0 17.667 -3.83398 25 -11.501s11 -16.167 11 -25.5c0 -6.66699 -1.66699 -12.667 -5 -18c-16 -30 -38.5 -54.833 -67.5 -74.5s-60.167 -31.5 -93.5 -35.5l-45 -85c24.667 0 42.667 -6.5 54 -19.5s17 -29.833 17 -50.5c0 -62 -46 -93 -138 -93h-31
c-18.667 0 -28 9.33301 -28 28s9.33301 28 28 28h35c52 0 78 12.333 78 37c0 10.667 -4.33301 18.834 -13 24.501s-17 9 -25 10s-18.333 1.83301 -31 2.5c-8 0 -12 2.66699 -12 8c0 2.66699 1 6 3 10l50 101c-50.667 8 -93.334 32.5 -128.001 73.5s-52 87.5 -52 139.5v61
c0 60 21.167 111 63.5 153s92.166 63 149.499 63c38.667 0 74.834 -10.167 108.501 -30.5s59.5 -47.5 77.5 -81.5c3.33301 -6.66699 5 -12.667 5 -18c0 -9.33301 -3.66699 -17.666 -11 -24.999s-16 -11 -26 -11c-7.33301 0 -13.5 1.66699 -18.5 5s-11 10.166 -18 20.499
s-10.833 15.833 -11.5 16.5c-26.667 33.333 -62 50 -106 50c-38.667 0 -71.667 -14 -99 -42s-41 -61.333 -41 -100v-61c0 -39.333 13.667 -72.833 41 -100.5s60.333 -41.5 99 -41.5c48.667 0 87.334 21.333 116.001 64c8.66699 19.333 21.667 29 39 29z" />
    <glyph glyph-name="egrave" unicode="&#xe8;" 
d="M296 552c-10.667 0 -19.667 3.66602 -27 10.999l-89 95c-6.66699 6.66699 -10 14.334 -10 23.001c0 10 3.83301 18.833 11.5 26.5s16.167 11.5 25.5 11.5c10 0 18.333 -4.33301 25 -13l89 -95c6.66699 -6 10 -13.333 10 -22c0 -10 -3.5 -18.667 -10.5 -26
s-15.167 -11 -24.5 -11zM292 -0.000976562c-58 0 -108.001 21.334 -150.001 64.001s-63 93.334 -63 152.001v61c0 59.333 21 110.166 63 152.499s93.333 63.5 154 63.5c63.333 0 114.333 -22.833 153 -68.5s58 -102.167 58 -169.5c0 -14 -3.5 -24.5 -10.5 -31.5
s-15.833 -10.5 -26.5 -10.5h-317c0 -39.333 14.167 -72.333 42.5 -99s62.166 -40 101.499 -40c28 0 50.5 6.33301 67.5 19s34.167 31 51.5 55c8.66699 12.667 19 19 31 19c9.33301 0 18 -3.33301 26 -10s12 -14.334 12 -23.001c0 -6.66699 -1.66699 -14 -5 -22
c-11.333 -28.667 -35.166 -54.5 -71.499 -77.5s-75.166 -34.5 -116.499 -34.5zM152.999 287h278c-6 42.667 -21.167 75.334 -45.5 98.001s-54.5 34 -90.5 34c-39.333 0 -72.333 -12.833 -99 -38.5s-41 -56.834 -43 -93.501z" />
    <glyph glyph-name="eacute" unicode="&#xe9;" 
d="M294 552c-9.33301 0 -17.5 3.66797 -24.5 11.001s-10.5 16 -10.5 26c0 8.66699 3.33301 16 10 22l89 95c6.66699 8.66699 15 13 25 13c9.33301 0 17.833 -3.83301 25.5 -11.5s11.5 -16.5 11.5 -26.5c0 -8.66699 -3.33301 -16.334 -10 -23.001l-89 -95
c-7.33301 -7.33301 -16.333 -11 -27 -11zM292 0.000976562c-58 0 -108.001 21.334 -150.001 64.001s-63 93.334 -63 152.001v61c0 59.333 21 110.166 63 152.499s93.333 63.5 154 63.5c63.333 0 114.333 -22.833 153 -68.5s58 -102.167 58 -169.5
c0 -14 -3.5 -24.5 -10.5 -31.5s-15.833 -10.5 -26.5 -10.5h-317c0 -39.333 14.167 -72.333 42.5 -99s62.166 -40 101.499 -40c28 0 50.5 6.33301 67.5 19s34.167 31 51.5 55c8.66699 12.667 19 19 31 19c9.33301 0 18 -3.33301 26 -10s12 -14.334 12 -23.001
c0 -6.66699 -1.66699 -14 -5 -22c-11.333 -28.667 -35.166 -54.5 -71.499 -77.5s-75.166 -34.5 -116.499 -34.5zM152.999 287.002h278c-6 42.667 -21.167 75.334 -45.5 98.001s-54.5 34 -90.5 34c-39.333 0 -72.333 -12.833 -99 -38.5s-41 -56.834 -43 -93.501z" />
    <glyph glyph-name="ecircumflex" unicode="&#xea;" 
d="M188 544c-8.66699 0 -16 3 -22 9s-9 13.333 -9 22c0 8 4.33301 16.333 13 25l101 101c8 7.33301 16.333 11 25 11c8 0 16 -3.66699 24 -11l102 -101c8.66699 -8.66699 13 -17 13 -25c0 -9.33301 -3.16699 -16.833 -9.5 -22.5s-13.5 -8.5 -21.5 -8.5s-15 3 -21 9l-87 87
l-87 -87c-6 -6 -13 -9 -21 -9zM292 0c-58 0 -108.001 21.334 -150.001 64.001s-63 93.334 -63 152.001v61c0 59.333 21 110.166 63 152.499s93.333 63.5 154 63.5c63.333 0 114.333 -22.833 153 -68.5s58 -102.167 58 -169.5c0 -14 -3.5 -24.5 -10.5 -31.5
s-15.833 -10.5 -26.5 -10.5h-317c0 -39.333 14.167 -72.333 42.5 -99s62.166 -40 101.499 -40c28 0 50.5 6.33301 67.5 19s34.167 31 51.5 55c8.66699 12.667 19 19 31 19c9.33301 0 18 -3.33301 26 -10s12 -14.334 12 -23.001c0 -6.66699 -1.66699 -14 -5 -22
c-11.333 -28.667 -35.166 -54.5 -71.499 -77.5s-75.166 -34.5 -116.499 -34.5zM152.999 287.001h278c-6 42.667 -21.167 75.334 -45.5 98.001s-54.5 34 -90.5 34c-39.333 0 -72.333 -12.833 -99 -38.5s-41 -56.834 -43 -93.501z" />
    <glyph glyph-name="edieresis" unicode="&#xeb;" 
d="M197 554c-17.333 0 -31.668 6.33496 -43.001 19.002s-17 27 -17 43c0 17.333 5.83301 32.166 17.5 44.499s25.834 18.5 42.501 18.5c18 0 32.667 -6.33301 44 -19s17 -27.334 17 -44.001c0 -17.333 -6 -32 -18 -44s-26.333 -18 -43 -18zM394.998 554.002
c-16.667 0 -30.999 6.00195 -42.999 18.002s-18 26.667 -18 44s5.83301 32.166 17.5 44.499s26.167 18.5 43.5 18.5c18 0 32.5 -6.33301 43.5 -19s16.5 -27.334 16.5 -44.001s-5.83301 -31.167 -17.5 -43.5s-25.834 -18.5 -42.501 -18.5zM291.999 0.00390625
c-58 0 -108.001 21.334 -150.001 64.001s-63 93.334 -63 152.001v61c0 59.333 21 110.166 63 152.499s93.333 63.5 154 63.5c63.333 0 114.333 -22.833 153 -68.5s58 -102.167 58 -169.5c0 -14 -3.5 -24.5 -10.5 -31.5s-15.833 -10.5 -26.5 -10.5h-317
c0 -39.333 14.167 -72.333 42.5 -99s62.166 -40 101.499 -40c28 0 50.5 6.33301 67.5 19s34.167 31 51.5 55c8.66699 12.667 19 19 31 19c9.33301 0 18 -3.33301 26 -10s12 -14.334 12 -23.001c0 -6.66699 -1.66699 -14 -5 -22c-11.333 -28.667 -35.166 -54.5 -71.499 -77.5
s-75.166 -34.5 -116.499 -34.5zM152.998 287.005h278c-6 42.667 -21.167 75.334 -45.5 98.001s-54.5 34 -90.5 34c-39.333 0 -72.333 -12.833 -99 -38.5s-41 -56.834 -43 -93.501z" />
    <glyph glyph-name="igrave" unicode="&#xec;" 
d="M303 552c-10.667 0 -19.667 3.66602 -27 10.999l-89 95c-6.66699 6.66699 -10 14.334 -10 23.001c0 10 3.83301 18.833 11.5 26.5s16.167 11.5 25.5 11.5c10 0 18.333 -4.33301 25 -13l89 -95c6.66699 -6 10 -13.333 10 -22c0 -10 -3.5 -18.667 -10.5 -26
s-15.167 -11 -24.5 -11zM96 -0.000976562c-10.667 0 -19.5 3.66699 -26.5 11s-10.5 16.333 -10.5 27c0 9.33301 3.66699 18 11 26s16 12 26 12h170v341h-170c-10.667 0 -19.5 3.66699 -26.5 11s-10.5 16.333 -10.5 27c0 9.33301 3.66699 18 11 26s16 12 26 12h207
c10 0 18.667 -3.83301 26 -11.5s11 -16.5 11 -26.5v-379h140c10 0 18.667 -3.83301 26 -11.5s11 -16.5 11 -26.5c0 -10.667 -3.5 -19.667 -10.5 -27s-15.833 -11 -26.5 -11h-384z" />
    <glyph glyph-name="iacute" unicode="&#xed;" 
d="M301 552c-9.33301 0 -17.5 3.66797 -24.5 11.001s-10.5 16 -10.5 26c0 8.66699 3.33301 16 10 22l89 95c6.66699 8.66699 15 13 25 13c9.33301 0 17.833 -3.83301 25.5 -11.5s11.5 -16.5 11.5 -26.5c0 -8.66699 -3.33301 -16.334 -10 -23.001l-89 -95
c-7.33301 -7.33301 -16.333 -11 -27 -11zM96 0.000976562c-10.667 0 -19.5 3.66699 -26.5 11s-10.5 16.333 -10.5 27c0 9.33301 3.66699 18 11 26s16 12 26 12h170v341h-170c-10.667 0 -19.5 3.66699 -26.5 11s-10.5 16.333 -10.5 27c0 9.33301 3.66699 18 11 26
s16 12 26 12h207c10 0 18.667 -3.83301 26 -11.5s11 -16.5 11 -26.5v-379h140c10 0 18.667 -3.83301 26 -11.5s11 -16.5 11 -26.5c0 -10.667 -3.5 -19.667 -10.5 -27s-15.833 -11 -26.5 -11h-384z" />
    <glyph glyph-name="icircumflex" unicode="&#xee;" 
d="M195 544c-8.66699 0 -16 3 -22 9s-9 13.333 -9 22c0 8 4.33301 16.333 13 25l101 101c8 7.33301 16.333 11 25 11c8 0 16 -3.66699 24 -11l102 -101c8.66699 -8.66699 13 -17 13 -25c0 -9.33301 -3.16699 -16.833 -9.5 -22.5s-13.5 -8.5 -21.5 -8.5s-15 3 -21 9l-87 87
l-87 -87c-6 -6 -13 -9 -21 -9zM96 0c-10.667 0 -19.5 3.66699 -26.5 11s-10.5 16.333 -10.5 27c0 9.33301 3.66699 18 11 26s16 12 26 12h170v341h-170c-10.667 0 -19.5 3.66699 -26.5 11s-10.5 16.333 -10.5 27c0 9.33301 3.66699 18 11 26s16 12 26 12h207
c10 0 18.667 -3.83301 26 -11.5s11 -16.5 11 -26.5v-379h140c10 0 18.667 -3.83301 26 -11.5s11 -16.5 11 -26.5c0 -10.667 -3.5 -19.667 -10.5 -27s-15.833 -11 -26.5 -11h-384z" />
    <glyph glyph-name="idieresis" unicode="&#xef;" 
d="M204 554c-17.333 0 -31.668 6.33496 -43.001 19.002s-17 27 -17 43c0 17.333 5.83301 32.166 17.5 44.499s25.834 18.5 42.501 18.5c18 0 32.667 -6.33301 44 -19s17 -27.334 17 -44.001c0 -17.333 -6 -32 -18 -44s-26.333 -18 -43 -18zM401.998 554.002
c-16.667 0 -30.999 6.00195 -42.999 18.002s-18 26.667 -18 44s5.83301 32.166 17.5 44.499s26.167 18.5 43.5 18.5c18 0 32.5 -6.33301 43.5 -19s16.5 -27.334 16.5 -44.001s-5.83301 -31.167 -17.5 -43.5s-25.834 -18.5 -42.501 -18.5zM95.999 0.00390625
c-10.667 0 -19.5 3.66699 -26.5 11s-10.5 16.333 -10.5 27c0 9.33301 3.66699 18 11 26s16 12 26 12h170v341h-170c-10.667 0 -19.5 3.66699 -26.5 11s-10.5 16.333 -10.5 27c0 9.33301 3.66699 18 11 26s16 12 26 12h207c10 0 18.667 -3.83301 26 -11.5s11 -16.5 11 -26.5
v-379h140c10 0 18.667 -3.83301 26 -11.5s11 -16.5 11 -26.5c0 -10.667 -3.5 -19.667 -10.5 -27s-15.833 -11 -26.5 -11h-384z" />
    <glyph glyph-name="eth" unicode="&#xf0;" 
d="M497 280l0.000976562 -3.00098v-61c0 -60 -21.167 -111 -63.5 -153s-92.5 -63 -150.5 -63c-60 0 -110.667 21.333 -152 64s-62 93.334 -62 152.001v61c0 58.667 20.833 109.334 62.5 152.001s92.167 64 151.5 64c35.333 0 67.666 -7.66699 96.999 -23
c-23.333 46 -54.666 86.667 -93.999 122l-50 -65c-6 -8 -14 -12 -24 -12c-8 0 -15 2.83301 -21 8.5s-9 12.834 -9 21.501c0 7.33301 2 13.333 6 18l50 65c-16.667 11.333 -37.334 22.666 -62.001 33.999c-14 6 -21 17 -21 33c0 10 3.5 18.5 10.5 25.5s15.5 10.5 25.5 10.5
c6 0 11 -1 15 -3c29.333 -12.667 55 -27 77 -43l32 42c6 8 14 12 24 12c8 0 15 -2.83301 21 -8.5s9 -12.834 9 -21.501c0 -7.33301 -2 -13.333 -6 -18l-33 -43c52.667 -46.667 93.667 -102.5 123 -167.5s44 -131.833 44 -200.5zM423.001 215.999v61
c0 39.333 -13.667 72.833 -41 100.5s-60.333 41.5 -99 41.5c-40 0 -73.333 -14 -100 -42s-40 -61.333 -40 -100v-61c0 -39.333 14 -72.833 42 -100.5s60.667 -41.5 98 -41.5c38.667 0 71.667 14 99 42s41 61.333 41 100z" />
    <glyph glyph-name="ntilde" unicode="&#xf1;" 
d="M394 626c5.33301 10 14 15 26 15c8 0 15 -2.83301 21 -8.5s9 -12.834 9 -21.501c0 -5.33301 -1.66699 -10.333 -5 -15c-19.333 -33.333 -45.666 -50 -78.999 -50c-20 0 -44.833 8.33301 -74.5 25s-46.834 25 -51.501 25c-22 0 -38.333 -9.33301 -49 -28
c-5.33301 -10 -14 -15 -26 -15c-8 0 -15 2.83301 -21 8.5s-9 12.834 -9 21.501c0 4.66699 1.33301 9.66699 4 15c22.667 38.667 56.334 58 101.001 58c15.333 0 37.666 -8.33301 66.999 -25s49 -25 59 -25s19.333 6.66699 28 20zM116 0
c-10 0 -18.668 3.66602 -26.001 10.999s-11 16 -11 26v419c0 10 3.5 18.667 10.5 26s15.833 11 26.5 11s19.5 -3.66699 26.5 -11s10.5 -16 10.5 -26v-52c19.333 30.667 41 53.167 65 67.5s55 21.5 93 21.5c62.667 0 111 -18.167 145 -54.5s51 -90.166 51 -161.499v-240
c0 -10 -3.66699 -18.667 -11 -26s-16 -11 -26 -11s-18.667 3.66699 -26 11s-11 16 -11 26v240c0 46.667 -11.667 82 -35 106s-55.666 36 -96.999 36c-47.333 0 -83.833 -14.167 -109.5 -42.5s-38.5 -61.5 -38.5 -99.5v-240c0 -10 -3.66699 -18.667 -11 -26s-16 -11 -26 -11z
" />
    <glyph glyph-name="ograve" unicode="&#xf2;" 
d="M283 552c-10.667 0 -19.667 3.66602 -27 10.999l-89 95c-6.66699 6.66699 -10 14.334 -10 23.001c0 10 3.83301 18.833 11.5 26.5s16.167 11.5 25.5 11.5c10 0 18.333 -4.33301 25 -13l89 -95c6.66699 -6 10 -13.333 10 -22c0 -10 -3.5 -18.667 -10.5 -26
s-15.167 -11 -24.5 -11zM283 -0.000976562c-60 0 -110.667 21.332 -152 63.999s-62 93.334 -62 152.001v61c0 58.667 20.833 109.334 62.5 152.001s92.167 64 151.5 64c60.667 0 111.5 -21.333 152.5 -64s61.5 -93.334 61.5 -152.001v-61c0 -60 -21.167 -111 -63.5 -153
s-92.5 -63 -150.5 -63zM283 73.998c38.667 0 71.667 14 99 42s41 61.333 41 100v61c0 39.333 -13.667 72.833 -41 100.5s-60.333 41.5 -99 41.5c-40 0 -73.333 -14 -100 -42s-40 -61.333 -40 -100v-61c0 -39.333 14 -72.833 42 -100.5s60.667 -41.5 98 -41.5z" />
    <glyph glyph-name="oacute" unicode="&#xf3;" 
d="M281 552c-9.33301 0 -17.5 3.66797 -24.5 11.001s-10.5 16 -10.5 26c0 8.66699 3.33301 16 10 22l89 95c6.66699 8.66699 15 13 25 13c9.33301 0 17.833 -3.83301 25.5 -11.5s11.5 -16.5 11.5 -26.5c0 -8.66699 -3.33301 -16.334 -10 -23.001l-89 -95
c-7.33301 -7.33301 -16.333 -11 -27 -11zM283 0.000976562c-60 0 -110.667 21.332 -152 63.999s-62 93.334 -62 152.001v61c0 58.667 20.833 109.334 62.5 152.001s92.167 64 151.5 64c60.667 0 111.5 -21.333 152.5 -64s61.5 -93.334 61.5 -152.001v-61
c0 -60 -21.167 -111 -63.5 -153s-92.5 -63 -150.5 -63zM283 74c38.667 0 71.667 14 99 42s41 61.333 41 100v61c0 39.333 -13.667 72.833 -41 100.5s-60.333 41.5 -99 41.5c-40 0 -73.333 -14 -100 -42s-40 -61.333 -40 -100v-61c0 -39.333 14 -72.833 42 -100.5
s60.667 -41.5 98 -41.5z" />
    <glyph glyph-name="ocircumflex" unicode="&#xf4;" 
d="M175 544c-8.66699 0 -16 3 -22 9s-9 13.333 -9 22c0 8 4.33301 16.333 13 25l101 101c8 7.33301 16.333 11 25 11c8 0 16 -3.66699 24 -11l102 -101c8.66699 -8.66699 13 -17 13 -25c0 -9.33301 -3.16699 -16.833 -9.5 -22.5s-13.5 -8.5 -21.5 -8.5s-15 3 -21 9l-87 87
l-87 -87c-6 -6 -13 -9 -21 -9zM283 0c-60 0 -110.667 21.332 -152 63.999s-62 93.334 -62 152.001v61c0 58.667 20.833 109.334 62.5 152.001s92.167 64 151.5 64c60.667 0 111.5 -21.333 152.5 -64s61.5 -93.334 61.5 -152.001v-61c0 -60 -21.167 -111 -63.5 -153
s-92.5 -63 -150.5 -63zM283 73.999c38.667 0 71.667 14 99 42s41 61.333 41 100v61c0 39.333 -13.667 72.833 -41 100.5s-60.333 41.5 -99 41.5c-40 0 -73.333 -14 -100 -42s-40 -61.333 -40 -100v-61c0 -39.333 14 -72.833 42 -100.5s60.667 -41.5 98 -41.5z" />
    <glyph glyph-name="otilde" unicode="&#xf5;" 
d="M384 626c5.33301 10 14 15 26 15c8 0 15 -2.83301 21 -8.5s9 -12.834 9 -21.501c0 -5.33301 -1.66699 -10.333 -5 -15c-19.333 -33.333 -45.666 -50 -78.999 -50c-20 0 -44.833 8.33301 -74.5 25s-46.834 25 -51.501 25c-22 0 -38.333 -9.33301 -49 -28
c-5.33301 -10 -14 -15 -26 -15c-8 0 -15 2.83301 -21 8.5s-9 12.834 -9 21.501c0 4.66699 1.33301 9.66699 4 15c22.667 38.667 56.334 58 101.001 58c15.333 0 37.666 -8.33301 66.999 -25s49 -25 59 -25s19.333 6.66699 28 20zM283 0c-60 0 -110.667 21.332 -152 63.999
s-62 93.334 -62 152.001v61c0 58.667 20.833 109.334 62.5 152.001s92.167 64 151.5 64c60.667 0 111.5 -21.333 152.5 -64s61.5 -93.334 61.5 -152.001v-61c0 -60 -21.167 -111 -63.5 -153s-92.5 -63 -150.5 -63zM283 73.999c38.667 0 71.667 14 99 42s41 61.333 41 100v61
c0 39.333 -13.667 72.833 -41 100.5s-60.333 41.5 -99 41.5c-40 0 -73.333 -14 -100 -42s-40 -61.333 -40 -100v-61c0 -39.333 14 -72.833 42 -100.5s60.667 -41.5 98 -41.5z" />
    <glyph glyph-name="odieresis" unicode="&#xf6;" 
d="M184 554c-17.333 0 -31.668 6.33496 -43.001 19.002s-17 27 -17 43c0 17.333 5.83301 32.166 17.5 44.499s25.834 18.5 42.501 18.5c18 0 32.667 -6.33301 44 -19s17 -27.334 17 -44.001c0 -17.333 -6 -32 -18 -44s-26.333 -18 -43 -18zM381.998 554.002
c-16.667 0 -30.999 6.00195 -42.999 18.002s-18 26.667 -18 44s5.83301 32.166 17.5 44.499s26.167 18.5 43.5 18.5c18 0 32.5 -6.33301 43.5 -19s16.5 -27.334 16.5 -44.001s-5.83301 -31.167 -17.5 -43.5s-25.834 -18.5 -42.501 -18.5zM282.999 0.00390625
c-60 0 -110.667 21.332 -152 63.999s-62 93.334 -62 152.001v61c0 58.667 20.833 109.334 62.5 152.001s92.167 64 151.5 64c60.667 0 111.5 -21.333 152.5 -64s61.5 -93.334 61.5 -152.001v-61c0 -60 -21.167 -111 -63.5 -153s-92.5 -63 -150.5 -63zM282.999 74.0029
c38.667 0 71.667 14 99 42s41 61.333 41 100v61c0 39.333 -13.667 72.833 -41 100.5s-60.333 41.5 -99 41.5c-40 0 -73.333 -14 -100 -42s-40 -61.333 -40 -100v-61c0 -39.333 14 -72.833 42 -100.5s60.667 -41.5 98 -41.5z" />
    <glyph glyph-name="divide" unicode="&#xf7;" 
d="M292 374c-15.333 0 -28.666 5.33301 -39.999 16c-10.667 12 -16 25 -16 39c0 15.333 5.33301 28.333 16 39c11.333 10.667 24.666 16 39.999 16s28.666 -5.33301 39.999 -16c10.667 -10.667 16 -23.667 16 -39c0 -14 -5.33301 -27 -16 -39
c-11.333 -10.667 -24.666 -16 -39.999 -16zM70 201c-11.333 0 -21.333 4.33301 -30 13c-8 8 -12 17.667 -12 29s4 21 12 29c9.33301 8 19.333 12 30 12h426c10.667 0 20.667 -4 30 -12c8 -8 12 -17.667 12 -29s-4 -21 -12 -29c-8.66699 -8.66699 -18.667 -13 -30 -13h-426z
M292 0c-14 0 -27.3311 5.33301 -39.998 16c-10.667 12.667 -16 26 -16 40s5.33301 27 16 39c11.333 10.667 24.666 16 39.999 16s28.666 -5.33301 39.999 -16c10.667 -12 16 -25 16 -39s-5.33301 -27.333 -16 -40c-12.667 -10.667 -26 -16 -40 -16z" />
    <glyph glyph-name="oslash" unicode="&#xf8;" 
d="M423 441c49.333 -44 73.999 -98.668 73.999 -164.001v-61c0 -60 -21.167 -111 -63.5 -153s-92.5 -63 -150.5 -63c-35.333 0 -68.666 8.33301 -99.999 25l-25 -44c-3.33301 -6 -8.33301 -9.83301 -15 -11.5s-13 -0.833984 -19 2.49902
c-13.333 8.66699 -16.333 19.667 -9 33l28 48c-49.333 42.667 -74 97 -74 163v61c0 58.667 20.833 109.334 62.5 152.001s92.167 64 151.5 64c35.333 0 68.666 -8.33301 99.999 -25l25 44c3.33301 6 8.33301 9.83301 15 11.5s13 0.833984 19 -2.49902
c5.33301 -3.33301 8.83301 -8.33301 10.5 -15s0.833984 -12.667 -2.49902 -18zM142.999 215.999c0 -36.667 12.667 -68.667 38 -96l165 284c-18.667 10 -39.667 15 -63 15c-40 0 -73.333 -14 -100 -42s-40 -61.333 -40 -100v-61zM422.999 215.999v61
c0 38 -12.667 70.667 -38 98l-164 -285c20 -10.667 40.667 -16 62 -16c38.667 0 71.667 14 99 42s41 61.333 41 100z" />
    <glyph glyph-name="ugrave" unicode="&#xf9;" 
d="M283 552c-10.667 0 -19.667 3.66602 -27 10.999l-89 95c-6.66699 6.66699 -10 14.334 -10 23.001c0 10 3.83301 18.833 11.5 26.5s16.167 11.5 25.5 11.5c10 0 18.333 -4.33301 25 -13l89 -95c6.66699 -6 10 -13.333 10 -22c0 -10 -3.5 -18.667 -10.5 -26
s-15.167 -11 -24.5 -11zM258 -0.000976562c-61.333 0 -108.167 18.333 -140.5 55s-48.5 90.334 -48.5 161.001v240c0 10 3.66699 18.667 11 26s16 11 26 11s18.667 -3.66699 26 -11s11 -16 11 -26v-240c0 -46.667 11.5 -82 34.5 -106s56.167 -36 99.5 -36s78.333 14 105 42
c27.333 28.667 41 62 41 100v240c0 10 3.66699 18.667 11 26s16 11 26 11s18.667 -3.66699 26 -11s11 -16 11 -26v-419c0 -10.667 -3.5 -19.5 -10.5 -26.5s-15.833 -10.5 -26.5 -10.5s-19.5 3.5 -26.5 10.5s-10.5 15.833 -10.5 26.5v56
c-20.667 -32.667 -44 -56.334 -70 -71.001s-57.667 -22 -95 -22z" />
    <glyph glyph-name="uacute" unicode="&#xfa;" 
d="M281 552c-9.33301 0 -17.5 3.66797 -24.5 11.001s-10.5 16 -10.5 26c0 8.66699 3.33301 16 10 22l89 95c6.66699 8.66699 15 13 25 13c9.33301 0 17.833 -3.83301 25.5 -11.5s11.5 -16.5 11.5 -26.5c0 -8.66699 -3.33301 -16.334 -10 -23.001l-89 -95
c-7.33301 -7.33301 -16.333 -11 -27 -11zM258 0.000976562c-61.333 0 -108.167 18.333 -140.5 55s-48.5 90.334 -48.5 161.001v240c0 10 3.66699 18.667 11 26s16 11 26 11s18.667 -3.66699 26 -11s11 -16 11 -26v-240c0 -46.667 11.5 -82 34.5 -106s56.167 -36 99.5 -36
s78.333 14 105 42c27.333 28.667 41 62 41 100v240c0 10 3.66699 18.667 11 26s16 11 26 11s18.667 -3.66699 26 -11s11 -16 11 -26v-419c0 -10.667 -3.5 -19.5 -10.5 -26.5s-15.833 -10.5 -26.5 -10.5s-19.5 3.5 -26.5 10.5s-10.5 15.833 -10.5 26.5v56
c-20.667 -32.667 -44 -56.334 -70 -71.001s-57.667 -22 -95 -22z" />
    <glyph glyph-name="ucircumflex" unicode="&#xfb;" 
d="M175 544c-8.66699 0 -16 3 -22 9s-9 13.333 -9 22c0 8 4.33301 16.333 13 25l101 101c8 7.33301 16.333 11 25 11c8 0 16 -3.66699 24 -11l102 -101c8.66699 -8.66699 13 -17 13 -25c0 -9.33301 -3.16699 -16.833 -9.5 -22.5s-13.5 -8.5 -21.5 -8.5s-15 3 -21 9l-87 87
l-87 -87c-6 -6 -13 -9 -21 -9zM258 0c-61.333 0 -108.167 18.333 -140.5 55s-48.5 90.334 -48.5 161.001v240c0 10 3.66699 18.667 11 26s16 11 26 11s18.667 -3.66699 26 -11s11 -16 11 -26v-240c0 -46.667 11.5 -82 34.5 -106s56.167 -36 99.5 -36s78.333 14 105 42
c27.333 28.667 41 62 41 100v240c0 10 3.66699 18.667 11 26s16 11 26 11s18.667 -3.66699 26 -11s11 -16 11 -26v-419c0 -10.667 -3.5 -19.5 -10.5 -26.5s-15.833 -10.5 -26.5 -10.5s-19.5 3.5 -26.5 10.5s-10.5 15.833 -10.5 26.5v56
c-20.667 -32.667 -44 -56.334 -70 -71.001s-57.667 -22 -95 -22z" />
    <glyph glyph-name="udieresis" unicode="&#xfc;" 
d="M184 554c-17.333 0 -31.668 6.33496 -43.001 19.002s-17 27 -17 43c0 17.333 5.83301 32.166 17.5 44.499s25.834 18.5 42.501 18.5c18 0 32.667 -6.33301 44 -19s17 -27.334 17 -44.001c0 -17.333 -6 -32 -18 -44s-26.333 -18 -43 -18zM381.998 554.002
c-16.667 0 -30.999 6.00195 -42.999 18.002s-18 26.667 -18 44s5.83301 32.166 17.5 44.499s26.167 18.5 43.5 18.5c18 0 32.5 -6.33301 43.5 -19s16.5 -27.334 16.5 -44.001s-5.83301 -31.167 -17.5 -43.5s-25.834 -18.5 -42.501 -18.5zM257.999 0.00390625
c-61.333 0 -108.167 18.333 -140.5 55s-48.5 90.334 -48.5 161.001v240c0 10 3.66699 18.667 11 26s16 11 26 11s18.667 -3.66699 26 -11s11 -16 11 -26v-240c0 -46.667 11.5 -82 34.5 -106s56.167 -36 99.5 -36s78.333 14 105 42c27.333 28.667 41 62 41 100v240
c0 10 3.66699 18.667 11 26s16 11 26 11s18.667 -3.66699 26 -11s11 -16 11 -26v-419c0 -10.667 -3.5 -19.5 -10.5 -26.5s-15.833 -10.5 -26.5 -10.5s-19.5 3.5 -26.5 10.5s-10.5 15.833 -10.5 26.5v56c-20.667 -32.667 -44 -56.334 -70 -71.001s-57.667 -22 -95 -22z" />
    <glyph glyph-name="yacute" unicode="&#xfd;" 
d="M301 552c-9.33301 0 -17.5 3.66797 -24.5 11.001s-10.5 16 -10.5 26c0 8.66699 3.33301 16 10 22l89 95c6.66699 8.66699 15 13 25 13c9.33301 0 17.833 -3.83301 25.5 -11.5s11.5 -16.5 11.5 -26.5c0 -8.66699 -3.33301 -16.334 -10 -23.001l-89 -95
c-7.33301 -7.33301 -16.333 -11 -27 -11zM213 -229.999c-10 0 -18.667 3.49902 -26 10.499s-11 15.833 -11 26.5c0 4.66699 1 9.66699 3 15l84 204l-171 415c-2 5.33301 -3 10 -3 14c0 10.667 4.16699 19.834 12.5 27.501s16.833 11.5 25.5 11.5c16 0 27 -8 33 -24l143 -348
l143 348c6 16 17 24 33 24c10 0 18.833 -4 26.5 -12s11.5 -17 11.5 -27c0 -4 -1 -8.66699 -3 -14l-267 -648c-6.66699 -15.333 -18 -23 -34 -23z" />
    <glyph glyph-name="thorn" unicode="&#xfe;" 
d="M116 -230c-10.667 0 -19.502 3.66504 -26.502 10.998s-10.5 16.333 -10.5 27v894c0 10 3.66699 18.667 11 26s16 11 26 11s18.667 -3.66699 26 -11s11 -16 11 -26v-293c36.667 56 86.667 84 150 84c54.667 -1.33301 102.334 -23.666 143.001 -66.999
s61 -94.666 61 -153.999v-51c0 -60.667 -19.167 -112.667 -57.5 -156s-85.166 -65 -140.499 -65c-61.333 -0 -113.333 28.333 -156 85v-277c0 -10.667 -3.5 -19.667 -10.5 -27s-15.833 -11 -26.5 -11zM292.998 75.998c39.333 0 72.5 14.167 99.5 42.5s40.5 62.5 40.5 102.5
v51c0 39.333 -13.167 73.5 -39.5 102.5s-59.833 43.5 -100.5 43.5c-39.333 0 -72.5 -14.5 -99.5 -43.5s-40.5 -63.167 -40.5 -102.5v-51c0 -40 13.667 -74.167 41 -102.5s60.333 -42.5 99 -42.5z" />
    <glyph glyph-name="ydieresis" unicode="&#xff;" 
d="M204 554c-17.333 0 -31.668 6.33496 -43.001 19.002s-17 27 -17 43c0 17.333 5.83301 32.166 17.5 44.499s25.834 18.5 42.501 18.5c18 0 32.667 -6.33301 44 -19s17 -27.334 17 -44.001c0 -17.333 -6 -32 -18 -44s-26.333 -18 -43 -18zM401.998 554.002
c-16.667 0 -30.999 6.00195 -42.999 18.002s-18 26.667 -18 44s5.83301 32.166 17.5 44.499s26.167 18.5 43.5 18.5c18 0 32.5 -6.33301 43.5 -19s16.5 -27.334 16.5 -44.001s-5.83301 -31.167 -17.5 -43.5s-25.834 -18.5 -42.501 -18.5zM212.999 -229.996
c-10 0 -18.667 3.49902 -26 10.499s-11 15.833 -11 26.5c0 4.66699 1 9.66699 3 15l84 204l-171 415c-2 5.33301 -3 10 -3 14c0 10.667 4.16699 19.834 12.5 27.501s16.833 11.5 25.5 11.5c16 0 27 -8 33 -24l143 -348l143 348c6 16 17 24 33 24c10 0 18.833 -4 26.5 -12
s11.5 -17 11.5 -27c0 -4 -1 -8.66699 -3 -14l-267 -648c-6.66699 -15.333 -18 -23 -34 -23z" />
    <glyph glyph-name="Amacron" unicode="&#x100;" 
d="M144 807c-8 0 -14.835 3 -20.502 9s-8.83398 13.333 -9.50098 22c0.666992 8 3.83398 15 9.50098 21s12.5 9 20.5 9h277c8.66699 0 15.834 -3 21.501 -9s8.83398 -13.333 9.50098 -22c-0.666992 -8 -4 -14.833 -10 -20.5s-12.667 -8.5 -20 -8.5zM37.998 0
c-10 0 -18.667 3.5 -26 10.5s-11 16.167 -11 27.5l248 678c6 15.333 17.333 23 34 23c17.333 0 28.666 -7.66699 33.999 -23l248 -678c0 -12 -3.66699 -21.333 -11 -28s-16 -10 -26 -10c-16 0 -27.333 8 -34 24l-62 167h-298l-62 -167c-7.33301 -16 -18.666 -24 -33.999 -24
zM161.998 266h242l-121 328z" />
    <glyph glyph-name="amacron" unicode="&#x101;" 
d="M149 561c-8 0 -14.835 3 -20.502 9s-8.83398 13.333 -9.50098 22c0.666992 8 3.83398 15 9.50098 21s12.5 9 20.5 9h277c8.66699 0 15.834 -3 21.501 -9s8.83398 -13.333 9.50098 -22c-0.666992 -8 -4 -14.833 -10 -20.5s-12.667 -8.5 -20 -8.5zM227.998 0
c-51.333 0 -91.499 13.3311 -120.499 39.998s-43.5 61.334 -43.5 104.001c0 43.333 15 78.333 45 105s69.333 40.334 118 41.001c101.333 0.666992 158.333 4.66699 171 12c10 9.33301 15 20 15 32c0 23.333 -12.167 44 -36.5 62s-54.5 27 -90.5 27
c-27.333 0 -52.5 -6 -75.5 -18s-40.5 -29.333 -52.5 -52c-6.66699 -14 -17 -21 -31 -21c-24 0 -36 11.667 -36 35c0 31.333 22 60.166 66 86.499s89 39.5 135 39.5c48 0 91.667 -15.167 131 -45.5s59 -68.166 59 -113.499v-299c0 -10.667 -3.5 -19.167 -10.5 -25.5
s-15.167 -9.5 -24.5 -9.5s-17.333 3.33301 -24 10s-10 15 -10 25v46c-21.333 -28 -48.833 -48.5 -82.5 -61.5s-67.834 -19.5 -102.501 -19.5zM241.999 70.998c50.667 0 91.833 11.668 123.5 35.001s47.5 56.666 47.5 99.999v47c-16 -8.66699 -35 -14 -57 -16
s-61.333 -3.66699 -118 -5c-68 -1.33301 -102 -29 -102 -83c0 -52 35.333 -78 106 -78z" />
    <glyph glyph-name="Abreve" unicode="&#x102;" 
d="M282 806c-35.333 0 -66.3359 11.3311 -93.0029 33.998s-43.334 51.334 -50.001 86.001c-2 9.33301 -0.166992 17.666 5.5 24.999s13.167 11 22.5 11c7.33301 0 14 -2.33301 20 -7s9.33301 -10.334 10 -17.001c4.66699 -21.333 14.834 -38.666 30.501 -51.999
s33.834 -20 54.501 -20c21.333 0 39.833 6.66699 55.5 20s25.834 30.666 30.501 51.999c0.666992 6.66699 3.83398 12.334 9.50098 17.001s12.167 7 19.5 7c9.33301 0 17 -3.66699 23 -11s8 -15.666 6 -24.999c-6.66699 -35.333 -23.5 -64.166 -50.5 -86.499
s-58.167 -33.5 -93.5 -33.5zM37.9971 -0.00195312c-10 0 -18.667 3.5 -26 10.5s-11 16.167 -11 27.5l248 678c6 15.333 17.333 23 34 23c17.333 0 28.666 -7.66699 33.999 -23l248 -678c0 -12 -3.66699 -21.333 -11 -28s-16 -10 -26 -10c-16 0 -27.333 8 -34 24l-62 167
h-298l-62 -167c-7.33301 -16 -18.666 -24 -33.999 -24zM161.997 265.998h242l-121 328z" />
    <glyph glyph-name="abreve" unicode="&#x103;" 
d="M287 560c-35.333 0 -66.3359 11.3311 -93.0029 33.998s-43.334 51.334 -50.001 86.001c-2 9.33301 -0.166992 17.666 5.5 24.999s13.167 11 22.5 11c7.33301 0 14 -2.33301 20 -7s9.33301 -10.334 10 -17.001c4.66699 -21.333 14.834 -38.666 30.501 -51.999
s33.834 -20 54.501 -20c21.333 0 39.833 6.66699 55.5 20s25.834 30.666 30.501 51.999c0.666992 6.66699 3.83398 12.334 9.50098 17.001s12.167 7 19.5 7c9.33301 0 17 -3.66699 23 -11s8 -15.666 6 -24.999c-6.66699 -35.333 -23.5 -64.166 -50.5 -86.499
s-58.167 -33.5 -93.5 -33.5zM227.997 -0.00195312c-51.333 0 -91.499 13.3311 -120.499 39.998s-43.5 61.334 -43.5 104.001c0 43.333 15 78.333 45 105s69.333 40.334 118 41.001c101.333 0.666992 158.333 4.66699 171 12c10 9.33301 15 20 15 32
c0 23.333 -12.167 44 -36.5 62s-54.5 27 -90.5 27c-27.333 0 -52.5 -6 -75.5 -18s-40.5 -29.333 -52.5 -52c-6.66699 -14 -17 -21 -31 -21c-24 0 -36 11.667 -36 35c0 31.333 22 60.166 66 86.499s89 39.5 135 39.5c48 0 91.667 -15.167 131 -45.5s59 -68.166 59 -113.499
v-299c0 -10.667 -3.5 -19.167 -10.5 -25.5s-15.167 -9.5 -24.5 -9.5s-17.333 3.33301 -24 10s-10 15 -10 25v46c-21.333 -28 -48.833 -48.5 -82.5 -61.5s-67.834 -19.5 -102.501 -19.5zM241.998 70.9961c50.667 0 91.833 11.668 123.5 35.001s47.5 56.666 47.5 99.999v47
c-16 -8.66699 -35 -14 -57 -16s-61.333 -3.66699 -118 -5c-68 -1.33301 -102 -29 -102 -83c0 -52 35.333 -78 106 -78z" />
    <glyph glyph-name="Aogonek" unicode="&#x104;" 
d="M576 -151c6.66699 0 12.667 -2.5 18 -7.5s8 -11.167 8 -18.5c0 -11.333 -5.33301 -19.333 -16 -24c-15.333 -7.33301 -32.333 -11 -51 -11c-28 0 -50.167 8 -66.5 24s-24.5 37.333 -24.5 64c0 34 17.667 81.333 53 142l-3 6l-62 167h-298l-62 -167
c-7.33301 -16 -18.666 -24 -33.999 -24c-10 0 -18.667 3.5 -26 10.5s-11 16.167 -11 27.5l248 678c6 15.333 17.333 23 34 23c17.333 0 28.666 -7.66699 33.999 -23l248 -678c0 -17.333 -7.66699 -29.333 -23 -36c-32.667 -51.333 -49 -91 -49 -119
c0 -28.667 14.667 -43 44 -43c6.66699 0 14.5 1.5 23.5 4.5s14.167 4.5 15.5 4.5zM162 266h242l-121 328z" />
    <glyph glyph-name="aogonek" unicode="&#x105;" 
d="M493 -154c7.33301 0 13.501 -2.66699 18.501 -8s7.5 -11.333 7.5 -18c0 -11.333 -5.33301 -19.333 -16 -24c-15.333 -7.33301 -32.333 -11 -51 -11c-28 0 -50.167 8 -66.5 24s-24.5 37.333 -24.5 64c0 36 18.667 84.667 56 146c-2.66699 3.33301 -4 8.66602 -4 15.999v46
c-21.333 -28 -48.833 -48.5 -82.5 -61.5s-67.834 -19.5 -102.501 -19.5c-51.333 0 -91.5 13.333 -120.5 40s-43.5 61.334 -43.5 104.001c0 43.333 15 78.333 45 105s69.333 40.334 118 41.001c101.333 0.666992 158.333 4.66699 171 12c10 9.33301 15 20 15 32
c0 23.333 -12.167 44 -36.5 62s-54.5 27 -90.5 27c-27.333 0 -52.5 -6 -75.5 -18s-40.5 -29.333 -52.5 -52c-6.66699 -14 -17 -21 -31 -21c-24 0 -36 11.667 -36 35c0 31.333 22 60.166 66 86.499s89 39.5 135 39.5c48 0 91.667 -15.167 131 -45.5s59 -68.166 59 -113.499
v-299c0 -14.667 -7 -25.334 -21 -32.001c-34 -54 -51 -95 -51 -123c0 -28.667 14.667 -43 44 -43c6.66699 0 14.5 1.5 23.5 4.5s14.167 4.5 15.5 4.5zM413.001 206l-0.000976562 47.001c-16 -8.66699 -35 -14 -57 -16s-61.333 -3.66699 -118 -5
c-68 -1.33301 -102 -29 -102 -83c0 -52 35.333 -78 106 -78c50.667 0 91.834 11.667 123.501 35s47.5 56.666 47.5 99.999z" />
    <glyph glyph-name="Cacute" unicode="&#x106;" 
d="M291 798c-9.33301 0 -17.5 3.66797 -24.5 11.001s-10.5 16 -10.5 26c0 8.66699 3.33301 16 10 22l89 95c6.66699 8.66699 15 13 25 13c9.33301 0 17.833 -3.83301 25.5 -11.5s11.5 -16.5 11.5 -26.5c0 -8.66699 -3.33301 -16.334 -10 -23.001l-89 -95
c-7.33301 -7.33301 -16.333 -11 -27 -11zM293 0.000976562c-58 0 -107.333 21.5 -148 64.5s-61 94.167 -61 153.5v303c0 59.333 20.333 110.5 61 153.5s90 64.5 148 64.5s107.333 -21.5 148 -64.5s61 -94.167 61 -153.5c0 -11.333 -3.66699 -20.5 -11 -27.5
s-15.666 -10.5 -24.999 -10.5c-10 0 -18.5 3.66699 -25.5 11s-10.5 16.333 -10.5 27c0 38.667 -13.333 72 -40 100s-59 42 -97 42c-38.667 0 -71.167 -14.167 -97.5 -42.5s-39.5 -61.5 -39.5 -99.5v-303c0 -38.667 13.333 -72.167 40 -100.5s59 -42.5 97 -42.5
c39.333 0 72 14.167 98 42.5s39 61.833 39 100.5c0 11.333 3.66699 20.333 11 27s15.666 10 24.999 10c10 0 18.5 -3.5 25.5 -10.5s10.5 -15.833 10.5 -26.5c0 -59.333 -20.333 -110.5 -61 -153.5s-90 -64.5 -148 -64.5z" />
    <glyph glyph-name="cacute" unicode="&#x107;" 
d="M312 552c-9.33301 0 -17.5 3.66797 -24.5 11.001s-10.5 16 -10.5 26c0 8.66699 3.33301 16 10 22l89 95c6.66699 8.66699 15 13 25 13c9.33301 0 17.833 -3.83301 25.5 -11.5s11.5 -16.5 11.5 -26.5c0 -8.66699 -3.33301 -16.334 -10 -23.001l-89 -95
c-7.33301 -7.33301 -16.333 -11 -27 -11zM313 0.000976562c-58 0 -107.833 21.668 -149.5 65.001s-62.5 93.666 -62.5 150.999v61c0 60 21.167 111 63.5 153s92.166 63 149.499 63c38.667 0 74.834 -10.167 108.501 -30.5s59.5 -47.5 77.5 -81.5
c3.33301 -6.66699 5 -12.667 5 -18c0 -9.33301 -3.66699 -17.666 -11 -24.999s-16 -11 -26 -11c-7.33301 0 -13.5 1.66699 -18.5 5s-11 10.166 -18 20.499s-10.833 15.833 -11.5 16.5c-26.667 33.333 -62 50 -106 50c-38.667 0 -71.667 -14 -99 -42s-41 -61.333 -41 -100
v-61c0 -39.333 13.667 -72.833 41 -100.5s60.333 -41.5 99 -41.5c48.667 0 87.334 21.333 116.001 64c8.66699 19.333 21.667 29 39 29c9.33301 0 17.666 -3.83301 24.999 -11.5s11 -16.167 11 -25.5c0 -6.66699 -1.66699 -12.667 -5 -18c-18 -34 -44 -61.167 -78 -81.5
s-70.333 -30.5 -109 -30.5z" />
    <glyph glyph-name="Cdotaccent" unicode="&#x10a;" 
d="M293 799c-16.667 0 -30.999 6.00195 -42.999 18.002s-18 26.667 -18 44s5.83301 32.166 17.5 44.499s26.167 18.5 43.5 18.5c18 0 32.5 -6.33301 43.5 -19s16.5 -27.334 16.5 -44.001s-5.83301 -31.167 -17.5 -43.5s-25.834 -18.5 -42.501 -18.5zM293.001 0.00195312
c-58 0 -107.333 21.5 -148 64.5s-61 94.167 -61 153.5v303c0 59.333 20.333 110.5 61 153.5s90 64.5 148 64.5s107.333 -21.5 148 -64.5s61 -94.167 61 -153.5c0 -11.333 -3.66699 -20.5 -11 -27.5s-15.666 -10.5 -24.999 -10.5c-10 0 -18.5 3.66699 -25.5 11
s-10.5 16.333 -10.5 27c0 38.667 -13.333 72 -40 100s-59 42 -97 42c-38.667 0 -71.167 -14.167 -97.5 -42.5s-39.5 -61.5 -39.5 -99.5v-303c0 -38.667 13.333 -72.167 40 -100.5s59 -42.5 97 -42.5c39.333 0 72 14.167 98 42.5s39 61.833 39 100.5
c0 11.333 3.66699 20.333 11 27s15.666 10 24.999 10c10 0 18.5 -3.5 25.5 -10.5s10.5 -15.833 10.5 -26.5c0 -59.333 -20.333 -110.5 -61 -153.5s-90 -64.5 -148 -64.5z" />
    <glyph glyph-name="cdotaccent" unicode="&#x10b;" 
d="M314 553c-16.667 0 -30.999 6.00195 -42.999 18.002s-18 26.667 -18 44s5.83301 32.166 17.5 44.499s26.167 18.5 43.5 18.5c18 0 32.5 -6.33301 43.5 -19s16.5 -27.334 16.5 -44.001s-5.83301 -31.167 -17.5 -43.5s-25.834 -18.5 -42.501 -18.5zM313.001 0.00195312
c-58 0 -107.833 21.668 -149.5 65.001s-62.5 93.666 -62.5 150.999v61c0 60 21.167 111 63.5 153s92.166 63 149.499 63c38.667 0 74.834 -10.167 108.501 -30.5s59.5 -47.5 77.5 -81.5c3.33301 -6.66699 5 -12.667 5 -18c0 -9.33301 -3.66699 -17.666 -11 -24.999
s-16 -11 -26 -11c-7.33301 0 -13.5 1.66699 -18.5 5s-11 10.166 -18 20.499s-10.833 15.833 -11.5 16.5c-26.667 33.333 -62 50 -106 50c-38.667 0 -71.667 -14 -99 -42s-41 -61.333 -41 -100v-61c0 -39.333 13.667 -72.833 41 -100.5s60.333 -41.5 99 -41.5
c48.667 0 87.334 21.333 116.001 64c8.66699 19.333 21.667 29 39 29c9.33301 0 17.666 -3.83301 24.999 -11.5s11 -16.167 11 -25.5c0 -6.66699 -1.66699 -12.667 -5 -18c-18 -34 -44 -61.167 -78 -81.5s-70.333 -30.5 -109 -30.5z" />
    <glyph glyph-name="Ccaron" unicode="&#x10c;" 
d="M293 800c-8.66699 0 -17 3.66699 -25 11l-101 101c-8.66699 8.66699 -13 17 -13 25c0 8.66699 3 16 9 22s13.333 9 22 9c8 0 15 -3 21 -9l87 -87l87 87c6 6 13 9 21 9s15.167 -2.83301 21.5 -8.5s9.5 -13.167 9.5 -22.5c0 -8 -4.33301 -16.333 -13 -25l-102 -101
c-8 -7.33301 -16 -11 -24 -11zM293 0c-58 0 -107.333 21.5 -148 64.5s-61 94.167 -61 153.5v303c0 59.333 20.333 110.5 61 153.5s90 64.5 148 64.5s107.333 -21.5 148 -64.5s61 -94.167 61 -153.5c0 -11.333 -3.66699 -20.5 -11 -27.5s-15.666 -10.5 -24.999 -10.5
c-10 0 -18.5 3.66699 -25.5 11s-10.5 16.333 -10.5 27c0 38.667 -13.333 72 -40 100s-59 42 -97 42c-38.667 0 -71.167 -14.167 -97.5 -42.5s-39.5 -61.5 -39.5 -99.5v-303c0 -38.667 13.333 -72.167 40 -100.5s59 -42.5 97 -42.5c39.333 0 72 14.167 98 42.5
s39 61.833 39 100.5c0 11.333 3.66699 20.333 11 27s15.666 10 24.999 10c10 0 18.5 -3.5 25.5 -10.5s10.5 -15.833 10.5 -26.5c0 -59.333 -20.333 -110.5 -61 -153.5s-90 -64.5 -148 -64.5z" />
    <glyph glyph-name="ccaron" unicode="&#x10d;" 
d="M314 554c-8.66699 0 -17 3.66699 -25 11l-101 101c-8.66699 8.66699 -13 17 -13 25c0 8.66699 3 16 9 22s13.333 9 22 9c8 0 15 -3 21 -9l87 -87l87 87c6 6 13 9 21 9s15.167 -2.83301 21.5 -8.5s9.5 -13.167 9.5 -22.5c0 -8 -4.33301 -16.333 -13 -25l-102 -101
c-8 -7.33301 -16 -11 -24 -11zM313 0c-58 0 -107.833 21.668 -149.5 65.001s-62.5 93.666 -62.5 150.999v61c0 60 21.167 111 63.5 153s92.166 63 149.499 63c38.667 0 74.834 -10.167 108.501 -30.5s59.5 -47.5 77.5 -81.5c3.33301 -6.66699 5 -12.667 5 -18
c0 -9.33301 -3.66699 -17.666 -11 -24.999s-16 -11 -26 -11c-7.33301 0 -13.5 1.66699 -18.5 5s-11 10.166 -18 20.499s-10.833 15.833 -11.5 16.5c-26.667 33.333 -62 50 -106 50c-38.667 0 -71.667 -14 -99 -42s-41 -61.333 -41 -100v-61
c0 -39.333 13.667 -72.833 41 -100.5s60.333 -41.5 99 -41.5c48.667 0 87.334 21.333 116.001 64c8.66699 19.333 21.667 29 39 29c9.33301 0 17.666 -3.83301 24.999 -11.5s11 -16.167 11 -25.5c0 -6.66699 -1.66699 -12.667 -5 -18c-18 -34 -44 -61.167 -78 -81.5
s-70.333 -30.5 -109 -30.5z" />
    <glyph glyph-name="Dcaron" unicode="&#x10e;" 
d="M283 800c-8.66699 0 -17 3.66699 -25 11l-101 101c-8.66699 8.66699 -13 17 -13 25c0 8.66699 3 16 9 22s13.333 9 22 9c8 0 15 -3 21 -9l87 -87l87 87c6 6 13 9 21 9s15.167 -2.83301 21.5 -8.5s9.5 -13.167 9.5 -22.5c0 -8 -4.33301 -16.333 -13 -25l-102 -101
c-8 -7.33301 -16 -11 -24 -11zM122 0c-10 0 -18.499 3.66699 -25.499 11s-10.5 16.333 -10.5 27v663c0 11.333 3.66699 20.5 11 27.5s15.666 10.5 24.999 10.5h173c58 0 107.333 -21.5 148 -64.5s61 -94.167 61 -153.5v-303c0 -59.333 -20.333 -110.5 -61 -153.5
s-90 -64.5 -148 -64.5h-173zM158.001 75h137c37.333 0 69.5 14.333 96.5 43s40.5 62 40.5 100v303c0 39.333 -13.667 73 -41 101s-59.333 42 -96 42h-137v-589z" />
    <glyph glyph-name="dcaron" unicode="&#x10f;" 
d="M239 0c-56.667 0 -105.5 21.5 -146.5 64.5s-61.5 94.833 -61.5 155.5v52c0 62 21.333 114.333 64 157s92.334 64 149.001 64c51.333 0 97.333 -18.333 138 -55v264c0 10 3.66699 18.667 11 26s16 11 26 11c9.33301 0 17.666 -3.5 24.999 -10.5s11 -15.833 11 -26.5v-664
c0 -10.667 -3.5 -19.667 -10.5 -27s-15.5 -11 -25.5 -11c-10.667 0 -19.5 3.66699 -26.5 11s-10.5 16.333 -10.5 27v16c-40 -36 -87.667 -54 -143 -54zM528 543c-8.66699 0 -15.834 2.83301 -21.501 8.5s-8.5 12.834 -8.5 21.501v136c0 8.66699 2.83301 15.834 8.5 21.501
s12.834 8.5 21.501 8.5h4c8.66699 0 15.834 -2.83301 21.501 -8.5s8.5 -12.834 8.5 -21.501v-136c0 -8.66699 -2.83301 -15.834 -8.5 -21.501s-12.834 -8.5 -21.501 -8.5h-4zM244 76c38 0 70.5 13.668 97.5 41.001s40.5 61.666 40.5 102.999v52c0 40.667 -13.5 75 -40.5 103
s-59.5 42 -97.5 42c-38.667 0 -71.667 -13.667 -99 -41s-41 -62 -41 -104v-52c0 -40 13.833 -74 41.5 -102s60.5 -42 98.5 -42z" />
    <glyph glyph-name="Dcroat" unicode="&#x110;" 
d="M295 739c58 0 107.334 -21.5 148.001 -64.5s61 -94.167 61 -153.5v-303c0 -59.333 -20.333 -110.5 -61 -153.5s-90 -64.5 -148 -64.5h-173c-10 0 -18.5 3.66699 -25.5 11s-10.5 16.333 -10.5 27v301h-49c-8 0 -15 3.16699 -21 9.5s-9 13.5 -9 21.5s3 15 9 21s13 9 21 9
h49v301c0 11.333 3.66699 20.5 11 27.5s15.666 10.5 24.999 10.5h173zM432.001 218v303c0 39.333 -13.667 73 -41 101s-59.333 42 -96 42h-137v-264h125c8 0 14.833 -3 20.5 -9s9.16699 -13.333 10.5 -22c-0.666992 -8 -4 -14.833 -10 -20.5s-13 -8.5 -21 -8.5l-125 -1v-264
h137c37.333 0 69.5 14.333 96.5 43s40.5 62 40.5 100z" />
    <glyph glyph-name="dcroat" unicode="&#x111;" 
d="M528 651c8 0 14.833 -3 20.5 -9s9.16699 -13.333 10.5 -22c-0.666992 -8 -4 -14.833 -10 -20.5s-13 -8.5 -21 -8.5h-43v-553c0 -10.667 -3.5 -19.667 -10.5 -27s-15.5 -11 -25.5 -11c-10.667 0 -19.5 3.66699 -26.5 11s-10.5 16.333 -10.5 27v16
c-40 -36 -87.667 -54 -143 -54c-56.667 0 -105.5 21.5 -146.5 64.5s-61.5 94.833 -61.5 155.5v52c0 62 21.333 114.333 64 157s92.334 64 149.001 64c51.333 0 97.333 -18.333 138 -55v153l-130 -1c-8 0 -15 3.16699 -21 9.5s-9 13.5 -9 21.5s3 15 9 21s13 9 21 9h130v51
c0 10 3.66699 18.667 11 26s16 11 26 11c9.33301 0 17.666 -3.5 24.999 -10.5s11 -15.833 11 -26.5v-51h43zM412 220v52.001c0 40.667 -13.5 75 -40.5 103s-59.5 42 -97.5 42c-38.667 0 -71.667 -13.667 -99 -41s-41 -62 -41 -104v-52c0 -40 13.833 -74 41.5 -102
s60.5 -42 98.5 -42s70.5 13.667 97.5 41s40.5 61.666 40.5 102.999z" />
    <glyph glyph-name="Emacron" unicode="&#x112;" 
d="M144 807c-8 0 -14.835 3 -20.502 9s-8.83398 13.333 -9.50098 22c0.666992 8 3.83398 15 9.50098 21s12.5 9 20.5 9h277c8.66699 0 15.834 -3 21.501 -9s8.83398 -13.333 9.50098 -22c-0.666992 -8 -4 -14.833 -10 -20.5s-12.667 -8.5 -20 -8.5zM114.998 0
c-9.33301 0 -17.501 3.66797 -24.501 11.001s-10.5 16.333 -10.5 27v663c0 10 3.33301 18.833 10 26.5s15 11.5 25 11.5h366c9.33301 0 17.5 -3.83301 24.5 -11.5s10.5 -16.834 10.5 -27.501s-3.5 -19.5 -10.5 -26.5s-15.167 -10.5 -24.5 -10.5h-330v-256h256
c10 0 18.5 -3.66699 25.5 -11s10.5 -16.333 10.5 -27s-3.66699 -19.5 -11 -26.5s-15.666 -10.5 -24.999 -10.5h-256v-257h330c9.33301 0 17.5 -3.66699 24.5 -11s10.5 -16.333 10.5 -27s-3.66699 -19.5 -11 -26.5s-15.333 -10.5 -24 -10.5h-366z" />
    <glyph glyph-name="emacron" unicode="&#x113;" 
d="M157 561c-8 0 -14.835 3 -20.502 9s-8.83398 13.333 -9.50098 22c0.666992 8 3.83398 15 9.50098 21s12.5 9 20.5 9h277c8.66699 0 15.834 -3 21.501 -9s8.83398 -13.333 9.50098 -22c-0.666992 -8 -4 -14.833 -10 -20.5s-12.667 -8.5 -20 -8.5zM291.998 0
c-58 0 -108.001 21.334 -150.001 64.001s-63 93.334 -63 152.001v61c0 59.333 21 110.166 63 152.499s93.333 63.5 154 63.5c63.333 0 114.333 -22.833 153 -68.5s58 -102.167 58 -169.5c0 -14 -3.5 -24.5 -10.5 -31.5s-15.833 -10.5 -26.5 -10.5h-317
c0 -39.333 14.167 -72.333 42.5 -99s62.166 -40 101.499 -40c28 0 50.5 6.33301 67.5 19s34.167 31 51.5 55c8.66699 12.667 19 19 31 19c9.33301 0 18 -3.33301 26 -10s12 -14.334 12 -23.001c0 -6.66699 -1.66699 -14 -5 -22c-11.333 -28.667 -35.166 -54.5 -71.499 -77.5
s-75.166 -34.5 -116.499 -34.5zM152.997 287.001h278c-6 42.667 -21.167 75.334 -45.5 98.001s-54.5 34 -90.5 34c-39.333 0 -72.333 -12.833 -99 -38.5s-41 -56.834 -43 -93.501z" />
    <glyph glyph-name="Edotaccent" unicode="&#x116;" 
d="M283 799c-16.667 0 -30.999 6.00195 -42.999 18.002s-18 26.667 -18 44s5.83301 32.166 17.5 44.499s26.167 18.5 43.5 18.5c18 0 32.5 -6.33301 43.5 -19s16.5 -27.334 16.5 -44.001s-5.83301 -31.167 -17.5 -43.5s-25.834 -18.5 -42.501 -18.5zM115.001 0.00195312
c-9.33301 0 -17.501 3.66797 -24.501 11.001s-10.5 16.333 -10.5 27v663c0 10 3.33301 18.833 10 26.5s15 11.5 25 11.5h366c9.33301 0 17.5 -3.83301 24.5 -11.5s10.5 -16.834 10.5 -27.501s-3.5 -19.5 -10.5 -26.5s-15.167 -10.5 -24.5 -10.5h-330v-256h256
c10 0 18.5 -3.66699 25.5 -11s10.5 -16.333 10.5 -27s-3.66699 -19.5 -11 -26.5s-15.666 -10.5 -24.999 -10.5h-256v-257h330c9.33301 0 17.5 -3.66699 24.5 -11s10.5 -16.333 10.5 -27s-3.66699 -19.5 -11 -26.5s-15.333 -10.5 -24 -10.5h-366z" />
    <glyph glyph-name="edotaccent" unicode="&#x117;" 
d="M296 553c-16.667 0 -30.999 6.00195 -42.999 18.002s-18 26.667 -18 44s5.83301 32.166 17.5 44.499s26.167 18.5 43.5 18.5c18 0 32.5 -6.33301 43.5 -19s16.5 -27.334 16.5 -44.001s-5.83301 -31.167 -17.5 -43.5s-25.834 -18.5 -42.501 -18.5zM292.001 0.00195312
c-58 0 -108.001 21.334 -150.001 64.001s-63 93.334 -63 152.001v61c0 59.333 21 110.166 63 152.499s93.333 63.5 154 63.5c63.333 0 114.333 -22.833 153 -68.5s58 -102.167 58 -169.5c0 -14 -3.5 -24.5 -10.5 -31.5s-15.833 -10.5 -26.5 -10.5h-317
c0 -39.333 14.167 -72.333 42.5 -99s62.166 -40 101.499 -40c28 0 50.5 6.33301 67.5 19s34.167 31 51.5 55c8.66699 12.667 19 19 31 19c9.33301 0 18 -3.33301 26 -10s12 -14.334 12 -23.001c0 -6.66699 -1.66699 -14 -5 -22c-11.333 -28.667 -35.166 -54.5 -71.499 -77.5
s-75.166 -34.5 -116.499 -34.5zM153 287.003h278c-6 42.667 -21.167 75.334 -45.5 98.001s-54.5 34 -90.5 34c-39.333 0 -72.333 -12.833 -99 -38.5s-41 -56.834 -43 -93.501z" />
    <glyph glyph-name="Eogonek" unicode="&#x118;" 
d="M492 -189c6.66699 0 12.666 -2.49902 17.999 -7.49902s8 -11.167 8 -18.5c0 -11.333 -5.33301 -19.333 -16 -24c-15.333 -7.33301 -32.333 -11 -51 -11c-28 0 -50.167 8 -66.5 24s-24.5 37.333 -24.5 64c0 38.667 22 92.667 66 162h-311
c-9.33301 0 -17.5 3.66699 -24.5 11s-10.5 16.333 -10.5 27v663c0 10 3.33301 18.833 10 26.5s15 11.5 25 11.5h366c9.33301 0 17.5 -3.83301 24.5 -11.5s10.5 -16.834 10.5 -27.501s-3.5 -19.5 -10.5 -26.5s-15.167 -10.5 -24.5 -10.5h-330v-256h256
c10 0 18.5 -3.66699 25.5 -11s10.5 -16.333 10.5 -27s-3.66699 -19.5 -11 -26.5s-15.666 -10.5 -24.999 -10.5h-256v-257h330c9.33301 0 17.5 -3.66699 24.5 -11s10.5 -16.333 10.5 -27s-3.66699 -19.5 -11 -26.5s-15.333 -10.5 -24 -10.5c-48 -69.333 -72 -121 -72 -155
c0 -28.667 14.667 -43 44 -43c6.66699 0 14.5 1.5 23.5 4.5s14.167 4.5 15.5 4.5z" />
    <glyph glyph-name="eogonek" unicode="&#x119;" 
d="M507 255c0 -14 -3.49902 -24.499 -10.499 -31.499s-15.833 -10.5 -26.5 -10.5h-317c0 -39.333 14.167 -72.333 42.5 -99s62.166 -40 101.499 -40c28 0 50.5 6.33301 67.5 19s34.167 31 51.5 55c8.66699 12.667 19 19 31 19c9.33301 0 18 -3.33301 26 -10
s12 -14.334 12 -23.001c0 -6.66699 -1.66699 -14 -5 -22c-7.33301 -18 -19.833 -35.167 -37.5 -51.5s-38.5 -29.833 -62.5 -40.5c-42.667 -64 -64 -112 -64 -144c0 -28.667 14.667 -43 44 -43c6.66699 0 14.5 1.5 23.5 4.5s14.167 4.5 15.5 4.5
c7.33301 0 13.5 -2.66699 18.5 -8s7.5 -11.333 7.5 -18c0 -11.333 -5.33301 -19.333 -16 -24c-15.333 -7.33301 -32.333 -11 -51 -11c-28 0 -50.167 8 -66.5 24s-24.5 37.333 -24.5 64c0 35.333 16 79.333 48 132c-5.33301 -0.666992 -13 -1 -23 -1
c-58 -0 -108 21.333 -150 64s-63 93.334 -63 152.001v61c0 59.333 21 110.166 63 152.499s93.333 63.5 154 63.5c63.333 0 114.333 -22.833 153 -68.5s58 -102.167 58 -169.5zM153.001 287.001h278c-6 42.667 -21.167 75.334 -45.5 98.001s-54.5 34 -90.5 34
c-39.333 0 -72.333 -12.833 -99 -38.5s-41 -56.834 -43 -93.501z" />
    <glyph glyph-name="Ecaron" unicode="&#x11a;" 
d="M283 800c-8.66699 0 -17 3.66699 -25 11l-101 101c-8.66699 8.66699 -13 17 -13 25c0 8.66699 3 16 9 22s13.333 9 22 9c8 0 15 -3 21 -9l87 -87l87 87c6 6 13 9 21 9s15.167 -2.83301 21.5 -8.5s9.5 -13.167 9.5 -22.5c0 -8 -4.33301 -16.333 -13 -25l-102 -101
c-8 -7.33301 -16 -11 -24 -11zM115 0c-9.33301 0 -17.501 3.66797 -24.501 11.001s-10.5 16.333 -10.5 27v663c0 10 3.33301 18.833 10 26.5s15 11.5 25 11.5h366c9.33301 0 17.5 -3.83301 24.5 -11.5s10.5 -16.834 10.5 -27.501s-3.5 -19.5 -10.5 -26.5
s-15.167 -10.5 -24.5 -10.5h-330v-256h256c10 0 18.5 -3.66699 25.5 -11s10.5 -16.333 10.5 -27s-3.66699 -19.5 -11 -26.5s-15.666 -10.5 -24.999 -10.5h-256v-257h330c9.33301 0 17.5 -3.66699 24.5 -11s10.5 -16.333 10.5 -27s-3.66699 -19.5 -11 -26.5
s-15.333 -10.5 -24 -10.5h-366z" />
    <glyph glyph-name="ecaron" unicode="&#x11b;" 
d="M296 554c-8.66699 0 -17 3.66699 -25 11l-101 101c-8.66699 8.66699 -13 17 -13 25c0 8.66699 3 16 9 22s13.333 9 22 9c8 0 15 -3 21 -9l87 -87l87 87c6 6 13 9 21 9s15.167 -2.83301 21.5 -8.5s9.5 -13.167 9.5 -22.5c0 -8 -4.33301 -16.333 -13 -25l-102 -101
c-8 -7.33301 -16 -11 -24 -11zM292 0c-58 0 -108.001 21.334 -150.001 64.001s-63 93.334 -63 152.001v61c0 59.333 21 110.166 63 152.499s93.333 63.5 154 63.5c63.333 0 114.333 -22.833 153 -68.5s58 -102.167 58 -169.5c0 -14 -3.5 -24.5 -10.5 -31.5
s-15.833 -10.5 -26.5 -10.5h-317c0 -39.333 14.167 -72.333 42.5 -99s62.166 -40 101.499 -40c28 0 50.5 6.33301 67.5 19s34.167 31 51.5 55c8.66699 12.667 19 19 31 19c9.33301 0 18 -3.33301 26 -10s12 -14.334 12 -23.001c0 -6.66699 -1.66699 -14 -5 -22
c-11.333 -28.667 -35.166 -54.5 -71.499 -77.5s-75.166 -34.5 -116.499 -34.5zM152.999 287.001h278c-6 42.667 -21.167 75.334 -45.5 98.001s-54.5 34 -90.5 34c-39.333 0 -72.333 -12.833 -99 -38.5s-41 -56.834 -43 -93.501z" />
    <glyph glyph-name="Gbreve" unicode="&#x11e;" 
d="M282 806c-35.333 0 -66.3359 11.3311 -93.0029 33.998s-43.334 51.334 -50.001 86.001c-2 9.33301 -0.166992 17.666 5.5 24.999s13.167 11 22.5 11c7.33301 0 14 -2.33301 20 -7s9.33301 -10.334 10 -17.001c4.66699 -21.333 14.834 -38.666 30.501 -51.999
s33.834 -20 54.501 -20c21.333 0 39.833 6.66699 55.5 20s25.834 30.666 30.501 51.999c0.666992 6.66699 3.83398 12.334 9.50098 17.001s12.167 7 19.5 7c9.33301 0 17 -3.66699 23 -11s8 -15.666 6 -24.999c-6.66699 -35.333 -23.5 -64.166 -50.5 -86.499
s-58.167 -33.5 -93.5 -33.5zM282.997 -0.00195312c-58 0 -107.334 21.501 -148.001 64.501s-61 94.167 -61 153.5v303c0 60.667 20.667 112.167 62 154.5s90.333 63.5 147 63.5c58.667 0 108.167 -19.833 148.5 -59.5s60.5 -89.167 60.5 -148.5
c0 -11.333 -3.66699 -20.5 -11 -27.5s-15.666 -10.5 -24.999 -10.5c-10 0 -18.5 3.66699 -25.5 11s-10.5 16.333 -10.5 27c0 37.333 -13.167 68.666 -39.5 93.999s-58.833 38 -97.5 38s-71.167 -14.167 -97.5 -42.5s-39.5 -61.5 -39.5 -99.5v-303
c0 -38.667 13.333 -72.167 40 -100.5s59 -42.5 97 -42.5s70.333 14 97 42s40 61.667 40 101v74h-117c-9.33301 0 -17.666 3.66699 -24.999 11s-11 16 -11 26c0 11.333 3.66699 20.5 11 27.5s15.666 10.5 24.999 10.5h153c10 0 18.5 -3.66699 25.5 -11s10.5 -16.333 10.5 -27
v-111c0 -59.333 -20.333 -110.5 -61 -153.5s-90 -64.5 -148 -64.5z" />
    <glyph glyph-name="gbreve" unicode="&#x11f;" 
d="M286 561c-35.333 0 -66.3359 11.3311 -93.0029 33.998s-43.334 51.334 -50.001 86.001c-2 9.33301 -0.166992 17.666 5.5 24.999s13.167 11 22.5 11c7.33301 0 14 -2.33301 20 -7s9.33301 -10.334 10 -17.001c4.66699 -21.333 14.834 -38.666 30.501 -51.999
s33.834 -20 54.501 -20c21.333 0 39.833 6.66699 55.5 20s25.834 30.666 30.501 51.999c0.666992 6.66699 3.83398 12.334 9.50098 17.001s12.167 7 19.5 7c9.33301 0 17 -3.66699 23 -11s8 -15.666 6 -24.999c-6.66699 -35.333 -23.5 -64.166 -50.5 -86.499
s-58.167 -33.5 -93.5 -33.5zM176.997 -208.002c-32.667 0 -59.166 11.332 -79.499 33.999s-30.5 49.667 -30.5 81c0 36 14.333 65.333 43 88l15 12c-38.667 24.667 -58 61 -58 109s18 90 54 126c-8.66699 19.333 -13 42 -13 68c0 50.667 17.333 94 52 130s77 54 127 54
c49.333 0 91 -18.333 125 -55l75 68c6 5.33301 14 7 24 5c9.33301 -2 16.666 -6.33301 21.999 -13s8 -13.667 8 -21c0 -10.667 -5.66699 -21 -17 -31l-74 -68c8.66699 -19.333 13 -42 13 -68c0 -55.333 -16.833 -99.666 -50.5 -132.999s-76.167 -50 -127.5 -50
c-20 0 -41.833 4.66699 -65.5 14s-43.5 22.333 -59.5 39c-16 -20 -24 -40 -24 -60c0 -39.333 16.333 -59 49 -59h204c34 0 60.833 -11.5 80.5 -34.5s29.5 -50.833 29.5 -83.5c0 -40 -15 -75.333 -45 -106s-65.333 -46 -106 -46h-171zM284.998 198.997
c32.667 0 59.001 10.832 79.001 32.499s30 48.167 30 79.5c0 32.667 -10.667 59.334 -32 80.001s-47 31 -77 31c-32 0 -58 -11 -78 -33s-30 -48 -30 -78c0 -32 10.667 -58.667 32 -80s46.666 -32 75.999 -32zM176.999 -137.004l171 0.000976562c36 0 61.333 17 76 51
c8 21.333 8.5 39.333 1.5 54s-19.167 22 -36.5 22h-173l-64 -51c-10.667 -8.66699 -16 -19.334 -16 -32.001s4 -23.167 12 -31.5s17.667 -12.5 29 -12.5z" />
    <glyph glyph-name="Gdotaccent" unicode="&#x120;" 
d="M283 799c-16.667 0 -30.999 6.00195 -42.999 18.002s-18 26.667 -18 44s5.83301 32.166 17.5 44.499s26.167 18.5 43.5 18.5c18 0 32.5 -6.33301 43.5 -19s16.5 -27.334 16.5 -44.001s-5.83301 -31.167 -17.5 -43.5s-25.834 -18.5 -42.501 -18.5zM283.001 0.00195312
c-58 0 -107.334 21.501 -148.001 64.501s-61 94.167 -61 153.5v303c0 60.667 20.667 112.167 62 154.5s90.333 63.5 147 63.5c58.667 0 108.167 -19.833 148.5 -59.5s60.5 -89.167 60.5 -148.5c0 -11.333 -3.66699 -20.5 -11 -27.5s-15.666 -10.5 -24.999 -10.5
c-10 0 -18.5 3.66699 -25.5 11s-10.5 16.333 -10.5 27c0 37.333 -13.167 68.666 -39.5 93.999s-58.833 38 -97.5 38s-71.167 -14.167 -97.5 -42.5s-39.5 -61.5 -39.5 -99.5v-303c0 -38.667 13.333 -72.167 40 -100.5s59 -42.5 97 -42.5s70.333 14 97 42s40 61.667 40 101v74
h-117c-9.33301 0 -17.666 3.66699 -24.999 11s-11 16 -11 26c0 11.333 3.66699 20.5 11 27.5s15.666 10.5 24.999 10.5h153c10 0 18.5 -3.66699 25.5 -11s10.5 -16.333 10.5 -27v-111c0 -59.333 -20.333 -110.5 -61 -153.5s-90 -64.5 -148 -64.5z" />
    <glyph glyph-name="gdotaccent" unicode="&#x121;" 
d="M287 554c-16.667 0 -30.999 6.00195 -42.999 18.002s-18 26.667 -18 44s5.83301 32.166 17.5 44.499s26.167 18.5 43.5 18.5c18 0 32.5 -6.33301 43.5 -19s16.5 -27.334 16.5 -44.001s-5.83301 -31.167 -17.5 -43.5s-25.834 -18.5 -42.501 -18.5zM177.001 -207.998
c-32.667 0 -59.166 11.332 -79.499 33.999s-30.5 49.667 -30.5 81c0 36 14.333 65.333 43 88l15 12c-38.667 24.667 -58 61 -58 109s18 90 54 126c-8.66699 19.333 -13 42 -13 68c0 50.667 17.333 94 52 130s77 54 127 54c49.333 0 91 -18.333 125 -55l75 68
c6 5.33301 14 7 24 5c9.33301 -2 16.666 -6.33301 21.999 -13s8 -13.667 8 -21c0 -10.667 -5.66699 -21 -17 -31l-74 -68c8.66699 -19.333 13 -42 13 -68c0 -55.333 -16.833 -99.666 -50.5 -132.999s-76.167 -50 -127.5 -50c-20 0 -41.833 4.66699 -65.5 14
s-43.5 22.333 -59.5 39c-16 -20 -24 -40 -24 -60c0 -39.333 16.333 -59 49 -59h204c34 0 60.833 -11.5 80.5 -34.5s29.5 -50.833 29.5 -83.5c0 -40 -15 -75.333 -45 -106s-65.333 -46 -106 -46h-171zM285.002 199.001c32.667 0 59.001 10.832 79.001 32.499
s30 48.167 30 79.5c0 32.667 -10.667 59.334 -32 80.001s-47 31 -77 31c-32 0 -58 -11 -78 -33s-30 -48 -30 -78c0 -32 10.667 -58.667 32 -80s46.666 -32 75.999 -32zM177.003 -137l171 0.000976562c36 0 61.333 17 76 51c8 21.333 8.5 39.333 1.5 54s-19.167 22 -36.5 22
h-173l-64 -51c-10.667 -8.66699 -16 -19.334 -16 -32.001s4 -23.167 12 -31.5s17.667 -12.5 29 -12.5z" />
    <glyph glyph-name="Gcommaaccent" unicode="&#x122;" 
d="M283 0c-58 0 -107.334 21.501 -148.001 64.501s-61 94.167 -61 153.5v303c0 60.667 20.667 112.167 62 154.5s90.333 63.5 147 63.5c58.667 0 108.167 -19.833 148.5 -59.5s60.5 -89.167 60.5 -148.5c0 -11.333 -3.66699 -20.5 -11 -27.5s-15.666 -10.5 -24.999 -10.5
c-10 0 -18.5 3.66699 -25.5 11s-10.5 16.333 -10.5 27c0 37.333 -13.167 68.666 -39.5 93.999s-58.833 38 -97.5 38s-71.167 -14.167 -97.5 -42.5s-39.5 -61.5 -39.5 -99.5v-303c0 -38.667 13.333 -72.167 40 -100.5s59 -42.5 97 -42.5s70.333 14 97 42s40 61.667 40 101v74
h-117c-9.33301 0 -17.666 3.66699 -24.999 11s-11 16 -11 26c0 11.333 3.66699 20.5 11 27.5s15.666 10.5 24.999 10.5h153c10 0 18.5 -3.66699 25.5 -11s10.5 -16.333 10.5 -27v-111c0 -59.333 -20.333 -110.5 -61 -153.5s-90 -64.5 -148 -64.5zM239.999 -423.999
l-39.001 19l86 184c-20.667 1.33301 -38.167 9.5 -52.5 24.5s-21.5 33.167 -21.5 54.5c0 22 7.83301 40.667 23.5 56s33.167 23 52.5 23c20.667 0 38.334 -7.83301 53.001 -23.5s22 -34.167 22 -55.5v-79z" />
    <glyph glyph-name="gcommaaccent" unicode="&#x123;" 
d="M280 582c-20.667 0 -38.333 7.83301 -53 23.5s-22 34.167 -22 55.5v79l124 203l39 -19l-86 -184c20.667 -1.33301 38.167 -9.5 52.5 -24.5s21.5 -33.167 21.5 -54.5c0 -22 -7.83301 -40.667 -23.5 -56s-33.167 -23 -52.5 -23zM177.001 -208
c-32.667 0 -59.166 11.332 -79.499 33.999s-30.5 49.667 -30.5 81c0 36 14.333 65.333 43 88l15 12c-38.667 24.667 -58 61 -58 109s18 90 54 126c-8.66699 19.333 -13 42 -13 68c0 50.667 17.333 94 52 130s77 54 127 54c49.333 0 91 -18.333 125 -55l75 68
c6 5.33301 14 7 24 5c9.33301 -2 16.666 -6.33301 21.999 -13s8 -13.667 8 -21c0 -10.667 -5.66699 -21 -17 -31l-74 -68c8.66699 -19.333 13 -42 13 -68c0 -55.333 -16.833 -99.666 -50.5 -132.999s-76.167 -50 -127.5 -50c-20 0 -41.833 4.66699 -65.5 14
s-43.5 22.333 -59.5 39c-16 -20 -24 -40 -24 -60c0 -39.333 16.333 -59 49 -59h204c34 0 60.833 -11.5 80.5 -34.5s29.5 -50.833 29.5 -83.5c0 -40 -15 -75.333 -45 -106s-65.333 -46 -106 -46h-171zM285.002 198.999c32.667 0 59.001 10.832 79.001 32.499
s30 48.167 30 79.5c0 32.667 -10.667 59.334 -32 80.001s-47 31 -77 31c-32 0 -58 -11 -78 -33s-30 -48 -30 -78c0 -32 10.667 -58.667 32 -80s46.666 -32 75.999 -32zM177.003 -137.002l171 0.000976562c36 0 61.333 17 76 51c8 21.333 8.5 39.333 1.5 54
s-19.167 22 -36.5 22h-173l-64 -51c-10.667 -8.66699 -16 -19.334 -16 -32.001s4 -23.167 12 -31.5s17.667 -12.5 29 -12.5z" />
    <glyph glyph-name="Hbar" unicode="&#x126;" 
d="M509 553c8 0 14.833 -3 20.5 -9s9.16699 -13.333 10.5 -22c-0.666992 -8 -4 -14.833 -10 -20.5s-13 -8.5 -21 -8.5h-23v-455c0 -11.333 -3.66699 -20.5 -11 -27.5s-15.666 -10.5 -24.999 -10.5c-10 -0 -18.5 3.83301 -25.5 11.5s-10.5 16.5 -10.5 26.5v294h-262v-294
c0 -10.667 -3.66699 -19.667 -11 -27s-15.666 -11 -24.999 -11c-10 0 -18.5 3.66699 -25.5 11s-10.5 16.333 -10.5 27v454h-25c-8 0 -15 3.16699 -21 9.5s-9 13.5 -9 21.5s3 15 9 21s13 9 21 9h25v148c0 10 3.5 18.833 10.5 26.5s15.5 11.5 25.5 11.5
c9.33301 0 17.666 -3.83301 24.999 -11.5s11 -16.5 11 -26.5v-148h262v148c0 10 3.66699 18.833 11 26.5s15.666 11.5 24.999 11.5c10 0 18.5 -3.83301 25.5 -11.5s10.5 -16.5 10.5 -26.5v-148h23zM414 407v86l-262 -1v-85h262z" />
    <glyph glyph-name="hbar" unicode="&#x127;" 
d="M293 494c58.667 0 108.833 -21.832 150.5 -65.499s62.5 -95.834 62.5 -156.501v-234c0 -10.667 -3.66699 -19.667 -11 -27s-15.666 -11 -24.999 -11c-10.667 0 -19.5 3.66699 -26.5 11s-10.5 16.333 -10.5 27v234c0 40 -14 74.333 -42 103s-60.667 43 -98 43
c-38 0 -70.833 -14.5 -98.5 -43.5s-41.5 -63.167 -41.5 -102.5v-234c0 -10.667 -3.5 -19.667 -10.5 -27s-15.833 -11 -26.5 -11c-10 -0 -18.5 3.83301 -25.5 11.5s-10.5 16.5 -10.5 26.5v539h-53c-8 0 -15 3.16699 -21 9.5s-9 13.5 -9 21.5s3 15 9 21s13 9 21 9h53v63
c0 10 3.66699 18.833 11 26.5s15.666 11.5 24.999 11.5c10.667 0 19.5 -4 26.5 -12s10.5 -16.667 10.5 -26v-63h120c8 0 14.833 -3 20.5 -9s9.16699 -13.333 10.5 -22c-0.666992 -8 -4 -14.833 -10 -20.5s-13 -8.5 -21 -8.5h-120v-159c43.333 50 90 75 140 75z" />
    <glyph glyph-name="Itilde" unicode="&#x128;" 
d="M384 872c5.33301 10 14 15 26 15c8 0 15 -2.83301 21 -8.5s9 -12.834 9 -21.501c0 -5.33301 -1.66699 -10.333 -5 -15c-19.333 -33.333 -45.666 -50 -78.999 -50c-20 0 -44.833 8.33301 -74.5 25s-46.834 25 -51.501 25c-22 0 -38.333 -9.33301 -49 -28
c-5.33301 -10 -14 -15 -26 -15c-8 0 -15 2.83301 -21 8.5s-9 12.834 -9 21.501c0 4.66699 1.33301 9.66699 4 15c22.667 38.667 56.334 58 101.001 58c15.333 0 37.666 -8.33301 66.999 -25s49 -25 59 -25s19.333 6.66699 28 20zM126 0c-10 0 -18.498 3.66699 -25.498 11
s-10.5 16.333 -10.5 27c0 11.333 3.66699 20.333 11 27s15.666 10 24.999 10h121v589h-121c-10 0 -18.5 3.66699 -25.5 11s-10.5 16.333 -10.5 27c0 11.333 3.66699 20.333 11 27s15.666 10 24.999 10h314c10 0 18.5 -3.5 25.5 -10.5s10.5 -15.833 10.5 -26.5
c0 -11.333 -3.66699 -20.5 -11 -27.5s-15.666 -10.5 -24.999 -10.5h-121v-589h121c10 0 18.5 -3.5 25.5 -10.5s10.5 -15.833 10.5 -26.5s-3.33301 -19.667 -10 -27s-15.334 -11 -26.001 -11h-314z" />
    <glyph glyph-name="itilde" unicode="&#x129;" 
d="M404 626c5.33301 10 14 15 26 15c8 0 15 -2.83301 21 -8.5s9 -12.834 9 -21.501c0 -5.33301 -1.66699 -10.333 -5 -15c-19.333 -33.333 -45.666 -50 -78.999 -50c-20 0 -44.833 8.33301 -74.5 25s-46.834 25 -51.501 25c-22 0 -38.333 -9.33301 -49 -28
c-5.33301 -10 -14 -15 -26 -15c-8 0 -15 2.83301 -21 8.5s-9 12.834 -9 21.501c0 4.66699 1.33301 9.66699 4 15c22.667 38.667 56.334 58 101.001 58c15.333 0 37.666 -8.33301 66.999 -25s49 -25 59 -25s19.333 6.66699 28 20zM96 0c-10.667 0 -19.5 3.66699 -26.5 11
s-10.5 16.333 -10.5 27c0 9.33301 3.66699 18 11 26s16 12 26 12h170v341h-170c-10.667 0 -19.5 3.66699 -26.5 11s-10.5 16.333 -10.5 27c0 9.33301 3.66699 18 11 26s16 12 26 12h207c10 0 18.667 -3.83301 26 -11.5s11 -16.5 11 -26.5v-379h140
c10 0 18.667 -3.83301 26 -11.5s11 -16.5 11 -26.5c0 -10.667 -3.5 -19.667 -10.5 -27s-15.833 -11 -26.5 -11h-384z" />
    <glyph glyph-name="Imacron" unicode="&#x12a;" 
d="M144 807c-8 0 -14.835 3 -20.502 9s-8.83398 13.333 -9.50098 22c0.666992 8 3.83398 15 9.50098 21s12.5 9 20.5 9h277c8.66699 0 15.834 -3 21.501 -9s8.83398 -13.333 9.50098 -22c-0.666992 -8 -4 -14.833 -10 -20.5s-12.667 -8.5 -20 -8.5zM125.998 0
c-10 0 -18.498 3.66699 -25.498 11s-10.5 16.333 -10.5 27c0 11.333 3.66699 20.333 11 27s15.666 10 24.999 10h121v589h-121c-10 0 -18.5 3.66699 -25.5 11s-10.5 16.333 -10.5 27c0 11.333 3.66699 20.333 11 27s15.666 10 24.999 10h314c10 0 18.5 -3.5 25.5 -10.5
s10.5 -15.833 10.5 -26.5c0 -11.333 -3.66699 -20.5 -11 -27.5s-15.666 -10.5 -24.999 -10.5h-121v-589h121c10 0 18.5 -3.5 25.5 -10.5s10.5 -15.833 10.5 -26.5s-3.33301 -19.667 -10 -27s-15.334 -11 -26.001 -11h-314z" />
    <glyph glyph-name="imacron" unicode="&#x12b;" 
d="M164 561c-8 0 -14.835 3 -20.502 9s-8.83398 13.333 -9.50098 22c0.666992 8 3.83398 15 9.50098 21s12.5 9 20.5 9h277c8.66699 0 15.834 -3 21.501 -9s8.83398 -13.333 9.50098 -22c-0.666992 -8 -4 -14.833 -10 -20.5s-12.667 -8.5 -20 -8.5zM95.998 0
c-10.667 0 -19.5 3.66699 -26.5 11s-10.5 16.333 -10.5 27c0 9.33301 3.66699 18 11 26s16 12 26 12h170v341h-170c-10.667 0 -19.5 3.66699 -26.5 11s-10.5 16.333 -10.5 27c0 9.33301 3.66699 18 11 26s16 12 26 12h207c10 0 18.667 -3.83301 26 -11.5s11 -16.5 11 -26.5
v-379h140c10 0 18.667 -3.83301 26 -11.5s11 -16.5 11 -26.5c0 -10.667 -3.5 -19.667 -10.5 -27s-15.833 -11 -26.5 -11h-384z" />
    <glyph glyph-name="Iogonek" unicode="&#x12e;" 
d="M471 -189c7.33301 0 13.502 -2.5 18.502 -7.5s7.5 -11.167 7.5 -18.5c0 -11.333 -5.33301 -19.333 -16 -24c-15.333 -7.33301 -32.333 -11 -51 -11c-28 0 -50.167 8 -66.5 24s-24.5 37.333 -24.5 64c0 38.667 22 92.667 66 162h-279c-10 0 -18.5 3.66699 -25.5 11
s-10.5 16.333 -10.5 27c0 11.333 3.66699 20.333 11 27s15.666 10 24.999 10h121v589h-121c-10 0 -18.5 3.66699 -25.5 11s-10.5 16.333 -10.5 27c0 11.333 3.66699 20.333 11 27s15.666 10 24.999 10h314c10 0 18.5 -3.5 25.5 -10.5s10.5 -15.833 10.5 -26.5
c0 -11.333 -3.66699 -20.5 -11 -27.5s-15.666 -10.5 -24.999 -10.5h-121v-589h121c10 0 18.5 -3.5 25.5 -10.5s10.5 -15.833 10.5 -26.5s-3.33301 -19.667 -10 -27s-15.334 -11 -26.001 -11h20c-48 -69.333 -72 -121 -72 -155c0 -28.667 14.667 -43 44 -43
c6.66699 0 14.5 1.5 23.5 4.5s14.167 4.5 15.5 4.5z" />
    <glyph glyph-name="iogonek" unicode="&#x12f;" 
d="M302 573c-17.333 0 -31.668 6.33301 -43.001 19s-17 27 -17 43c0 17.333 5.83301 32.166 17.5 44.499s25.834 18.5 42.501 18.5c18.667 0 33.5 -6.16699 44.5 -18.5s16.5 -27.166 16.5 -44.499c0 -18 -5.66699 -32.833 -17 -44.5s-26 -17.5 -44 -17.5zM514.998 -177
c7.33301 0 13.5 -2.50098 18.5 -7.50098s7.5 -11.167 7.5 -18.5c0 -11.333 -5.33301 -19.333 -16 -24c-15.333 -7.33301 -32.333 -11 -51 -11c-28 0 -50.167 8 -66.5 24s-24.5 37.333 -24.5 64c0 38 19.667 88 59 150h-336c-10.667 0 -19.5 3.66699 -26.5 11
s-10.5 16.333 -10.5 27c0 9.33301 3.66699 18 11 26s16 12 26 12h170v341h-170c-10.667 0 -19.5 3.66699 -26.5 11s-10.5 16.333 -10.5 27c0 9.33301 3.66699 18 11 26s16 12 26 12h207c10 0 18.667 -3.83301 26 -11.5s11 -16.5 11 -26.5v-379h140
c10 0 18.667 -3.83301 26 -11.5s11 -16.5 11 -26.5c0 -9.33301 -3 -17.666 -9 -24.999s-13.333 -11.666 -22 -12.999c-42.667 -62.667 -64 -110.334 -64 -143.001c0 -28.667 14.667 -43 44 -43c6.66699 0 14.5 1.5 23.5 4.5s14.167 4.5 15.5 4.5z" />
    <glyph glyph-name="Idotaccent" unicode="&#x130;" 
d="M283 799c-16.667 0 -30.999 6.00195 -42.999 18.002s-18 26.667 -18 44s5.83301 32.166 17.5 44.499s26.167 18.5 43.5 18.5c18 0 32.5 -6.33301 43.5 -19s16.5 -27.334 16.5 -44.001s-5.83301 -31.167 -17.5 -43.5s-25.834 -18.5 -42.501 -18.5zM126.001 0.00195312
c-10 0 -18.498 3.66699 -25.498 11s-10.5 16.333 -10.5 27c0 11.333 3.66699 20.333 11 27s15.666 10 24.999 10h121v589h-121c-10 0 -18.5 3.66699 -25.5 11s-10.5 16.333 -10.5 27c0 11.333 3.66699 20.333 11 27s15.666 10 24.999 10h314c10 0 18.5 -3.5 25.5 -10.5
s10.5 -15.833 10.5 -26.5c0 -11.333 -3.66699 -20.5 -11 -27.5s-15.666 -10.5 -24.999 -10.5h-121v-589h121c10 0 18.5 -3.5 25.5 -10.5s10.5 -15.833 10.5 -26.5s-3.33301 -19.667 -10 -27s-15.334 -11 -26.001 -11h-314z" />
    <glyph glyph-name="dotlessi" unicode="&#x131;" 
d="M96 0c-10.667 0 -19.5 3.66699 -26.5 11s-10.5 16.333 -10.5 27c0 9.33301 3.66699 18 11 26s16 12 26 12h170v341h-170c-10.667 0 -19.5 3.66699 -26.5 11s-10.5 16.333 -10.5 27c0 9.33301 3.66699 18 11 26s16 12 26 12h207c10 0 18.667 -3.83301 26 -11.5
s11 -16.5 11 -26.5v-379h140c10 0 18.667 -3.83301 26 -11.5s11 -16.5 11 -26.5c0 -10.667 -3.5 -19.667 -10.5 -27s-15.833 -11 -26.5 -11h-384z" />
    <glyph glyph-name="Kcommaaccent" unicode="&#x136;" 
d="M125 0c-10 0 -18.498 3.66699 -25.498 11s-10.5 16.333 -10.5 27v664c0 10.667 3.66699 19.5 11 26.5s15.666 10.5 24.999 10.5c10 0 18.667 -3.66699 26 -11s11 -16 11 -26v-362l236 382c7.33301 11.333 17.666 17 30.999 17c10 0 18.5 -3.83301 25.5 -11.5
s10.5 -16.5 10.5 -26.5c0 -6.66699 -2 -13 -6 -19l-151 -245l224 -380c3.33301 -8 5 -15 5 -21c0 -10 -3.5 -18.5 -10.5 -25.5s-15.5 -10.5 -25.5 -10.5c-14 0 -24.333 6 -31 18l-206 348l-102 -166v-162c0 -10.667 -3.5 -19.667 -10.5 -27s-15.833 -11 -26.5 -11z
M240.002 -424l-39.001 19l86 184c-20.667 1.33301 -38.167 9.5 -52.5 24.5s-21.5 33.167 -21.5 54.5c0 22 7.83301 40.667 23.5 56s33.167 23 52.5 23c20.667 0 38.334 -7.83301 53.001 -23.5s22 -34.167 22 -55.5v-79z" />
    <glyph glyph-name="kcommaaccent" unicode="&#x137;" 
d="M144 0c-10 0 -18.502 3.66602 -25.502 10.999s-10.5 16.333 -10.5 27v663c0 10 3.5 18.833 10.5 26.5s15.5 11.5 25.5 11.5s18.5 -3.83301 25.5 -11.5s10.5 -16.5 10.5 -26.5v-471l266 253c7.33301 6.66699 15.666 10 24.999 10c10 0 18.5 -3.66699 25.5 -11
s10.5 -16.333 10.5 -27c0 -11.333 -3.66699 -20.666 -11 -27.999l-157 -149l171 -216c5.33301 -7.33301 8 -15.333 8 -24c0 -11.333 -3.66699 -20.5 -11 -27.5s-15.666 -10.5 -24.999 -10.5c-11.333 0 -20.666 4.66699 -27.999 14l-169 213l-105 -100v-89
c0 -11.333 -3.66699 -20.5 -11 -27.5s-15.666 -10.5 -24.999 -10.5zM239.998 -424.001l-39.001 19l86 184c-20.667 1.33301 -38.167 9.5 -52.5 24.5s-21.5 33.167 -21.5 54.5c0 22 7.83301 40.667 23.5 56s33.167 23 52.5 23c20.667 0 38.334 -7.83301 53.001 -23.5
s22 -34.167 22 -55.5v-79z" />
    <glyph glyph-name="Lacute" unicode="&#x139;" 
d="M129 798c-9.33301 0 -17.5 3.66797 -24.5 11.001s-10.5 16 -10.5 26c0 8.66699 3.33301 16 10 22l89 95c6.66699 8.66699 15 13 25 13c9.33301 0 17.833 -3.83301 25.5 -11.5s11.5 -16.5 11.5 -26.5c0 -8.66699 -3.33301 -16.334 -10 -23.001l-89 -95
c-7.33301 -7.33301 -16.333 -11 -27 -11zM131 0.000976562c-9.33301 0 -17.666 3.66699 -24.999 11s-11 16.333 -11 27v664c0 10 3.66699 18.667 11 26s15.666 11 24.999 11c10 0 18.667 -3.66699 26 -11s11 -16 11 -26v-627h327c9.33301 0 17.666 -3.66699 24.999 -11
s11 -16 11 -26c0 -10.667 -3.66699 -19.667 -11 -27s-15.666 -11 -24.999 -11h-364z" />
    <glyph glyph-name="lacute" unicode="&#x13a;" 
d="M212 798c-9.33301 0 -17.5 3.66797 -24.5 11.001s-10.5 16 -10.5 26c0 8.66699 3.33301 16 10 22l89 95c6.66699 8.66699 15 13 25 13c9.33301 0 17.833 -3.83301 25.5 -11.5s11.5 -16.5 11.5 -26.5c0 -8.66699 -3.33301 -16.334 -10 -23.001l-89 -95
c-7.33301 -7.33301 -16.333 -11 -27 -11zM349 -0.999023c-46.667 0 -87 17.333 -121 52s-51 76 -51 124v488h-115c-10 0 -18.667 3.5 -26 10.5s-11 16.167 -11 27.5c0 12 3.66699 21.333 11 28s16 10 26 10h152c10 0 18.667 -3.5 26 -10.5s11 -16.167 11 -27.5v-526
c0 -28.667 9.83301 -52.5 29.5 -71.5s42.5 -28.5 68.5 -28.5c26.667 0 49.667 9.83301 69 29.5s29 43.167 29 70.5c0 10.667 3.5 19.667 10.5 27s15.833 11 26.5 11c10 0 18.667 -3.5 26 -10.5s11 -16.167 11 -27.5c0 -48 -16.833 -89.333 -50.5 -124
s-74.167 -52 -121.5 -52z" />
    <glyph glyph-name="Lcommaaccent" unicode="&#x13b;" 
d="M131 0c-9.33301 0 -17.666 3.66699 -24.999 11s-11 16.333 -11 27v664c0 10 3.66699 18.667 11 26s15.666 11 24.999 11c10 0 18.667 -3.66699 26 -11s11 -16 11 -26v-627h327c9.33301 0 17.666 -3.66699 24.999 -11s11 -16 11 -26c0 -10.667 -3.66699 -19.667 -11 -27
s-15.666 -11 -24.999 -11h-364zM240 -424l-39.001 19l86 184c-20.667 1.33301 -38.167 9.5 -52.5 24.5s-21.5 33.167 -21.5 54.5c0 22 7.83301 40.667 23.5 56s33.167 23 52.5 23c20.667 0 38.334 -7.83301 53.001 -23.5s22 -34.167 22 -55.5v-79z" />
    <glyph glyph-name="lcommaaccent" unicode="&#x13c;" 
d="M349 -1c-46.667 0 -87 17.333 -121 52s-51 76 -51 124v488h-115c-10 0 -18.667 3.5 -26 10.5s-11 16.167 -11 27.5c0 12 3.66699 21.333 11 28s16 10 26 10h152c10 0 18.667 -3.5 26 -10.5s11 -16.167 11 -27.5v-526c0 -28.667 9.83301 -52.5 29.5 -71.5
s42.5 -28.5 68.5 -28.5c26.667 0 49.667 9.83301 69 29.5s29 43.167 29 70.5c0 10.667 3.5 19.667 10.5 27s15.833 11 26.5 11c10 0 18.667 -3.5 26 -10.5s11 -16.167 11 -27.5c0 -48 -16.833 -89.333 -50.5 -124s-74.167 -52 -121.5 -52zM230 -425l-39.001 19l86 184
c-20.667 1.33301 -38.167 9.5 -52.5 24.5s-21.5 33.167 -21.5 54.5c0 22 7.83301 40.667 23.5 56s33.167 23 52.5 23c20.667 0 38.334 -7.83301 53.001 -23.5s22 -34.167 22 -55.5v-79z" />
    <glyph glyph-name="Lcaron" unicode="&#x13d;" 
d="M131 0c-9.33301 0 -17.666 3.66699 -24.999 11s-11 16.333 -11 27v664c0 10 3.66699 18.667 11 26s15.666 11 24.999 11c10 0 18.667 -3.66699 26 -11s11 -16 11 -26v-627h327c9.33301 0 17.666 -3.66699 24.999 -11s11 -16 11 -26c0 -10.667 -3.66699 -19.667 -11 -27
s-15.666 -11 -24.999 -11h-364zM386 543c-8.66699 0 -15.834 2.83301 -21.501 8.5s-8.5 12.834 -8.5 21.501v136c0 8.66699 2.83301 15.834 8.5 21.501s12.834 8.5 21.501 8.5h4c8.66699 0 15.834 -2.83301 21.501 -8.5s8.5 -12.834 8.5 -21.501v-136
c0 -8.66699 -2.83301 -15.834 -8.5 -21.501s-12.834 -8.5 -21.501 -8.5h-4z" />
    <glyph glyph-name="lcaron" unicode="&#x13e;" 
d="M495 563c-8.66699 0 -15.834 2.83301 -21.501 8.5s-8.5 12.834 -8.5 21.501v136c0 8.66699 2.83301 15.834 8.5 21.501s12.834 8.5 21.501 8.5h4c8.66699 0 15.834 -2.83301 21.501 -8.5s8.5 -12.834 8.5 -21.501v-136c0 -8.66699 -2.83301 -15.834 -8.5 -21.501
s-12.834 -8.5 -21.501 -8.5h-4zM349 -1c-46.667 0 -87 17.333 -121 52s-51 76 -51 124v488h-115c-10 0 -18.667 3.5 -26 10.5s-11 16.167 -11 27.5c0 12 3.66699 21.333 11 28s16 10 26 10h152c10 0 18.667 -3.5 26 -10.5s11 -16.167 11 -27.5v-526
c0 -28.667 9.83301 -52.5 29.5 -71.5s42.5 -28.5 68.5 -28.5c26.667 0 49.667 9.83301 69 29.5s29 43.167 29 70.5c0 10.667 3.5 19.667 10.5 27s15.833 11 26.5 11c10 0 18.667 -3.5 26 -10.5s11 -16.167 11 -27.5c0 -48 -16.833 -89.333 -50.5 -124
s-74.167 -52 -121.5 -52z" />
    <glyph glyph-name="Lslash" unicode="&#x141;" 
d="M520 64c7.33301 -7.33301 10.999 -16 10.999 -26c0 -10.667 -3.66699 -19.667 -11 -27s-15.666 -11 -24.999 -11h-364c-9.33301 0 -17.666 3.66699 -24.999 11s-11 16.333 -11 27v181l-42 -42c-6 -6 -13.167 -8.83301 -21.5 -8.5s-15.5 3.16602 -21.5 8.49902
c-5.33301 6 -8 13.167 -8 21.5s2.66699 15.5 8 21.5l85 85v397c0 10 3.66699 18.667 11 26s15.666 11 24.999 11c10 0 18.667 -3.66699 26 -11s11 -16 11 -26v-324l186 186c13.333 13.333 28 13.333 44 0c5.33301 -6 7.83301 -13.167 7.5 -21.5
s-3.16602 -15.166 -8.49902 -20.499l-229 -230v-217h327c9.33301 0 17.666 -3.66699 24.999 -11z" />
    <glyph glyph-name="lslash" unicode="&#x142;" 
d="M484 213c10 0 18.666 -3.5 25.999 -10.5s11 -16.167 11 -27.5c0 -48 -16.833 -89.333 -50.5 -124s-74.167 -52 -121.5 -52c-46.667 0 -87 17.333 -121 52s-51 76 -51 124v136l-114 -114c-6 -6 -13.167 -8.83301 -21.5 -8.5s-15.5 3.16602 -21.5 8.49902
c-5.33301 6 -8 13.167 -8 21.5s2.66699 15.5 8 21.5l157 157v266h-115c-10 0 -18.667 3.5 -26 10.5s-11 16.167 -11 27.5c0 12 3.66699 21.333 11 28s16 10 26 10h152c10 0 18.667 -3.5 26 -10.5s11 -16.167 11 -27.5v-230l113 113c13.333 13.333 28 13.333 44 0
c5.33301 -6 7.83301 -13.167 7.5 -21.5s-3.16602 -15.166 -8.49902 -20.499l-156 -156v-211c0 -28.667 9.83301 -52.5 29.5 -71.5s42.5 -28.5 68.5 -28.5c26.667 0 49.667 9.83301 69 29.5s29 43.167 29 70.5c0 10.667 3.5 19.667 10.5 27s15.833 11 26.5 11z" />
    <glyph glyph-name="Nacute" unicode="&#x143;" 
d="M281 798c-9.33301 0 -17.5 3.66797 -24.5 11.001s-10.5 16 -10.5 26c0 8.66699 3.33301 16 10 22l89 95c6.66699 8.66699 15 13 25 13c9.33301 0 17.833 -3.83301 25.5 -11.5s11.5 -16.5 11.5 -26.5c0 -8.66699 -3.33301 -16.334 -10 -23.001l-89 -95
c-7.33301 -7.33301 -16.333 -11 -27 -11zM101 0.000976562c-10 0 -18.499 3.66699 -25.499 11s-10.5 16.333 -10.5 27v664c0 10.667 3.66699 19.5 11 26.5s15.666 10.5 24.999 10.5c14 0 24.333 -6.33301 31 -19l297 -540v522c0 10.667 3.66699 19.5 11 26.5
s15.666 10.5 24.999 10.5s17.666 -3.66699 24.999 -11s11 -16 11 -26v-664c0 -11.333 -3.66699 -20.5 -11 -27.5s-15.666 -10.5 -24.999 -10.5c-14.667 0 -25 6.33301 -31 19l-297 540v-521c0 -11.333 -3.66699 -20.5 -11 -27.5s-15.666 -10.5 -24.999 -10.5z" />
    <glyph glyph-name="nacute" unicode="&#x144;" 
d="M291 552c-9.33301 0 -17.5 3.66797 -24.5 11.001s-10.5 16 -10.5 26c0 8.66699 3.33301 16 10 22l89 95c6.66699 8.66699 15 13 25 13c9.33301 0 17.833 -3.83301 25.5 -11.5s11.5 -16.5 11.5 -26.5c0 -8.66699 -3.33301 -16.334 -10 -23.001l-89 -95
c-7.33301 -7.33301 -16.333 -11 -27 -11zM116 0.000976562c-10 0 -18.668 3.66602 -26.001 10.999s-11 16 -11 26v419c0 10 3.5 18.667 10.5 26s15.833 11 26.5 11s19.5 -3.66699 26.5 -11s10.5 -16 10.5 -26v-52c19.333 30.667 41 53.167 65 67.5s55 21.5 93 21.5
c62.667 0 111 -18.167 145 -54.5s51 -90.166 51 -161.499v-240c0 -10 -3.66699 -18.667 -11 -26s-16 -11 -26 -11s-18.667 3.66699 -26 11s-11 16 -11 26v240c0 46.667 -11.667 82 -35 106s-55.666 36 -96.999 36c-47.333 0 -83.833 -14.167 -109.5 -42.5
s-38.5 -61.5 -38.5 -99.5v-240c0 -10 -3.66699 -18.667 -11 -26s-16 -11 -26 -11z" />
    <glyph glyph-name="Ncommaaccent" unicode="&#x145;" 
d="M101 0c-10 0 -18.499 3.66699 -25.499 11s-10.5 16.333 -10.5 27v664c0 10.667 3.66699 19.5 11 26.5s15.666 10.5 24.999 10.5c14 0 24.333 -6.33301 31 -19l297 -540v522c0 10.667 3.66699 19.5 11 26.5s15.666 10.5 24.999 10.5s17.666 -3.66699 24.999 -11
s11 -16 11 -26v-664c0 -11.333 -3.66699 -20.5 -11 -27.5s-15.666 -10.5 -24.999 -10.5c-14.667 -0 -25 6.33301 -31 19l-297 540v-521c0 -11.333 -3.66699 -20.5 -11 -27.5s-15.666 -10.5 -24.999 -10.5zM240.001 -424l-39.001 19l86 184
c-20.667 1.33301 -38.167 9.5 -52.5 24.5s-21.5 33.167 -21.5 54.5c0 22 7.83301 40.667 23.5 56s33.167 23 52.5 23c20.667 0 38.334 -7.83301 53.001 -23.5s22 -34.167 22 -55.5v-79z" />
    <glyph glyph-name="ncommaaccent" unicode="&#x146;" 
d="M116 0c-10 0 -18.668 3.66602 -26.001 10.999s-11 16 -11 26v419c0 10 3.5 18.667 10.5 26s15.833 11 26.5 11s19.5 -3.66699 26.5 -11s10.5 -16 10.5 -26v-52c19.333 30.667 41 53.167 65 67.5s55 21.5 93 21.5c62.667 0 111 -18.167 145 -54.5s51 -90.166 51 -161.499
v-240c0 -10 -3.66699 -18.667 -11 -26s-16 -11 -26 -11s-18.667 3.66699 -26 11s-11 16 -11 26v240c0 46.667 -11.667 82 -35 106s-55.666 36 -96.999 36c-47.333 0 -83.833 -14.167 -109.5 -42.5s-38.5 -61.5 -38.5 -99.5v-240c0 -10 -3.66699 -18.667 -11 -26
s-16 -11 -26 -11zM249.999 -424.001l-39.001 19l86 184c-20.667 1.33301 -38.167 9.5 -52.5 24.5s-21.5 33.167 -21.5 54.5c0 22 7.83301 40.667 23.5 56s33.167 23 52.5 23c20.667 0 38.334 -7.83301 53.001 -23.5s22 -34.167 22 -55.5v-79z" />
    <glyph glyph-name="Ncaron" unicode="&#x147;" 
d="M283 800c-8.66699 0 -17 3.66699 -25 11l-101 101c-8.66699 8.66699 -13 17 -13 25c0 8.66699 3 16 9 22s13.333 9 22 9c8 0 15 -3 21 -9l87 -87l87 87c6 6 13 9 21 9s15.167 -2.83301 21.5 -8.5s9.5 -13.167 9.5 -22.5c0 -8 -4.33301 -16.333 -13 -25l-102 -101
c-8 -7.33301 -16 -11 -24 -11zM101 0c-10 0 -18.499 3.66699 -25.499 11s-10.5 16.333 -10.5 27v664c0 10.667 3.66699 19.5 11 26.5s15.666 10.5 24.999 10.5c14 0 24.333 -6.33301 31 -19l297 -540v522c0 10.667 3.66699 19.5 11 26.5s15.666 10.5 24.999 10.5
s17.666 -3.66699 24.999 -11s11 -16 11 -26v-664c0 -11.333 -3.66699 -20.5 -11 -27.5s-15.666 -10.5 -24.999 -10.5c-14.667 -0 -25 6.33301 -31 19l-297 540v-521c0 -11.333 -3.66699 -20.5 -11 -27.5s-15.666 -10.5 -24.999 -10.5z" />
    <glyph glyph-name="ncaron" unicode="&#x148;" 
d="M293 554c-8.66699 0 -17 3.66699 -25 11l-101 101c-8.66699 8.66699 -13 17 -13 25c0 8.66699 3 16 9 22s13.333 9 22 9c8 0 15 -3 21 -9l87 -87l87 87c6 6 13 9 21 9s15.167 -2.83301 21.5 -8.5s9.5 -13.167 9.5 -22.5c0 -8 -4.33301 -16.333 -13 -25l-102 -101
c-8 -7.33301 -16 -11 -24 -11zM116 0c-10 0 -18.668 3.66602 -26.001 10.999s-11 16 -11 26v419c0 10 3.5 18.667 10.5 26s15.833 11 26.5 11s19.5 -3.66699 26.5 -11s10.5 -16 10.5 -26v-52c19.333 30.667 41 53.167 65 67.5s55 21.5 93 21.5
c62.667 0 111 -18.167 145 -54.5s51 -90.166 51 -161.499v-240c0 -10 -3.66699 -18.667 -11 -26s-16 -11 -26 -11s-18.667 3.66699 -26 11s-11 16 -11 26v240c0 46.667 -11.667 82 -35 106s-55.666 36 -96.999 36c-47.333 0 -83.833 -14.167 -109.5 -42.5
s-38.5 -61.5 -38.5 -99.5v-240c0 -10 -3.66699 -18.667 -11 -26s-16 -11 -26 -11z" />
    <glyph glyph-name="Eng" unicode="&#x14a;" 
d="M501 702l0.00195312 -663.999c0 -4 -0.333008 -7 -1 -9v-83c0 -22.667 -6.66699 -42.334 -20 -59.001s-31.666 -28.667 -54.999 -36c-10.667 -3.33301 -20.834 -1.5 -30.501 5.5s-14.5 16.167 -14.5 27.5c0 18 8.33301 29.333 25 34s25 14 25 28v80l-293 533v-521
c0 -11.333 -3.66699 -20.5 -11 -27.5s-15.666 -10.5 -24.999 -10.5c-10 0 -18.5 3.66699 -25.5 11s-10.5 16.333 -10.5 27v664c0 10.667 3.66699 19.5 11 26.5s15.666 10.5 24.999 10.5c14 0 24.333 -6.33301 31 -19l297 -540v522c0 10.667 3.66699 19.5 11 26.5
s15.666 10.5 24.999 10.5s17.666 -3.66699 24.999 -11s11 -16 11 -26z" />
    <glyph glyph-name="eng" unicode="&#x14b;" 
d="M311 493c62.667 0 110.999 -18.168 144.999 -54.501s51 -90.166 51 -161.499v-240v-91c0 -23.333 -6.66699 -43.5 -20 -60.5s-32 -29.167 -56 -36.5c-12 -3.33301 -23 -1.33301 -33 6s-15 17 -15 29c0 19.333 8.66699 31.333 26 36c16 4 24 12.667 24 26v133v198
c0 46.667 -11.667 82 -35 106s-55.666 36 -96.999 36c-47.333 0 -83.833 -14.167 -109.5 -42.5s-38.5 -61.5 -38.5 -99.5v-240c0 -10 -3.66699 -18.667 -11 -26s-16 -11 -26 -11s-18.667 3.66699 -26 11s-11 16 -11 26v419c0 10 3.5 18.667 10.5 26s15.833 11 26.5 11
s19.5 -3.66699 26.5 -11s10.5 -16 10.5 -26v-52c19.333 30.667 41 53.167 65 67.5s55 21.5 93 21.5z" />
    <glyph glyph-name="Omacron" unicode="&#x14c;" 
d="M144 807c-8 0 -14.835 3 -20.502 9s-8.83398 13.333 -9.50098 22c0.666992 8 3.83398 15 9.50098 21s12.5 9 20.5 9h277c8.66699 0 15.834 -3 21.501 -9s8.83398 -13.333 9.50098 -22c-0.666992 -8 -4 -14.833 -10 -20.5s-12.667 -8.5 -20 -8.5zM282.998 -3
c-58.667 0 -108.333 21.333 -149 64s-61 94 -61 154v306c0 60.667 20.5 112.167 61.5 154.5s90.5 63.5 148.5 63.5s107.5 -21.333 148.5 -64s61.5 -94 61.5 -154v-306c0 -60 -20.5 -111.333 -61.5 -154s-90.5 -64 -148.5 -64zM282.999 72c38.667 0 71.167 14.5 97.5 43.5
s39.5 62.167 39.5 99.5v306c0 38.667 -13.333 72 -40 100s-59 42 -97 42c-38.667 0 -71.167 -14.167 -97.5 -42.5s-39.5 -61.5 -39.5 -99.5v-306c0 -39.333 13.667 -73 41 -101s59.333 -42 96 -42z" />
    <glyph glyph-name="omacron" unicode="&#x14d;" 
d="M144 561c-8 0 -14.835 3 -20.502 9s-8.83398 13.333 -9.50098 22c0.666992 8 3.83398 15 9.50098 21s12.5 9 20.5 9h277c8.66699 0 15.834 -3 21.501 -9s8.83398 -13.333 9.50098 -22c-0.666992 -8 -4 -14.833 -10 -20.5s-12.667 -8.5 -20 -8.5zM282.998 0
c-60 0 -110.667 21.332 -152 63.999s-62 93.334 -62 152.001v61c0 58.667 20.833 109.334 62.5 152.001s92.167 64 151.5 64c60.667 0 111.5 -21.333 152.5 -64s61.5 -93.334 61.5 -152.001v-61c0 -60 -21.167 -111 -63.5 -153s-92.5 -63 -150.5 -63zM282.998 73.999
c38.667 0 71.667 14 99 42s41 61.333 41 100v61c0 39.333 -13.667 72.833 -41 100.5s-60.333 41.5 -99 41.5c-40 0 -73.333 -14 -100 -42s-40 -61.333 -40 -100v-61c0 -39.333 14 -72.833 42 -100.5s60.667 -41.5 98 -41.5z" />
    <glyph glyph-name="Ohungarumlaut" unicode="&#x150;" 
d="M204 797c-9.33301 0 -17.5 3.66797 -24.5 11.001s-10.5 16 -10.5 26c0 8.66699 3.33301 16 10 22l89 95c6.66699 8.66699 15 13 25 13c9.33301 0 17.833 -3.83301 25.5 -11.5s11.5 -16.5 11.5 -26.5c0 -8.66699 -3.33301 -16.334 -10 -23.001l-89 -95
c-7.33301 -7.33301 -16.333 -11 -27 -11zM361 797.001c-9.33301 0 -17.5 3.66797 -24.5 11.001s-10.5 16 -10.5 26c0 8.66699 3.33301 16 10 22l89 95c6.66699 8.66699 15 13 25 13c9.33301 0 17.833 -3.83301 25.5 -11.5s11.5 -16.5 11.5 -26.5
c0 -8.66699 -3.33301 -16.334 -10 -23.001l-89 -95c-7.33301 -7.33301 -16.333 -11 -27 -11zM283 -2.99805c-58.667 0 -108.333 21.333 -149 64s-61 94 -61 154v306c0 60.667 20.5 112.167 61.5 154.5s90.5 63.5 148.5 63.5s107.5 -21.333 148.5 -64s61.5 -94 61.5 -154
v-306c0 -60 -20.5 -111.333 -61.5 -154s-90.5 -64 -148.5 -64zM283.001 72.002c38.667 0 71.167 14.5 97.5 43.5s39.5 62.167 39.5 99.5v306c0 38.667 -13.333 72 -40 100s-59 42 -97 42c-38.667 0 -71.167 -14.167 -97.5 -42.5s-39.5 -61.5 -39.5 -99.5v-306
c0 -39.333 13.667 -73 41 -101s59.333 -42 96 -42z" />
    <glyph glyph-name="ohungarumlaut" unicode="&#x151;" 
d="M204 551c-9.33301 0 -17.5 3.66797 -24.5 11.001s-10.5 16 -10.5 26c0 8.66699 3.33301 16 10 22l89 95c6.66699 8.66699 15 13 25 13c9.33301 0 17.833 -3.83301 25.5 -11.5s11.5 -16.5 11.5 -26.5c0 -8.66699 -3.33301 -16.334 -10 -23.001l-89 -95
c-7.33301 -7.33301 -16.333 -11 -27 -11zM361 551.001c-9.33301 0 -17.5 3.66797 -24.5 11.001s-10.5 16 -10.5 26c0 8.66699 3.33301 16 10 22l89 95c6.66699 8.66699 15 13 25 13c9.33301 0 17.833 -3.83301 25.5 -11.5s11.5 -16.5 11.5 -26.5
c0 -8.66699 -3.33301 -16.334 -10 -23.001l-89 -95c-7.33301 -7.33301 -16.333 -11 -27 -11zM283 0.00195312c-60 0 -110.667 21.332 -152 63.999s-62 93.334 -62 152.001v61c0 58.667 20.833 109.334 62.5 152.001s92.167 64 151.5 64c60.667 0 111.5 -21.333 152.5 -64
s61.5 -93.334 61.5 -152.001v-61c0 -60 -21.167 -111 -63.5 -153s-92.5 -63 -150.5 -63zM283 74.001c38.667 0 71.667 14 99 42s41 61.333 41 100v61c0 39.333 -13.667 72.833 -41 100.5s-60.333 41.5 -99 41.5c-40 0 -73.333 -14 -100 -42s-40 -61.333 -40 -100v-61
c0 -39.333 14 -72.833 42 -100.5s60.667 -41.5 98 -41.5z" />
    <glyph glyph-name="OE" unicode="&#x152;" 
d="M504 75c9.33301 0 17.5 -3.66602 24.5 -10.999s10.5 -16.333 10.5 -27s-3.66699 -19.5 -11 -26.5s-15.333 -10.5 -24 -10.5h-196c-18 0 -29.333 9.33301 -34 28c-26 -18.667 -55.333 -28 -88 -28c-44 0 -81 16 -111 48s-45 70.333 -45 115v413
c0 45.333 15.167 83.833 45.5 115.5s67.166 47.5 110.499 47.5c32.667 0 62 -9.33301 88 -28c4.66699 18.667 16 28 34 28h196c9.33301 0 17.5 -3.83301 24.5 -11.5s10.5 -16.834 10.5 -27.501s-3.5 -19.5 -10.5 -26.5s-15.167 -10.5 -24.5 -10.5h-160v-256h146
c10 0 18.5 -3.66699 25.5 -11s10.5 -16.333 10.5 -27s-3.66699 -19.5 -11 -26.5s-15.666 -10.5 -24.999 -10.5h-146v-257h160zM271 162.001l-0.000976562 415c0 24 -8.33301 44.667 -25 62s-36.667 26 -60 26s-43.166 -8.83301 -59.499 -26.5s-24.5 -38.167 -24.5 -61.5
v-415c0 -24 8.5 -44.833 25.5 -62.5s36.5 -26.5 58.5 -26.5c24 0 44.167 9 60.5 27s24.5 38.667 24.5 62z" />
    <glyph glyph-name="oe" unicode="&#x153;" 
d="M181 0c-36.667 0 -68.667 13.333 -96 40s-41 59 -41 97v219c0 38 13.667 70.333 41 97s59.333 40 96 40c45.333 0 81.333 -13.333 108 -40c24.667 26.667 56.667 40 96 40c37.333 0 69.5 -13.333 96.5 -40s40.5 -59 40.5 -97v-81c0 -10 -3.16699 -18.333 -9.5 -25
s-14.833 -10 -25.5 -10h-169v-103c0 -18.667 6.5 -34.5 19.5 -47.5s28.833 -19.5 47.5 -19.5c26 0 45.667 11.667 59 35c4.66699 8 11.667 13.667 21 17c4 1.33301 7.33301 2 10 2c15.333 0 26.333 -8.66699 33 -26c1.33301 -5.33301 2 -9 2 -11c0 -20 -14 -39.5 -42 -58.5
s-55.667 -28.5 -83 -28.5c-39.333 -0 -73.333 15.333 -102 46c-28.667 -30.667 -62.667 -46 -102 -46zM181 70c18.667 0 34.5 6.5 47.5 19.5s19.5 28.833 19.5 47.5v237c0 11.333 -6.66699 22.333 -20 33s-29 16 -47 16c-18.667 0 -34.5 -6.5 -47.5 -19.5
s-19.5 -28.833 -19.5 -47.5v-219c0 -18.667 6.5 -34.5 19.5 -47.5s28.833 -19.5 47.5 -19.5zM318 310h134v46c0 18.667 -6.33301 34.5 -19 47.5s-28.667 19.5 -48 19.5c-18.667 0 -34.5 -6.5 -47.5 -19.5s-19.5 -28.833 -19.5 -47.5v-46z" />
    <glyph glyph-name="Racute" unicode="&#x154;" 
d="M277 798c-9.33301 0 -17.5 3.66797 -24.5 11.001s-10.5 16 -10.5 26c0 8.66699 3.33301 16 10 22l89 95c6.66699 8.66699 15 13 25 13c9.33301 0 17.833 -3.83301 25.5 -11.5s11.5 -16.5 11.5 -26.5c0 -8.66699 -3.33301 -16.334 -10 -23.001l-89 -95
c-7.33301 -7.33301 -16.333 -11 -27 -11zM118 0.000976562c-10 0 -18.501 3.83496 -25.501 11.502s-10.5 16.5 -10.5 26.5v663c0 10 3.66699 18.833 11 26.5s15.666 11.5 24.999 11.5h161c60.667 0 112.334 -22.333 155.001 -67s64 -98 64 -160
c0 -48.667 -13.5 -92.334 -40.5 -131.001s-62.167 -66.334 -105.5 -83.001l165 -239c4.66699 -7.33301 7 -14.333 7 -21c0 -10.667 -3.66699 -19.667 -11 -27s-15.666 -11 -24.999 -11c-13.333 0 -23.333 5.33301 -30 16l-187 269h-116v-247
c0 -10.667 -3.5 -19.667 -10.5 -27s-15.833 -11 -26.5 -11zM154.999 361.003h124c39.333 0 73.5 14.833 102.5 44.5s43.5 65.167 43.5 106.5c0 40.667 -14.333 76 -43 106s-63 45 -103 45h-124v-302z" />
    <glyph glyph-name="racute" unicode="&#x155;" 
d="M261 552c-9.33301 0 -17.5 3.66797 -24.5 11.001s-10.5 16 -10.5 26c0 8.66699 3.33301 16 10 22l89 95c6.66699 8.66699 15 13 25 13c9.33301 0 17.833 -3.83301 25.5 -11.5s11.5 -16.5 11.5 -26.5c0 -8.66699 -3.33301 -16.334 -10 -23.001l-89 -95
c-7.33301 -7.33301 -16.333 -11 -27 -11zM102 0.000976562c-9.33301 0 -17.499 3.50098 -24.499 10.501s-10.5 15.167 -10.5 24.5s3.5 17.5 10.5 24.5s15.167 10.5 24.5 10.5h60v388c0 10.667 3.5 19.167 10.5 25.5s14.833 9.5 23.5 9.5c9.33301 0 17.5 -3.33301 24.5 -10
s10.5 -15 10.5 -25v-49c45.333 56 93.333 84 144 84c50 0 91.667 -13.333 125 -40c8 -6.66699 12.667 -14.334 14 -23.001c1.33301 -9.33301 -0.5 -18 -5.5 -26s-12.5 -12.667 -22.5 -14s-19 0.666992 -27 6c-24 18 -50 27 -78 27c-42.667 0 -78.334 -14 -107.001 -42
s-43 -62.333 -43 -103v-208h140c9.33301 0 17.5 -3.5 24.5 -10.5s10.5 -15.167 10.5 -24.5s-3.5 -17.5 -10.5 -24.5s-15.167 -10.5 -24.5 -10.5h-269z" />
    <glyph glyph-name="Rcommaaccent" unicode="&#x156;" 
d="M118 0c-10 0 -18.501 3.83496 -25.501 11.502s-10.5 16.5 -10.5 26.5v663c0 10 3.66699 18.833 11 26.5s15.666 11.5 24.999 11.5h161c60.667 0 112.334 -22.333 155.001 -67s64 -98 64 -160c0 -48.667 -13.5 -92.334 -40.5 -131.001s-62.167 -66.334 -105.5 -83.001
l165 -239c4.66699 -7.33301 7 -14.333 7 -21c0 -10.667 -3.66699 -19.667 -11 -27s-15.666 -11 -24.999 -11c-13.333 -0 -23.333 5.33301 -30 16l-187 269h-116v-247c0 -10.667 -3.5 -19.667 -10.5 -27s-15.833 -11 -26.5 -11zM154.999 361.002h124
c39.333 0 73.5 14.833 102.5 44.5s43.5 65.167 43.5 106.5c0 40.667 -14.333 76 -43 106s-63 45 -103 45h-124v-302zM239.999 -423.998l-39.001 19l86 184c-20.667 1.33301 -38.167 9.5 -52.5 24.5s-21.5 33.167 -21.5 54.5c0 22 7.83301 40.667 23.5 56s33.167 23 52.5 23
c20.667 0 38.334 -7.83301 53.001 -23.5s22 -34.167 22 -55.5v-79z" />
    <glyph glyph-name="rcommaaccent" unicode="&#x157;" 
d="M102 0c-9.33301 0 -17.499 3.50098 -24.499 10.501s-10.5 15.167 -10.5 24.5s3.5 17.5 10.5 24.5s15.167 10.5 24.5 10.5h60v388c0 10.667 3.5 19.167 10.5 25.5s14.833 9.5 23.5 9.5c9.33301 0 17.5 -3.33301 24.5 -10s10.5 -15 10.5 -25v-49
c45.333 56 93.333 84 144 84c50 0 91.667 -13.333 125 -40c8 -6.66699 12.667 -14.334 14 -23.001c1.33301 -9.33301 -0.5 -18 -5.5 -26s-12.5 -12.667 -22.5 -14s-19 0.666992 -27 6c-24 18 -50 27 -78 27c-42.667 0 -78.334 -14 -107.001 -42s-43 -62.333 -43 -103v-208
h140c9.33301 0 17.5 -3.5 24.5 -10.5s10.5 -15.167 10.5 -24.5s-3.5 -17.5 -10.5 -24.5s-15.167 -10.5 -24.5 -10.5h-269zM220.001 -423.999l-39.001 19l86 184c-20.667 1.33301 -38.167 9.5 -52.5 24.5s-21.5 33.167 -21.5 54.5c0 22 7.83301 40.667 23.5 56
s33.167 23 52.5 23c20.667 0 38.334 -7.83301 53.001 -23.5s22 -34.167 22 -55.5v-79z" />
    <glyph glyph-name="Rcaron" unicode="&#x158;" 
d="M279 800c-8.66699 0 -17 3.66699 -25 11l-101 101c-8.66699 8.66699 -13 17 -13 25c0 8.66699 3 16 9 22s13.333 9 22 9c8 0 15 -3 21 -9l87 -87l87 87c6 6 13 9 21 9s15.167 -2.83301 21.5 -8.5s9.5 -13.167 9.5 -22.5c0 -8 -4.33301 -16.333 -13 -25l-102 -101
c-8 -7.33301 -16 -11 -24 -11zM118 0c-10 0 -18.501 3.83496 -25.501 11.502s-10.5 16.5 -10.5 26.5v663c0 10 3.66699 18.833 11 26.5s15.666 11.5 24.999 11.5h161c60.667 0 112.334 -22.333 155.001 -67s64 -98 64 -160c0 -48.667 -13.5 -92.334 -40.5 -131.001
s-62.167 -66.334 -105.5 -83.001l165 -239c4.66699 -7.33301 7 -14.333 7 -21c0 -10.667 -3.66699 -19.667 -11 -27s-15.666 -11 -24.999 -11c-13.333 -0 -23.333 5.33301 -30 16l-187 269h-116v-247c0 -10.667 -3.5 -19.667 -10.5 -27s-15.833 -11 -26.5 -11z
M154.999 361.002h124c39.333 0 73.5 14.833 102.5 44.5s43.5 65.167 43.5 106.5c0 40.667 -14.333 76 -43 106s-63 45 -103 45h-124v-302z" />
    <glyph glyph-name="rcaron" unicode="&#x159;" 
d="M263 554c-8.66699 0 -17 3.66699 -25 11l-101 101c-8.66699 8.66699 -13 17 -13 25c0 8.66699 3 16 9 22s13.333 9 22 9c8 0 15 -3 21 -9l87 -87l87 87c6 6 13 9 21 9s15.167 -2.83301 21.5 -8.5s9.5 -13.167 9.5 -22.5c0 -8 -4.33301 -16.333 -13 -25l-102 -101
c-8 -7.33301 -16 -11 -24 -11zM102 0c-9.33301 0 -17.499 3.50098 -24.499 10.501s-10.5 15.167 -10.5 24.5s3.5 17.5 10.5 24.5s15.167 10.5 24.5 10.5h60v388c0 10.667 3.5 19.167 10.5 25.5s14.833 9.5 23.5 9.5c9.33301 0 17.5 -3.33301 24.5 -10s10.5 -15 10.5 -25v-49
c45.333 56 93.333 84 144 84c50 0 91.667 -13.333 125 -40c8 -6.66699 12.667 -14.334 14 -23.001c1.33301 -9.33301 -0.5 -18 -5.5 -26s-12.5 -12.667 -22.5 -14s-19 0.666992 -27 6c-24 18 -50 27 -78 27c-42.667 0 -78.334 -14 -107.001 -42s-43 -62.333 -43 -103v-208
h140c9.33301 0 17.5 -3.5 24.5 -10.5s10.5 -15.167 10.5 -24.5s-3.5 -17.5 -10.5 -24.5s-15.167 -10.5 -24.5 -10.5h-269z" />
    <glyph glyph-name="Sacute" unicode="&#x15a;" 
d="M290 798c-9.33301 0 -17.5 3.66797 -24.5 11.001s-10.5 16 -10.5 26c0 8.66699 3.33301 16 10 22l89 95c6.66699 8.66699 15 13 25 13c9.33301 0 17.833 -3.83301 25.5 -11.5s11.5 -16.5 11.5 -26.5c0 -8.66699 -3.33301 -16.334 -10 -23.001l-89 -95
c-7.33301 -7.33301 -16.333 -11 -27 -11zM292 0.000976562c-60 0 -110.5 22.167 -151.5 66.5s-61.5 96.166 -61.5 155.499c0 10 3.66699 18.833 11 26.5s16 11.5 26 11.5c9.33301 0 17.666 -3.83301 24.999 -11.5s11 -16.5 11 -26.5c0 -41.333 13.833 -76 41.5 -104
s60.5 -42 98.5 -42c33.333 0 61 9.16699 83 27.5s34 42.166 36 71.499c0 32.667 -10.667 57.667 -32 75l-199 161c-43.333 34.667 -65 82.334 -65 143.001c0 50.667 16.833 94.167 50.5 130.5s75.834 54.5 126.501 54.5c60.667 0 114 -24.667 160 -74
c23.333 -28 35 -50.667 35 -68c0 -10 -3.66699 -19 -11 -27s-15.666 -12 -24.999 -12c-13.333 0 -24.333 7.66699 -33 23c-30 54.667 -72 82 -126 82c-30.667 0 -55.834 -11.167 -75.501 -33.5s-29.5 -48.166 -29.5 -77.499c0 -34 13 -61.333 39 -82l199 -161
c38.667 -32 58 -77.333 58 -136c-2 -51.333 -21.5 -93 -58.5 -125s-81.167 -48 -132.5 -48z" />
    <glyph glyph-name="sacute" unicode="&#x15b;" 
d="M281 552c-9.33301 0 -17.5 3.66797 -24.5 11.001s-10.5 16 -10.5 26c0 8.66699 3.33301 16 10 22l89 95c6.66699 8.66699 15 13 25 13c9.33301 0 17.833 -3.83301 25.5 -11.5s11.5 -16.5 11.5 -26.5c0 -8.66699 -3.33301 -16.334 -10 -23.001l-89 -95
c-7.33301 -7.33301 -16.333 -11 -27 -11zM299 0.000976562c-17.333 0 -36.668 1.33008 -58.001 3.99707s-48.333 10.834 -81 24.501s-58.334 31.834 -77.001 54.501c-14 17.333 -14.667 34.666 -2 51.999c18 18 36.667 18 56 0c24 -24.667 48 -42.167 72 -52.5
s51.333 -15.5 82 -15.5c36 0 66.5 6.33301 91.5 19s37.5 32 37.5 58c0 11.333 -2.66699 21 -8 29s-11.666 14.333 -18.999 19s-17.666 8.5 -30.999 11.5s-24.666 5 -33.999 6s-22.333 2.16699 -39 3.5c-25.333 2 -45.166 4 -59.499 6s-32 5.83301 -53 11.5
s-37 12.834 -48 21.501s-20.833 21.167 -29.5 37.5s-13 35.5 -13 57.5c0 46.667 16.333 82.667 49 108s77.334 38 134.001 38c79.333 0 141 -22 185 -66c8.66699 -8.66699 12.667 -17.334 12 -26.001c-0.666992 -9.33301 -4.66699 -17.666 -12 -24.999
s-15.666 -11 -24.999 -11c-8 0 -16.667 4 -26 12c-38.667 31.333 -83.667 47 -135 47c-72 0 -108 -22.667 -108 -68c0 -23.333 10.167 -40 30.5 -50s51.833 -16.667 94.5 -20c20.667 -1.33301 37.667 -2.83301 51 -4.5s31.166 -5.5 53.499 -11.5s40.166 -13.5 53.499 -22.5
s25.166 -22 35.499 -39s15.5 -37.167 15.5 -60.5c0 -47.333 -18.333 -83.666 -55 -108.999s-83.334 -38.333 -140.001 -39z" />
    <glyph glyph-name="Scedilla" unicode="&#x15e;" 
d="M425 309c38.667 -32 58 -77.335 58 -136.002c-2 -46.667 -18.667 -85.5 -50 -116.5s-70 -49.5 -116 -55.5l-44 -84c24.667 0 42.667 -6.5 54 -19.5s17 -29.833 17 -50.5c0 -62 -46 -93 -138 -93h-31c-18.667 0 -28 9.33301 -28 28s9.33301 28 28 28h35
c52 0 78 12.333 78 37c0 10.667 -4.33301 18.834 -13 24.501s-17 9 -25 10s-18.333 1.83301 -31 2.5c-8 0 -12 2.66699 -12 8c0 2.66699 1 6 3 10l50 100c-52.667 8.66699 -96 34 -130 76s-51 90 -51 144c0 10 3.66699 18.833 11 26.5s16 11.5 26 11.5
c9.33301 0 17.666 -3.83301 24.999 -11.5s11 -16.5 11 -26.5c0 -41.333 13.833 -76 41.5 -104s60.5 -42 98.5 -42c33.333 0 61 9.16699 83 27.5s34 42.166 36 71.499c0 32.667 -10.667 57.667 -32 75l-199 161c-43.333 34.667 -65 82.334 -65 143.001
c0 50.667 16.833 94.167 50.5 130.5s75.834 54.5 126.501 54.5c60.667 0 114 -24.667 160 -74c23.333 -28 35 -50.667 35 -68c0 -10 -3.66699 -19 -11 -27s-15.666 -12 -24.999 -12c-13.333 0 -24.333 7.66699 -33 23c-30 54.667 -72 82 -126 82
c-30.667 0 -55.834 -11.167 -75.501 -33.5s-29.5 -48.166 -29.5 -77.499c0 -34 13 -61.333 39 -82z" />
    <glyph glyph-name="scedilla" unicode="&#x15f;" 
d="M494 148c0 -45.333 -17.335 -80.835 -52.002 -106.502s-79.334 -39.5 -134.001 -41.5l-44 -83c24.667 0 42.667 -6.5 54 -19.5s17 -29.833 17 -50.5c0 -62 -46 -93 -138 -93h-31c-18.667 0 -28 9.33301 -28 28s9.33301 28 28 28h35c52 0 78 12.333 78 37
c0 10.667 -4.33301 18.834 -13 24.501s-17 9 -25 10s-18.333 1.83301 -31 2.5c-8 0 -12 2.66699 -12 8c0 2.66699 1 6 3 10l51 101c-78 10.667 -134.333 37.334 -169 80.001c-14 17.333 -14.667 34.666 -2 51.999c18 18 36.667 18 56 0c24 -24.667 48 -42.167 72 -52.5
s51.333 -15.5 82 -15.5c36 0 66.5 6.33301 91.5 19s37.5 32 37.5 58c0 11.333 -2.66699 21 -8 29s-11.666 14.333 -18.999 19s-17.666 8.5 -30.999 11.5s-24.666 5 -33.999 6s-22.333 2.16699 -39 3.5c-25.333 2 -45.166 4 -59.499 6s-32 5.83301 -53 11.5
s-37 12.834 -48 21.501s-20.833 21.167 -29.5 37.5s-13 35.5 -13 57.5c0 46.667 16.333 82.667 49 108s77.334 38 134.001 38c79.333 0 141 -22 185 -66c8.66699 -8.66699 12.667 -17.334 12 -26.001c-0.666992 -9.33301 -4.66699 -17.666 -12 -24.999
s-15.666 -11 -24.999 -11c-8 0 -16.667 4 -26 12c-38.667 31.333 -83.667 47 -135 47c-72 0 -108 -22.667 -108 -68c0 -23.333 10.167 -40 30.5 -50s51.833 -16.667 94.5 -20c20.667 -1.33301 37.667 -2.83301 51 -4.5s31.166 -5.5 53.499 -11.5s40.166 -13.5 53.499 -22.5
s25.166 -22 35.499 -39s15.5 -37.167 15.5 -60.5z" />
    <glyph glyph-name="Scaron" unicode="&#x160;" 
d="M292 799c-8.66699 0 -17 3.66699 -25 11c-6 4 -15.667 12 -29 24c-6.66699 6.66699 -16 16.667 -28 30c-3.33301 3.33301 -7.16602 7.5 -11.499 12.5s-7.16602 8.16699 -8.49902 9.5c-4 5.33301 -8 9.33301 -12 12c-5.33301 4 -9.33301 8.33301 -12 13
c-2 2 -5 5.66699 -9 11c-2.66699 4.66699 -4 9.33398 -4 14.001c0 8.66699 3 16 9 22c7.33301 6 14.666 9 21.999 9c8 0 15 -3 21 -9l87 -87l87 87c6 6 13 9 21 9s15.333 -3 22 -9c6 -6 9 -13.333 9 -22c0 -4.66699 -1.33301 -9.33398 -4 -14.001c-4 -5.33301 -7 -9 -9 -11
c-2.66699 -4.66699 -6.66699 -9 -12 -13c-4 -2.66699 -8 -6.66699 -12 -12c-2.66699 -2.66699 -9.33398 -10 -20.001 -22c-12 -13.333 -21.333 -23.333 -28 -30c-13.333 -12 -23.333 -20 -30 -24c-8 -7.33301 -16 -11 -24 -11zM292 0c-30 0 -58.001 6.00195 -84.001 18.002
c-24.667 11.333 -47.334 27.333 -68.001 48c-20.667 24 -35.334 47.667 -44.001 71c-11.333 25.333 -17 53.666 -17 84.999c0 10.667 3.66699 19.334 11 26.001c6 8 14.667 12 26 12c9.33301 0 18 -4 26 -12c6.66699 -8 10 -16.667 10 -26c0 -17.333 3.33301 -36 10 -56
c9.33301 -20 19.333 -35.333 30 -46c13.333 -13.333 28 -24 44 -32c18 -8 36.667 -12 56 -12c14.667 0 29 2 43 6c16.667 6 29 12.667 37 20c10 8 19.333 18.667 28 32c6.66699 12.667 10.334 26.334 11.001 41.001c0 12 -2.33301 25.667 -7 41
c-6.66699 14.667 -15 26 -25 34l-199 161c-16 12.667 -28.667 26.667 -38 42c-9.33301 16.667 -16 33.667 -20 51c-4.66699 14.667 -7 31.334 -7 50.001s3.33301 38.667 10 60c12 37.333 33 67.666 63 90.999c28.667 22.667 63.334 34 104.001 34c20 0 39.667 -3 59 -9
c20 -6.66699 38.333 -15.334 55 -26.001c15.333 -9.33301 30.666 -22.333 45.999 -39c14 -16.667 24.333 -33.667 31 -51c4 -10 4.66699 -19.333 2 -28c-3.33301 -10.667 -9.66602 -18.334 -18.999 -23.001c-9.33301 -5.33301 -18.333 -6 -27 -2s-15.667 10.667 -21 20
c-14 25.333 -31 45 -51 59c-19.333 15.333 -44.333 23 -75 23c-23.333 0 -43.666 -6.66699 -60.999 -20c-18 -13.333 -30.333 -31 -37 -53c-4.66699 -15.333 -7 -28 -7 -38c0 -9.33301 1 -18.333 3 -27c6 -22.667 18 -41 36 -55l199 -161c20 -16 35 -36.333 45 -61
c8.66699 -21.333 13 -43.333 13 -66v-9c-1.33301 -26.667 -7 -50.334 -17 -71.001c-12 -22 -26 -40 -42 -54c-18 -15.333 -38.333 -27.333 -61 -36c-23.333 -8 -47 -12 -71 -12z" />
    <glyph glyph-name="scaron" unicode="&#x161;" 
d="M283 554c-8.66699 0 -17 3.66699 -25 11l-101 101c-8.66699 8.66699 -13 17 -13 25c0 8.66699 3 16 9 22s13.333 9 22 9c8 0 15 -3 21 -9l87 -87l87 87c6 6 13 9 21 9s15.167 -2.83301 21.5 -8.5s9.5 -13.167 9.5 -22.5c0 -8 -4.33301 -16.333 -13 -25l-102 -101
c-8 -7.33301 -16 -11 -24 -11zM299 0c-17.333 0 -36.668 1.33008 -58.001 3.99707s-48.333 10.834 -81 24.501s-58.334 31.834 -77.001 54.501c-14 17.333 -14.667 34.666 -2 51.999c18 18 36.667 18 56 0c24 -24.667 48 -42.167 72 -52.5s51.333 -15.5 82 -15.5
c36 0 66.5 6.33301 91.5 19s37.5 32 37.5 58c0 11.333 -2.66699 21 -8 29s-11.666 14.333 -18.999 19s-17.666 8.5 -30.999 11.5s-24.666 5 -33.999 6s-22.333 2.16699 -39 3.5c-25.333 2 -45.166 4 -59.499 6s-32 5.83301 -53 11.5s-37 12.834 -48 21.501
s-20.833 21.167 -29.5 37.5s-13 35.5 -13 57.5c0 46.667 16.333 82.667 49 108s77.334 38 134.001 38c79.333 0 141 -22 185 -66c8.66699 -8.66699 12.667 -17.334 12 -26.001c-0.666992 -9.33301 -4.66699 -17.666 -12 -24.999s-15.666 -11 -24.999 -11
c-8 0 -16.667 4 -26 12c-38.667 31.333 -83.667 47 -135 47c-72 0 -108 -22.667 -108 -68c0 -23.333 10.167 -40 30.5 -50s51.833 -16.667 94.5 -20c20.667 -1.33301 37.667 -2.83301 51 -4.5s31.166 -5.5 53.499 -11.5s40.166 -13.5 53.499 -22.5s25.166 -22 35.499 -39
s15.5 -37.167 15.5 -60.5c0 -47.333 -18.333 -83.666 -55 -108.999s-83.334 -38.333 -140.001 -39z" />
    <glyph glyph-name="uni0162" unicode="&#x162;" 
d="M525 739c10.667 0 19.5 -3.66895 26.5 -11.002s10.5 -16.333 10.5 -27s-3.5 -19.667 -10.5 -27s-15.833 -11 -26.5 -11h-205v-625c0 -5.33301 -1 -10.666 -3 -15.999l-50 -95c24.667 0 42.667 -6.5 54 -19.5s17 -29.833 17 -50.5c0 -62 -46 -93 -138 -93h-31
c-18.667 0 -28 9.33301 -28 28s9.33301 28 28 28h35c52 0 78 12.333 78 37c0 10.667 -4.33301 18.834 -13 24.501s-17 9 -25 10s-18.333 1.83301 -31 2.5c-8 0 -12 2.66699 -12 8c0 2.66699 1 6 3 10l51 101c-6 6.66699 -9 15 -9 25v625h-205
c-10.667 0 -19.5 3.66699 -26.5 11s-10.5 16.333 -10.5 27s3.5 19.667 10.5 27s15.833 11 26.5 11h484z" />
    <glyph glyph-name="uni0163" unicode="&#x163;" 
d="M523 185c0 -46 -14.833 -86.3301 -44.5 -120.997s-66.5 -55.334 -110.5 -62.001l-45 -85c24.667 0 42.667 -6.5 54 -19.5s17 -29.833 17 -50.5c0 -62 -46 -93 -138 -93h-31c-18.667 0 -28 9.33301 -28 28s9.33301 28 28 28h35c52 0 78 12.333 78 37
c0 10.667 -4.33301 18.834 -13 24.501s-17 9 -25 10s-18.333 1.83301 -31 2.5c-8 0 -12 2.66699 -12 8c0 2.66699 1 6 3 10l50 101c-42.667 7.33301 -78.167 28.166 -106.5 62.499s-42.5 74.166 -42.5 119.499v243h-91c-11.333 0 -20.166 3.16699 -26.499 9.5
s-9.5 14.166 -9.5 23.499s3.33301 17 10 23s15.334 9 26.001 9h91v139c0 10.667 3.5 19.667 10.5 27s15.833 11 26.5 11s19.5 -3.66699 26.5 -11s10.5 -16.333 10.5 -27v-139h251c11.333 0 20.166 -3.16699 26.499 -9.5s9.5 -13.833 9.5 -22.5c0 -10 -3.33301 -18 -10 -24
s-15.334 -9 -26.001 -9h-251v-243c0 -30 10.333 -55.833 31 -77.5s46 -32.5 76 -32.5s55.333 10.833 76 32.5s31 47.5 31 77.5c0 10.667 3.66699 19.5 11 26.5s16 10.5 26 10.5s18.667 -3.66699 26 -11s11 -16 11 -26z" />
    <glyph glyph-name="Tcaron" unicode="&#x164;" 
d="M283 800c-8.66699 0 -17 3.66699 -25 11l-101 101c-8.66699 8.66699 -13 17 -13 25c0 8.66699 3 16 9 22s13.333 9 22 9c8 0 15 -3 21 -9l87 -87l87 87c6 6 13 9 21 9s15.167 -2.83301 21.5 -8.5s9.5 -13.167 9.5 -22.5c0 -8 -4.33301 -16.333 -13 -25l-102 -101
c-8 -7.33301 -16 -11 -24 -11zM283 0c-10.667 0 -19.5 3.66699 -26.5 11s-10.5 16.333 -10.5 27v625h-205c-10.667 0 -19.5 3.66699 -26.5 11s-10.5 16.333 -10.5 27s3.5 19.667 10.5 27s15.833 11 26.5 11h484c10.667 0 19.5 -3.66699 26.5 -11s10.5 -16.333 10.5 -27
s-3.5 -19.667 -10.5 -27s-15.833 -11 -26.5 -11h-205v-625c0 -10.667 -3.5 -19.667 -10.5 -27s-15.833 -11 -26.5 -11z" />
    <glyph glyph-name="tcaron" unicode="&#x165;" 
d="M480 563c-8.66699 0 -15.834 2.83301 -21.501 8.5s-8.5 12.834 -8.5 21.501v136c0 8.66699 2.83301 15.834 8.5 21.501s12.834 8.5 21.501 8.5h4c8.66699 0 15.834 -2.83301 21.501 -8.5s8.5 -12.834 8.5 -21.501v-136c0 -8.66699 -2.83301 -15.834 -8.5 -21.501
s-12.834 -8.5 -21.501 -8.5h-4zM342 0c-50.667 0 -93.5 18.001 -128.5 54.001s-52.5 79.667 -52.5 131v243h-91c-11.333 0 -20.166 3.16699 -26.499 9.5s-9.5 14.166 -9.5 23.499s3.33301 17 10 23s15.334 9 26.001 9h91v139c0 10.667 3.5 19.667 10.5 27s15.833 11 26.5 11
s19.5 -3.66699 26.5 -11s10.5 -16.333 10.5 -27v-139h251c11.333 0 20.166 -3.16699 26.499 -9.5s9.5 -13.833 9.5 -22.5c0 -10 -3.33301 -18 -10 -24s-15.334 -9 -26.001 -9h-251v-243c0 -30 10.333 -55.833 31 -77.5s46 -32.5 76 -32.5s55.333 10.833 76 32.5
s31 47.5 31 77.5c0 10.667 3.66699 19.5 11 26.5s16 10.5 26 10.5s18.667 -3.66699 26 -11s11 -16 11 -26c0 -50.667 -17.667 -94.167 -53 -130.5s-78 -54.5 -128 -54.5z" />
    <glyph glyph-name="Tbar" unicode="&#x166;" 
d="M525 739c10.667 0 19.5 -3.66699 26.5 -11s10.5 -16.333 10.5 -27s-3.5 -19.667 -10.5 -27s-15.833 -11 -26.5 -11h-205v-263h85c8 0 14.833 -3 20.5 -9s9.16699 -13.333 10.5 -22c-0.666992 -8 -4 -14.833 -10 -20.5s-13 -8.5 -21 -8.5h-85v-302
c0 -10.667 -3.5 -19.667 -10.5 -27s-15.833 -11 -26.5 -11s-19.5 3.66699 -26.5 11s-10.5 16.333 -10.5 27v301h-87c-8 0 -15 3.16699 -21 9.5s-9 13.5 -9 21.5s3 15 9 21s13 9 21 9h87v263h-205c-10.667 0 -19.5 3.66699 -26.5 11s-10.5 16.333 -10.5 27
s3.5 19.667 10.5 27s15.833 11 26.5 11h484z" />
    <glyph glyph-name="tbar" unicode="&#x167;" 
d="M486 222c10 0 18.667 -3.66602 26 -10.999s11 -16 11 -26c0 -50.667 -17.667 -94.167 -53 -130.5s-78 -54.5 -128 -54.5c-50.667 0 -93.5 18 -128.5 54s-52.5 79.667 -52.5 131v31h-81c-8 0 -15 3.16699 -21 9.5s-9 13.5 -9 21.5s3 15 9 21s13 9 21 9h81v151h-91
c-11.333 0 -20.166 3.16699 -26.499 9.5s-9.5 14.166 -9.5 23.499s3.33301 17 10 23s15.334 9 26.001 9h91v139c0 10.667 3.5 19.667 10.5 27s15.833 11 26.5 11s19.5 -3.66699 26.5 -11s10.5 -16.333 10.5 -27v-139h251c11.333 0 20.166 -3.16699 26.499 -9.5
s9.5 -13.833 9.5 -22.5c0 -10 -3.33301 -18 -10 -24s-15.334 -9 -26.001 -9h-251v-151h91c8 0 14.833 -3 20.5 -9s9.16699 -13.333 10.5 -22c-0.666992 -8 -4 -14.833 -10 -20.5s-13 -8.5 -21 -8.5h-91v-32c0 -30 10.333 -55.833 31 -77.5s46 -32.5 76 -32.5
s55.333 10.833 76 32.5s31 47.5 31 77.5c0 10.667 3.66699 19.5 11 26.5s16 10.5 26 10.5z" />
    <glyph glyph-name="Utilde" unicode="&#x168;" 
d="M384 872c5.33301 10 14 15 26 15c8 0 15 -2.83301 21 -8.5s9 -12.834 9 -21.501c0 -5.33301 -1.66699 -10.333 -5 -15c-19.333 -33.333 -45.666 -50 -78.999 -50c-20 0 -44.833 8.33301 -74.5 25s-46.834 25 -51.501 25c-22 0 -38.333 -9.33301 -49 -28
c-5.33301 -10 -14 -15 -26 -15c-8 0 -15 2.83301 -21 8.5s-9 12.834 -9 21.501c0 4.66699 1.33301 9.66699 4 15c22.667 38.667 56.334 58 101.001 58c15.333 0 37.666 -8.33301 66.999 -25s49 -25 59 -25s19.333 6.66699 28 20zM283 0
c-59.333 0 -109.169 21.666 -149.502 64.999s-60.5 94.666 -60.5 153.999v482c0 10 3.5 18.833 10.5 26.5s15.5 11.5 25.5 11.5s18.5 -3.83301 25.5 -11.5s10.5 -16.5 10.5 -26.5v-482c0 -39.333 13.333 -73.166 40 -101.499s59.334 -42.5 98.001 -42.5
s71.334 14.5 98.001 43.5s40 62.5 40 100.5v482c0 10 3.5 18.833 10.5 26.5s15.5 11.5 25.5 11.5s18.5 -3.83301 25.5 -11.5s10.5 -16.5 10.5 -26.5v-482c0 -61.333 -20.5 -113.166 -61.5 -155.499s-90.5 -63.5 -148.5 -63.5z" />
    </font>
</defs>
</svg>
